<!--
From: https://github.com/cncf/artwork/blob/3e6dbd6b9f3fd3b03e848c10a9921ccc5b5dabf7/projects/jaeger/icon/white/jaeger-icon-white.svg
Has only been modified to set the color to #8fa4b1.
-->
<svg xmlns="http://www.w3.org/2000/svg" role="img" viewBox="27.70 -2.30 447.60 509.60"><style>svg {enable-background:new 0 0 504 504}</style><style>.st0{fill:#8fa4b1}</style><path d="M401.3 371.7c-1.7-12.3-6.9-17.7-11.5-22.6-4.3-4.5-8.3-8.8-7-16.6 1.2-7.2 7-11.7 16.4-12.9-5.7-38.6-14.1-87.4-24.9-129-5.4-20.8-13.9-35.2-25.3-44.8 2.1-1.1 4.1-2.1 6.1-3.2 2.7-1.4 5.3-2.8 7.7-4.2 25.2-14.1 29.3-20.9 30.2-24.8.8-3.3-.3-5.5-1.3-6.8-2.4-3-7-4.4-14.4-4.4-8.3 0-19.5 1.7-31.2 4.2-.1 2.1-.3 4.3-.6 6.7 12-2.6 23.5-4.5 31.7-4.5 7.5 0 9.2 1.6 9.5 1.9.1.1.3.4.1 1.4-.3 1.5-3.3 7.3-27.1 20.7-6.8 3.8-14.9 8-24 12.4l-.1.1h-.2c-10.5 5.1-22.4 10.5-35.2 16.1-7.6 3.3-15.2 6.5-22.6 9.5 3.6-4.1 6.7-7.8 9-10.6 4.5-5.4 3.8-13.5-1.7-18-.4-.3-.7-.6-1.1-.8 10.5-2.7 23.4-3.4 33.2-3.4 9 0 15.4.5 15.4.5 2.8-3.9 19.1-59.6-9-59.6-24.2 0-40 47.3-44 60.7-4.5-1-9.4.5-12.5 4.3-14.8 17.8-34.4 38.7-39.9 41.5-.8.3-1.4.6-1.8.7-4.1-3.4-10.2-4-15-.9-4.2 2.6-6.3 7.3-5.9 11.9-1.6.4-3 .6-3.9.8-2.1.2-5.3.5-9.4.8l-.7-.7c-4-3.3-9.4-3.8-13.8-1.6-2.4 0-11.1-.6-32.9-9.4-21.4-8.6-32-11.1-37.4-11.6 4.4-1.9 7.3-3.1 7.3-3.1s-15-44.1-35.2-44.1c-2.6 0-5.3.7-8.1 2.4-24.2 14.6 9.6 59.1 9.6 59.1 3.9-2.7 8.1-5.2 12.3-7.4-1.2 2.4-1.7 5.2-1.2 8 1 5.4 5.2 9.3 10.2 10.3-45.4-1.5-53.4-7.6-54.8-9.6-.3-.5-.5-.9-.1-1.8 1.7-4.3 8.6-8.9 17.5-13.1-1-1.8-1.9-3.8-2.8-5.8-9.8 4.7-18.3 10.3-20.7 16.6-1.1 2.7-.8 5.3.8 7.7 1.5 2.2 5.3 7.7 33.2 10.7 2.1.2 4.3.4 6.7.6-11.8 24.4-6.7 51.4-2.3 73.7 4.7 24.2 19.6 63.7 31.8 93.4 5.7 13.9 10.7 25.7 13.8 32.8 36.1 3.2 82.4 5.1 132.9 5.1 59.7 0 113.6-2.7 151.6-7-2.4-9.2-6.2-25.2-7.2-31.2 0-.3-.1-.8-.2-1.1zm-98.6-251.5c0-.5 0-1.2.1-2 .1-1.7.5-4.2 1.2-7.1.8-2.9 2-6.2 4.1-9.6 1.1-1.7 2.4-3.4 4.1-4.8.6-.6 1.4-1.1 2.1-1.5.5-.3 1.1-.6 1.6-.8.9-.4 1.8-.6 2.7-.8.6-.1 1.3-.1 1.9-.2.6 0 1.3 0 1.9.1.6.1 1.2.2 1.8.4l.3.1.6.2.3.1.1.1h.1l.3.1h.2c.1 0 1.6 1 2 1.6l.4.5.3.5c.2.3.3.6.4.9 0 .1.1.1.1.2s0 .1.1.2c.4 1.3.4 2.5.4 3.6-.1 1.1-.3 2.1-.5 3.1-.2.9-.5 1.8-.9 2.6-.6 1.7-1.4 3.1-2.1 4.4-1.4 2.6-2.9 4.6-4 6-1.1 1.4-1.8 2.1-1.8 2.1s.2-1 .6-2.6c.4-1.7 1-4 1.7-6.7.3-1.4.6-2.9.9-4.4.3-1.5.4-3.1.4-4.5 0-.2 0-.4-.1-.6-.1-.4-.2-.8-.3-1 0-.1-.1-.1-.1-.2l-.3-.1h-.2l-.6-.2c-.3-.1-.6-.1-.9-.2h-.1c-.4-.1-.7 0-1-.1-.3 0-.6.1-.9.1-.9.2-1.9.5-2.8 1.1l-.9.6c-.3.2-.6.5-.9.7-.6.5-1.2 1.1-1.7 1.7-.3.3-.5.6-.8.9-.5.6-1 1.3-1.5 1.9-1.4 2-2.7 4-3.8 5.8-1.1 1.8-2 3.5-2.7 4.8-.2.4-.5.9-.7 1.2-.8 1.5-1.3 2.4-1.3 2.4s.2-.2.2-.6zm-87.5 72.9c.2-.1.3-.2.5-.3.5-.2 1-.3 1.5-.3.4 0 .9.1 1.3.2s.8.4 1.1.6l3.6 3 4.5-1.3c1-.3 2-.7 3.1-1.1l.2-.1.2-.1c1.4-.7 3.2-2 5.2-3.7 11.1-9.3 30-31.1 37.5-40.1.7-.9 1.8-1.4 2.9-1.4.6 0 1.5.2 2.4.9 1.6 1.3 1.8 3.7.5 5.3-5.1 6.2-10.1 11.9-14.8 17.1-6.4 7.2-12.3 13.3-17.4 18.1-.5.4-.9.9-1.3 1.3-.9.8-1.7 1.6-2.6 2.3l-2.4 2.1c-1.9 1.6-3.6 2.9-5 3.8-.9.6-1.6 1-2.3 1.3-.4.2-.8.4-1.3.5-1.3.5-2.5.9-3.7 1.2-1.6.4-3.1.6-4.6.6-.9 0-1.8-.1-2.7-.2-.9-.1-1.7-.4-2.5-.7-.4-.2-.8-.3-1.2-.5-.4-.2-.7-.4-1-.6-1.9-1.2-2.8-2.5-3-2.9-.1-.2-.3-.4-.3-.7-.2-.5-.3-1-.2-1.4 0-1 .7-2.2 1.8-2.9zm55.4 135.3c-4.1 1.8-10.1 2.6-20.1 2.6h-.5c.2 2 .4 4.3.6 7.1 0 .5.1 1 .1 1.5.1 5.7-2.1 9.1-3.9 10.9-2.5 2.5-5.9 3.9-9.8 3.9-1.8 0-3.7-.3-5.1-.8-1.2-.4-2.2-1.1-3.1-1.9-1.9 3.6-4.9 5-6.7 5.5-1.5.4-3 .7-4.4.7-7.3 0-12.8-5.4-15.3-14.9l-2.1 1.2c-2.6 1.4-5.8 2.2-9.2 2.2-6.4 0-12.3-2.5-16-6.7-3-3.5-4.3-7.8-3.7-12.5 1.9-14.2 22.2-21.4 24.5-22.2l3.7-1.3c-.1-.4-.2-.7-.3-1.1 0-.2-.1-.5-.1-.7v-.9c0-.2 0-.3.1-.5v-.2c0-.2.1-.5.2-.7.1-.2.1-.5.2-.7 0-.1.1-.1.1-.2.1-.2.1-.3.2-.5 0-.1.1-.2.1-.2.1-.2.2-.3.3-.5 0-.1.1-.1.1-.2.1-.2.3-.5.4-.7.2-.2.3-.4.5-.7 0-.1.1-.1.1-.2.1-.2.3-.3.4-.5l.2-.2.5-.5.1-.1c.4-.4.9-.9 1.4-1.3.1-.1.1-.1.2-.1.2-.2.4-.3.6-.5l.2-.2c.2-.2.5-.3.7-.5.1 0 .1-.1.2-.1l.9-.6c.4-.2.7-.4 1.1-.6.1 0 .1-.1.2-.1.8-.4 1.6-.8 2.4-1.1.1 0 .2-.1.3-.1.4-.2.9-.3 1.3-.5s.9-.3 1.3-.4c.1 0 .2-.1.3-.1.5-.1.9-.3 1.4-.4.5-.1.9-.2 1.4-.3.1 0 .2-.1.4-.1.5-.1 1-.2 1.4-.3.5-.1 1.1-.2 1.6-.2.6-.1 1.1-.1 1.7-.2h.5c.4 0 .7 0 1.1-.1h3.9c.3 0 .6.1.9.1.4 0 .8.1 1.2.2.2 0 .5.1.7.1.3.1.6.1.8.2.2 0 .3.1.5.1.3.1.6.1.9.2.1 0 .3.1.4.1l.9.3c.1 0 .2.1.3.1 1.8.6 3.4 1.4 4.6 2.4.3.2.5.4.7.6l.8.8.3.3c.1.1.2.2.2.3.1.2.2.3.3.5.1.1.1.2.2.3h4.5c10.3.1 18.8 1.5 25.3 4.1 6.5 2.7 10.5 6.5 11.2 10.9 1.6 8.8-2.7 16.4-11.3 20.2zM96.9 170.1c-1-1.2-2.3-3-3.8-5.1-1.5-2.1-3.2-4.6-5.1-7.1-.9-1.3-1.9-2.5-2.9-3.7-.4-.4-.8-.9-1.2-1.3-.4-.4-.8-.8-1.2-1.1-.3-.2-.5-.4-.8-.6-.2-.2-.5-.3-.7-.5l-.6-.3h-.2.2l-.3.1h-.2c-.3.1-.4.2-.6.3-.2.2-.4.6-.5 1.1-.3 1-.3 2.5-.2 3.8.1 1.4.3 2.7.5 4 .4 2.5.9 4.7 1.2 6.2.2.8.3 1.4.4 1.8 0 .1 0 .2.1.3 0 .2.1.4.1.4s-.2-.2-.4-.5c-.3-.3-.7-.8-1.2-1.4-.7-.9-1.6-2.2-2.6-3.8-.3-.5-.6-1.1-.9-1.7-.2-.4-.4-.8-.6-1.3-.4-.9-.8-1.9-1.1-2.9-.4-1.6-.9-3.4-.7-5.6.1-.8.3-1.7.6-2.6.1-.3.3-.6.5-.9.7-1.2 2-2.3 3.3-2.8l.2-.1.1-.1.4-.1.3-.1.3-.1c.1 0 .5-.1.7-.1h1.5c.4.1.7.1 1.1.2 1 .3 1.9.7 2.6 1.2.2.2.5.3.7.5.4.3.7.6 1 .9.5.4.9.8 1.3 1.2.7.7 1.3 1.5 1.8 2.2 1.1 1.5 2 3 2.9 4.5.8 1.5 1.5 3 2.1 4.4.4.9.7 1.8 1 2.6.2.5.4 1 .5 1.5.2.6.4 1.3.6 1.8.5 1.8.8 3.3 1.1 4.4.1.6.2 1 .2 1.4v.4c0 .4.1.6.1.6s-.6-.7-1.6-2zm2.9 19c-.2-1.3.3-2.3.6-2.8s1.1-1.3 2.4-1.6c.3-.1.5-.1.8-.1h.4c.3 0 .8 0 1.3.1.4 0 .9.1 1.4.2.9.1 2 .3 3.4.6.8.2 1.7.4 2.7.6.8.2 1.6.4 2.5.7.5.2 1.1.3 1.7.5l2.1.6c.6.2 1.3.4 1.9.6.3.1.6.2 1 .3.7.2 1.4.5 2.1.7 1.4.5 3 1 4.6 1.6l2.4.9 1.5.6c2.4.9 5 1.9 7.8 3 .8.3 1.5.6 2.3.9 1 .4 1.9.7 2.8 1.1 1.5.6 2.9 1.1 4.3 1.6.8.3 1.5.5 2.3.8 5.6 2 10.1 3.3 13.8 4.1.3.1.6.1.9.2 1.7.4 3.2.7 4.6.9.1 0 .3 0 .4.1 1.9.3 3.5.4 4.7.4h2.3l1.8-.9c.5-.3 1.1-.4 1.7-.4.3 0 .7 0 1.1.2.4.1.9.3 1.3.7.3.2.5.4.6.7.2.3.4.6.5.9 0 .1 0 .1.1.2.1.3.1.5.2.7v.5c0 .2 0 .4-.1.7-.1.2-.1.5-.3.8-.1.3-.3.5-.5.8l-.3.3c-.1.1-.2.3-.4.4-.1.1-.2.1-.3.2-.3.2-.7.5-1.2.7-.6.3-1.5.6-2.5.8-.5.1-1.1.2-1.8.2-.7.1-1.4.1-2.2.1-2.1 0-4.5-.2-7.2-.7-2.7-.4-5.7-1.1-8.9-2s-6.8-2-10.6-3.3c-3.8-1.3-7.9-2.9-12.3-4.6-5.3-2.1-9.8-3.8-13.6-5.2-.5-.2-.9-.3-1.4-.5-10.5-3.6-15.5-4.5-17.5-4.7h-.1l-.6-.1h-.9c-1.7 0-3.2-1.3-3.6-3.1zm-3.5 78.4c0-27.8 22.6-50.3 50.3-50.3s50.3 22.6 50.3 50.3c0 27.8-22.6 50.3-50.3 50.3s-50.3-22.5-50.3-50.3zm179.4 20.4c-27.8 0-50.3-22.6-50.3-50.3 0-27.8 22.6-50.3 50.3-50.3s50.3 22.6 50.3 50.3c0 27.7-22.6 50.3-50.3 50.3zM95.1 416.4c9.2 0 15.9-4.8 20.6-11.1.3-.4.5-.7.8-1.1-3.2-7.5-7.7-18.1-12.6-30.1-3.4-8.4-7-17.6-10.6-26.9-2.3 2-5 5-7.9 9.5-3.2 4.9-6.1 12.8-7.8 21.2-1.5 7.6-1.9 15.6-.6 22.4.6 2.8 1.4 5.4 2.7 7.7 3.1 5.6 8.2 8.4 15.4 8.4zm-46.3-27.3c0 3.5 7.6 6.8 21.1 9.7-1-7-.4-14.1.5-19.6-13.8 3-21.6 6.3-21.6 9.9zm398.7-9.1c-.2.6-.4 1.1-.7 1.7-1.7 3.9-4 7.3-7.1 10.2-6.1 5.8-11.5 9.2-16.2 10.5 26.4-3.7 42.1-8.3 42.1-13.3.1-3.2-6.4-6.3-18.1-9.1z" class="st0"/><path d="M440.4 378.5c3.7-8.6 2.4-18.9-.7-26.9-5.7-14.8-17.9-25.3-29.6-25.6h-.4s-2.3-.3-5.3-.3c-6.4 0-14.2 1.4-15.3 7.8-.7 4.5 1.2 6.8 5.4 11.2 4.8 5 11.3 11.8 13.2 26.1.1 1 .3 2 .4 3 2.3 14.4 6.1 21.7 11.4 21.7 2.6 0 7.4-1.6 15.4-9.1 2.5-2.4 4.3-5 5.5-7.9zM102.9 137.8c-.4-10.9-.6-21.6-.1-24.8 1.4-6.5 41.8-52.7 68.4-58.1 2.2-.4 4.8-.7 7.8-.7 30 0 87.4 21.4 94.4 25.1.4.9.9 2.6 1.5 4.9-3.3 3.4-5.9 8.6-7.3 14.7-1.4 6.2-1.1 12 .4 16.4-30.3 13.2-105.7 41.7-162.3 26.4 1.2 1.8 2.4 3.7 3.5 5.8 4.3 7.5 7.4 14.8 9.1 19.2 23.4 3.7 75.1 4.5 156.2-32 1.5-4.8 3.9-11.7 7.1-19.1-1.5 1.4-3 2-4.2 1.8-3.3-.7-5.5-8.2-3.5-17.1 1.9-8.4 6.6-14.1 9.8-14.1.2 0 .4 0 .5.1 3.2.7 5.3 7.7 3.7 16.1 10.6-19.6 22.6-29.5 35.6-29.5 4.4 0 8.2 1 11.5 3 5.5-6.7 9-11.3 9-11.3-4.1.7-12.8 1.9-12.8 1.9 32.6-12 30-44.6 30-44.6 0 5.6-16.9 19.1-16.9 19.1.8-4.9-1.9-11.3-1.9-11.3.7 6.4-19.5 22.9-19.5 22.9 1.5-3 .4-8.3.4-8.3-1.1 6-10.1 8.3-10.1 8.3 5.6-6.8 16.1-42.4 8.3-44.6-7.9-2.3-18.8 23.3-18.8 23.3-.4-6-3.8-6-3.8-6C300.4 44 285.4 59 285.4 59c-1.1-3.8-7.1-5.6-7.1-5.6 1.4 3 .6 13.8-.2 21.6l-.2-.2c-3.2-3.2-67.4-27-99-27-3.4 0-6.5.3-9 .8-16.7 3.4-36.6 20.6-46.9 30.6C110.6 91 97.3 106.5 96.4 112c-.4 2.9-.4 10.2-.2 18.3 2.3 2 4.5 4.6 6.7 7.5zm41.8 312.1c-7.2 1.6-28.2 13.1-46.4 16.6-18.2 3.5-34 5.3-39.5 7.4-5.5 2-9.8 6.1 1 10.2s63.4 5.5 68.1 0c4.7-5.5-3.2-7.9-14.7-7.8-8.2.1-7.2-2.7-7.2-3.1 0 0 .5-3.6 13.1-5.3 12.6-1.7 68.1-7 67.1-12.9s-34.3-6.7-41.5-5.1z" class="st0"/><ellipse cx="108.7" cy="493.7" class="st0" rx="10.9" ry="3.2" transform="rotate(-12.285 108.609 493.667)"/><ellipse cx="83.5" cy="492.3" class="st0" rx="11.5" ry="3.1" transform="rotate(-4.542 83.463 492.308) scale(1.00004)"/><ellipse cx="63.3" cy="489.8" class="st0" rx="7.7" ry="2.4" transform="rotate(-7.765 63.331 489.89)"/><ellipse cx="48.4" cy="487.5" class="st0" rx="7.4" ry="1.9" transform="rotate(-8.27 48.382 487.623)"/><ellipse cx="45.1" cy="483.3" class="st0" rx="7.4" ry="1.9" transform="rotate(-8.27 45.007 483.428)"/><ellipse cx="44.2" cy="478.5" class="st0" rx="6.4" ry="1.7" transform="rotate(-8.27 44.156 478.58)"/><path d="M253.9 455.7c-12.5.6-40.7-.8-44.6 5.7-3.9 6.5 11.5 9 35.6 7s58.3-4.7 59.7-12.1c1.4-7.4-6.3-5.9-7.2-10.6-.8-4.7 8.6-4.7 10.4-11.7 1.8-7-12.7-6.1-25.6-6.1s-34.4 1.2-36.4 8 9.8 6.8 18.2 8.4c8.4 1.6 5.9 4.7 5.9 4.7-.2 4.2-3.5 6.1-16 6.7z" class="st0"/><ellipse cx="220.6" cy="473.6" class="st0" rx="10.8" ry="3.5"/><ellipse cx="248.4" cy="472.9" class="st0" rx="7.2" ry="3.2"/><ellipse cx="270.9" cy="470.6" class="st0" rx="7.9" ry="2.6"/><ellipse cx="288.2" cy="467.6" class="st0" rx="5.8" ry="2.8"/><ellipse cx="303.2" cy="464.5" class="st0" rx="5.8" ry="2.7"/><path d="M146.7 225.9c-10.8 0-20.6 4.1-28 10.8-.5.4-1 .9-1.4 1.4-7.5 7.5-12.2 17.9-12.2 29.4 0 4.3.7 8.5 1.9 12.4.4 1.3.9 2.6 1.4 3.8.5 1.2 1.1 2.5 1.8 3.6 1 1.8 2 3.5 3.2 5.1 7.6 10.2 19.7 16.7 33.4 16.7 23 0 41.6-18.6 41.6-41.6s-18.8-41.6-41.7-41.6zm-3.8 69.4c-3.6 0-6.9-1.5-9.3-3.8-.5-.5-.9-1-1.3-1.5-.3-.4-.5-.7-.7-1.1-.5-.8-.8-1.6-1.1-2.5-.1-.2-.1-.4-.2-.6-.3-1.1-.5-2.3-.5-3.6 0-7.2 5.9-13.1 13.1-13.1 5.9 0 10.9 3.9 12.5 9.2.4 1.2.6 2.5.6 3.9 0 7.2-5.8 13.1-13.1 13.1zM290 198.4c-2.5-.9-5.2-1.6-8-2-2.1-.3-4.2-.5-6.3-.5-9.3 0-18 3.1-24.9 8.3-3.2 2.4-6.1 5.2-8.5 8.5-1.2 1.6-2.3 3.3-3.2 5.1l-1.8 3.6c-.5 1.2-1 2.5-1.4 3.8-1.2 3.9-1.9 8.1-1.9 12.4 0 5 .9 9.9 2.5 14.3.2.6.5 1.3.7 1.9 1.1 2.5 2.3 4.9 3.8 7.1.4.6.8 1.1 1.2 1.6.8 1.1 1.7 2.1 2.5 3.1 1.3 1.5 2.8 2.9 4.3 4.1 7.2 5.9 16.4 9.5 26.5 9.5 23 0 41.6-18.6 41.6-41.6.2-18-11.2-33.3-27.1-39.2zm-14.8 65.1c-1.6.7-3.3 1-5.1 1-1.4 0-2.7-.2-3.9-.6-1.5-.5-3-1.2-4.2-2.2-.4-.3-.8-.7-1.2-1-.3-.3-.6-.6-.8-.9-.4-.5-.8-1.1-1.2-1.7-.3-.5-.6-1-.8-1.6-.3-.7-.5-1.4-.7-2.1-.2-1-.4-1.9-.4-3 0-.5 0-.9.1-1.3 0-.4.1-.9.2-1.3 1-4.7 4.4-8.5 9-9.9 1.2-.4 2.5-.6 3.9-.6 1.8 0 3.5.4 5.1 1 .8.3 1.5.7 2.2 1.2.4.2.7.5 1 .8 2.9 2.4 4.8 6.1 4.8 10.1 0 5.4-3.3 10.1-8 12.1zm-51 80.8c-.4-1-.7-2-.9-2.8-.9-3.1-1.6-6.3-2-8.7-1.1.4-2.2.8-3.3 1.3-3.7 1.8-7 3.8-10 5.7-.1 0-.1.1-.2.1.8 3.7 3.3 11.8 9.8 11.8.8 0 1.7-.1 2.6-.4 3-1 4-3.8 4-7zm8.9-13.6c-1.9 0-3.3.1-4.2.2-.6.1-1.1.2-1.7.3.4 2.3 1 5.5 1.9 8.5 1.1 3.8 2.7 7.3 4.8 8.1.6.2 1.7.4 2.9.4 3.3 0 7.7-1.5 7.6-8.5v-1.1c-.3-3.4-.5-5.8-.7-7.6-1.1 0-2.3-.1-3.3-.1-2.6-.1-5.2-.2-7.3-.2z" class="st0"/><path d="M245.5 299.4s-1.2 14-20.9 16.9c-3.7.6-6.9.8-9.7.8-10.5 0-14.6-3.5-17.1-6.5 0 0-18.9 6.4-20.4 17.2-1.1 8.1 6.7 12.3 13.6 12.3 2.3 0 4.5-.5 6.3-1.4 6.9-3.8 17.2-12.1 30.9-13.9 1.2-.2 3-.2 5-.2 4.7 0 11.1.3 17.3.3 7.1 0 13.9-.4 17.6-2.1 8.5-3.8 8.5-10.3 7.9-13.5-.6-3.6-9.2-9.7-30.5-9.9z" class="st0"/></svg>