<!--
From here: https://github.com/cncf/artwork/blob/3e6dbd6b9f3fd3b03e848c10a9921ccc5b5dabf7/projects/cert-manager/icon/white/cert-manager-icon-white.svg
Only modified to set the fill color to #8fa4b1.
-->
<svg id="svg3881" xmlns="http://www.w3.org/2000/svg" viewBox="0 0 792 792"><defs><style>.cls-1{fill:#8fa4b1;}</style></defs><path class="cls-1" d="M402.5229,96.16562c-154.49622-1.81855-280.08545,111.53747-300.82166,257.3861,18.18463.8946,28.32349,5.67072,38.15668,10.3064,6.42492,3.0285,12.64776,5.95764,20.92779,7.88855,17.406,1.9483,34.48792,1.18353,50.90991-6.00128,8.65455-3.78644,17.059-8.22,26.23609-10.74347,12.06073-3.31635,24.33423-3.70508,36.74029-2.93323a81.61615,81.61615,0,0,1,21.24286,4.35767,108.50422,108.50422,0,0,1,18.95868,7.43078c3.69989,1.74427,7.33338,3.45514,11.32984,4.96241a95.606,95.606,0,0,0,31.18744,3.78784A109.1017,109.1017,0,0,0,379.835,369.6196c.61273-.15271,1.76434-1.20942,1.98932.41925a5.6943,5.6943,0,0,1,.0849,1.28149c2.22662-.57587,4.30823-1.22314,6.28912-1.92468v-4.37049c-.00006-3.59729-.23706-3.8515-3.72235-3.85449-7.89722-.00677-15.79492.04724-23.69134-.03174a12.425,12.425,0,0,0-6.52985,1.87989c-5.47083,3.15844-10.9035,2.51306-15.60663-1.70227-3.95355-3.54358-5.09-9.64313-2.788-14.96357,2.95929-6.83923,12.14642-9.64764,18.41925-5.58935a11.3715,11.3715,0,0,0,6.50616,1.94147c7.97858-.07856,15.95844-.02283,23.93775-.03315,3.0368-.004,3.4646-.44244,3.47357-3.4563.00787-2.6336-.11634-5.27435.03979-7.89874.12006-2.01721-.74438-3.00689-2.51544-3.76526-7.2923-3.12256-13.76886-7.34228-18.01392-14.30212-14.78961-24.24786-.19342-51.56635,24.04645-56.4007a37.12879,37.12879,0,0,1,40.17755,19.57807c8.14331,16.34851,4.16242,38.98028-15.7044,49.0921-2.784,1.417-4.0893,3.09405-3.77161,6.2981a72.492,72.492,0,0,1,.04144,8.85217c-.03473,1.4505.55744,2.016,1.96314,2.01269,8.141-.01892,16.282-.00683,24.42309-.01288a7.33724,7.33724,0,0,0,3.91346-1.6231,12.88345,12.88345,0,0,1,16.069,1.34008,13.51634,13.51634,0,0,1,3.73883,12.27125c2.05615.32867,3.99444.713,5.83264,1.14373.321-1.30749,1.12-1.00988,2.06061-.74414a108.12148,108.12148,0,0,1,19.0064,7.60932c22.32489,11.19543,45.5868,12.55822,69.49158,6.74017,7.43884-1.81049,14.30518-5.325,21.19538-8.61041a92.65783,92.65783,0,0,1,38.52258-9.05774c13.43316-.27063,26.55249,1.127,39.07751,6.2904,3.67426,1.51471,7.23542,3.30475,10.91675,4.80011,1.9079.775,2.78882,1.93659,2.5614,3.95441a79.008,79.008,0,0,0,26.7356,6.83966C686.63056,219.19272,558.61689,98.003,402.5229,96.16562ZM297.134,216.14224c-5.11951,5.21381-11.36713,8.04-18.90009,7.34009a15.47784,15.47784,0,0,1-10.06457-4.94916,45.53557,45.53557,0,0,1-9.67554-14.97052c-3.61609-9.56476.29218-19.16,9.38873-24.14282a26.90963,26.90963,0,0,1,12.529-3.41486,15.20483,15.20483,0,0,1,12.24151,5.4112c1.3523,1.54223,1.325,3.0487-.412,4.25207-3.50494,2.4281-7.17987,4.00983-11.59735,2.17786-3.30865-1.37213-7.004-.12946-9.67352,2.8811-2.14453,2.41846-2.41034,5.1955-.53784,8.62219,1.63867,2.99884,3.43439,5.91877,5.28876,8.79084,1.72149,2.66632,3.92083,4.69641,7.46551,3.98162,4.21619-.85015,7.15485-3.60321,7.6742-7.4439.62243-4.60273,3.41662-7.37323,7.35113-9.23639,1.878-.88935,3.11841-.22748,3.85724,1.7904C304.80421,204.70266,302.30054,210.88052,297.134,216.14224Zm83.16363-27.42035c-.63562,1.20154-1.85357,1.45844-3.01379,1.67017-7.97,1.45465-15.94739,2.86847-23.92267,4.29376-1.01617.18164-2.031.37408-3.05163.52685-3.16.473-4.05146-.11-4.597-3.223-1.63373-9.3222-3.22229-18.6524-4.82727-27.97973-.61987-3.60205-1.23627-7.20472-1.77856-10.36567.11364-2.74292,1.59552-3.61206,3.57959-3.92907,5.02685-.8031,10.0636-1.54645,15.0838-2.38861,3.449-.57856,6.86352-1.36817,10.31793-1.9068,3.59906-.56116,4.29083.01324,5.00183,3.60461,1.20654,6.09467.94464,6.433-5.30023,7.37616-4.0072.60516-8.00726,1.26062-12.00275,1.93933-2.24426.38123-3.12079,1.57074-2.80719,3.63434.41663,2.74188,1.15894,3.46112,3.73639,3.06116,4.16211-.64594,8.30615-1.42151,12.43964-2.23487,3.5589-.70025,4.634-.10076,5.46991,3.38361.18475.77.23358,1.5719.36041,2.35663.52069,3.22186-.31036,4.465-3.41809,4.9892-4.00165.675-7.99524,1.42535-12.01862,1.93591-3.898.49463-3.90637,1.94867-3.14428,5.5802.40594,1.93433,2.23339,1.78381,3.75927,1.52136,4.69934-.80817,9.38465-1.69751,14.08136-2.5213.85749-.15045,1.74329-.13776,2.61548-.2066a2.42644,2.42644,0,0,1,1.75537.63733C379.19434,180.9526,380.63306,188.08767,380.29761,188.72189Zm76.1059-10.73926c-1.78729.81336-2.11041,2.00135-1.52673,3.84864,1.29059,4.08453,2.42883,8.21905,3.54669,12.35546.61114,2.26117-.0957,3.30506-2.4198,3.13251-6.32275-.46954-8.90039-.32757-11.10089-7.66662-.84314-2.81208-1.80268-5.59656-2.48865-8.44666-.75684-3.14423-2.67511-3.50891-5.63727-3.39679-1.00757.03815-1.16858.80481-1.3374,1.661-.53894,2.73346-1.11426,5.46344-1.79944,8.16333-.55078,2.17017-1.61987,4.11859-4.04669,4.52246a9.51769,9.51769,0,0,1-7.577-2.10089c-1.30493-1.03064-.72345-2.67877-.45678-4.05475q2.86248-14.76745,5.80084-29.52014c.5542-2.807,1.09308-5.61761,1.70465-8.41223.34509-1.577,1.26465-2.65375,3.03619-2.31506,8.4181,1.60925,17.0409,2.49658,24.93128,6.12823,4.89722,2.254,7.44079,6.73291,7.46619,12.08807C464.23151,170.04434,462.42658,175.2416,456.40351,177.98263Zm90.60071,18.92847c-1.06482,1.795-1.87232,3.94232-4.47992,4.35156a9.71935,9.71935,0,0,1-1.50665-.48236c-.85028-.421-1.65479-.934-2.48267-1.40088-5.82989-3.28814-6.48853-3.44836-9.87756,1.96668-4.24121,6.77661-8.567,13.50067-12.89337,20.22357-1.92768,2.9956-3.09986,3.18927-6.005,1.20251-.98-.67028-1.97076-1.327-2.97949-1.95306-3.19476-1.98273-3.45276-3.06232-1.384-6.33179,3.13311-4.95172,6.30908-9.87634,9.43682-14.83142,1.98938-3.15179,3.83613-6.39807,5.93384-9.47442.695-1.01923.42249-1.47535-.22351-2.17841-1.548-1.68475-3.68262-2.44562-5.57922-3.56494-3.23151-1.90735-3.79108-3.68451-1.92127-6.81464,2.53937-4.251,4.06842-4.81842,7.49115-2.66076q12.56022,7.91811,25.08295,15.89581C548.60755,192.76883,548.8437,193.81021,547.00422,196.9111Z"/><path class="cls-1" d="M442.72083,158.28878c-3.1651.06525-4.64532,1.55146-4.63122,4.66095-.19031,3.27375,1.9967,5.87629,5.51245,5.414a13.4233,13.4233,0,0,1,3.056.21484c2.06354.20648,3.96106-.35828,4.89429-2.52673a4.1206,4.1206,0,0,0-1.13422-5.15448A10.7271,10.7271,0,0,0,442.72083,158.28878Z"/><path class="cls-1" d="M170.65815,413.64822a129.16793,129.16793,0,0,0,15.26276-.33783c11.6372-.91949,22.39276-4.5979,32.75543-9.69757a100.34565,100.34565,0,0,1,43.64422-10.81909,113.83117,113.83117,0,0,1,19.41974,1.36444c15.32361,1.45148,24.56848,5.807,33.55951,10.04614,7.69544,3.628,15.09711,7.11267,26.1612,8.87708a123.233,123.233,0,0,0,22.45147.29345,83.07847,83.07847,0,0,0,16.43732-2.90545c1.18567-.33112,1.46295-.02967,1.5321,1.07373,2.23865-.58643,4.3263-1.24756,6.31659-1.96167q0-18.5137-.00012-37.02741c-7.6886,2.59864-17.02161,4.47254-30.21155,4.47254-12.75592,0-21.9013-1.754-29.44384-4.21973a100.82654,100.82654,0,0,1-19.69477-7.55035,100.04332,100.04332,0,0,0-17.45025-6.85932,98.46911,98.46911,0,0,0-20.917-1.99609c-21.54443,0-32.02636,4.94043-43.124,10.17041-10.90625,5.14014-22.1831,10.45508-44.3916,10.45508a102.989,102.989,0,0,1-20.34424-1.837,83.72829,83.72829,0,0,1-17.76337-3.77c-5.80963-1.95373-11.29419-4.6831-16.92523-7.06384-1.6239-.68652-1.38226-1.88654-1.03045-2.87823a81.11373,81.11373,0,0,0-25.61438-4.94733A302.73549,302.73549,0,0,0,98.70734,393.695c20.31159.49225,31.11719,5.57929,41.57734,10.51026C148.91834,408.27487,157.17866,412.16647,170.65815,413.64822Z"/><path class="cls-1" d="M271.34248,598.38107c1.05334.61353,1.51733.55457,1.86108-.59924a57.927,57.927,0,0,0,2.57269-12.21173c-1.97644,1.50976-3.543,2.68414-5.08575,3.889C264.98438,593.91543,265.06867,594.72738,271.34248,598.38107Z"/><path class="cls-1" d="M405.38569,621.05063c-.22046.23364-.37653.32537-.41809.4541q-1.17143,3.62923-2.31769,7.26666c-1.99439,6.3194-1.5014,6.87036,5.15771,6.16656,1.86506-.19708,2.37342-.93328,1.71717-2.66845C408.12556,628.56991,406.78309,624.8489,405.38569,621.05063Z"/><path class="cls-1" d="M182.96534,462.78048c1.63122,0,3.19055-.03222,4.69781-.08813a85.18642,85.18642,0,0,0,24.70343-6.80609c7.18256-3.20764,14.22535-6.76868,21.73194-9.20661a96.4645,96.4645,0,0,1,29.90576-4.36474q2.42633-.1215,5.04828-.14874a10.32123,10.32123,0,0,1,2.45276-.003c3.28405.02417,6.33343.16181,9.175.39875q4.71259-15.14209,9.52155-30.254c.95068-2.98755,3.80347-3.611,5.9353-1.29449q11.97693,13.01458,23.87714,26.09991c2.15076,2.3576.90716,5.38153-1.949,5.68573a16.074,16.074,0,0,0-1.8551.45367c-1.88251.43415-2.03015,1.41675-1.09155,2.96479a78.22153,78.22153,0,0,0,6.64069,9.3659c9.012,3.973,19.023,7.197,36.22747,7.197a112.38881,112.38881,0,0,0,11.5636-.56018,82.83657,82.83657,0,0,0,10.65589-2.23144c.80444-.22742,1.24554-.29511,1.47625.07074,2.31494-.60828,4.46607-1.29785,6.51606-2.04309q0-21.57716-.00013-43.1543c-7.70507,2.57117-17.0559,4.41632-30.21167,4.41632-2.28534,0-4.45031-.05835-6.51745-.16376a93.54231,93.54231,0,0,1-39.017-8.95526c-5.101-2.41394-10.14118-5.019-15.41254-6.99389a74.796,74.796,0,0,0-17.36853-4.17542c-2.82831-.21912-5.87683-.33765-9.19031-.33765-21.3208,0-31.7041,4.89356-42.69775,10.0752-11.00537,5.1875-22.38574,10.55078-44.81787,10.55078-2.93555,0-5.67749-.09393-8.25836-.2652a98.67563,98.67563,0,0,1-28.75452-4.01226c-6.93359-2.1438-13.40277-5.41864-20.02759-8.31305a1.5384,1.5384,0,0,1-1.10174-1.6186c.02795-.66265.03247-1.32788.03033-2.00842-6.8388-2.36889-14.89264-4.0885-26.14929-4.36609a305.17549,305.17549,0,0,0,3.46277,43.63263c18.33227.95374,28.59308,5.78479,38.544,10.47541C151.59522,457.9338,161.87647,462.78048,182.96534,462.78048Z"/><path class="cls-1" d="M376.26252,468.6802a26.55722,26.55722,0,0,1-10.205.85212c-2.52679.16131-5.209.24816-8.07068.24816a101.21659,101.21659,0,0,1-23.58245-2.48736c.16992.11828.32934.24731.50079.36407,4.39343,2.9914,9.66644,4.45118,14.79767,5.88678a203.78708,203.78708,0,0,0,35.22418,6.41919c2.46667.24048,3.24725-.43628,3.26141-3.12585.02-3.80591.01868-7.61194.01508-11.418a80.21566,80.21566,0,0,1-9.20807,2.43976C378.26679,468.09884,377.36884,468.35367,376.26252,468.6802Z"/><path class="cls-1" d="M470.42487,453.25149a77.765,77.765,0,0,0-16.1394-3.01983c-3.57233-.27613-7.15534-.41352-10.73358-.6131a95.45289,95.45289,0,0,0-22.75031,2.5697,5.04666,5.04666,0,0,1-.52472.10669,78.13,78.13,0,0,0-7.76,2.682q0,10.70278.00006,21.40545c.00006,4.51575.04786,4.50983,4.53559,4.31714a165.17283,165.17283,0,0,0,29.48706-4.29816c13.77606-3.12469,24.343-10.62445,32.82446-21.05792-2.31689-.96008-4.73236-1.85864-7.34039-2.65832A2.5241,2.5241,0,0,1,470.42487,453.25149Z"/><path class="cls-1" d="M491.64625,410.48489a177.34737,177.34737,0,0,0-19.18274-8.21747c-6.9895-2.16052-15.355-3.61487-26.97132-3.61487-15.12084,0-24.73645,2.46271-32.97113,5.74256q-.00328,8.22015-.00427,16.44031,0,13.32129.00006,26.64251c2.20691-.81262,4.54071-1.57086,7.05609-2.2464.68329-.70123,1.972-.93274,4.42176-1.32684q4.81621-.7749,9.62036-1.19012c3.59967-.35865,7.53125-.55909,11.87713-.55909,17.93964,0,28.87177,3.39222,38.15784,7.4021.61054-1.06878.45886-1.80871-1.21869-2.2962-6.37555-1.85272-6.77484-3.54608-1.95343-8.21027q11.43156-11.05882,22.96283-22.01471a7.39453,7.39453,0,0,1,1.91242-1.36639,90.74841,90.74841,0,0,1-10.66956-3.9555A22.22373,22.22373,0,0,1,491.64625,410.48489Z"/><path class="cls-1" d="M417.67707,293.412a18.87075,18.87075,0,0,0-37.72839-.96045c-.3172,11.24109,7.55853,19.34986,19.06469,19.62885C409.01221,312.32284,417.43043,303.90249,417.67707,293.412Z"/><path class="cls-1" d="M240.43684,357.81717q-2.34394.56469-4.6955,1.2304c-6.57947,1.86231-12.72058,5.0011-18.86987,7.96967a85.487,85.487,0,0,1-13.12415,5.04156c8.98975-1.91784,15.54749-5.004,22.33032-8.20068A128.72432,128.72432,0,0,1,240.43684,357.81717Z"/><path class="cls-1" d="M620.51368,356.40109c-21.54492,0-32.02637,4.94043-43.124,10.17041-10.90625,5.14014-22.1836,10.45508-44.39161,10.45508-22.209,0-33.48339-5.31494-44.38671-10.45508-7.88782-3.71863-15.46937-7.28839-26.93274-9.04254-.11274.24121-.22522.4826-.35462.71564A13.249,13.249,0,0,1,446.40247,364.52a3.40047,3.40047,0,0,1-1.3244-.51715c-4.0766-3.46509-8.93823-2.76294-13.67084-2.5456a145.18227,145.18227,0,0,1-16.01208.15113c-2.3587-.1521-2.93317.70684-2.92359,2.962q.07333,17.23536.05091,34.47107c1.99322-.74255,4.08887-1.44141,6.32989-2.07428.13117-1.59051.714-1.75946,3.37146-2.21966,18.05109-3.12592,35.932-2.95844,53.45587,3.064,7.82514,2.68933,15.10322,6.67615,22.76435,9.76044,1.09625.44134,2.18554.90014,3.39251,1.39807-.06726.07782-.12261.14111-.17242.19794a74.577,74.577,0,0,0,13.60217,3.7113c-.04162-.14124-.08111-.2702-.12359-.41791a129.65539,129.65539,0,0,0,18.80407,1.301,90.35546,90.35546,0,0,0,40.79065-9.45612c9.96558-4.861,20.18641-9.03314,31.34485-10.45074a126.50578,126.50578,0,0,1,33.333.15429c11.518,1.58264,21.9101,6.38507,32.28717,11.23407.38269.17884.71021,1.169.89386,2.27613a77.88352,77.88352,0,0,0,25.73029,6.37744c.33178-5.86261.515-11.764.50488-17.70984.00348-6.57013-.22705-13.08307-.63831-19.54566-15.96423-1.30786-25.39477-5.75079-34.56134-10.07141C652.53712,361.341,642.05665,356.40109,620.51368,356.40109Z"/><path class="cls-1" d="M576.78919,529.12356a20.14686,20.14686,0,0,0-6.69092,6.31964c-.37762.56385-.6322,1.16675-.137,1.7464a23.34732,23.34732,0,0,0,5.3313,4.682.88174.88174,0,0,0,1.10113-.14764,20.74806,20.74806,0,0,0,5.83368-8.65528C582.31428,530.27926,578.87312,527.92129,576.78919,529.12356Z"/><path class="cls-1" d="M646.84675,452.6232c-1.21515-.33576-2.439-.64856-3.68469-.90412-10.39283-2.13232-20.8537-2.29211-31.38-1.56439-12.06036.83374-23.13,4.92072-33.812,10.24652a98.412,98.412,0,0,1-48.795,10.22516,112.23651,112.23651,0,0,1-20.11219-2.4007c-1.0849-.244-1.59979-.54034-1.272-1.33538-2.02924-.52515-3.94171-1.1037-5.7616-1.7229a119.47954,119.47954,0,0,1-7.97,11.39355c-9.49524,11.939-20.73309,21.86926-34.21795,29.00372-10.11261,5.35022-20.37091,10.5033-31.53,13.46228a36.56239,36.56239,0,0,1-8.19916,1.445c-2.50464.078-4.26166,1.35773-5.94074,3.03595-3.77929,3.7771-7.62872,7.4845-11.478,11.1908q-3.95938,3.81216-7.93152-.05585-6.4238-6.26733-12.77643-12.60693a6.78779,6.78779,0,0,0-3.68048-1.99469c-20.80359-4.064-38.77234-13.92633-54.96387-27.25025A122.73,122.73,0,0,1,292.256,453.8287a8.04176,8.04176,0,0,0-2.27118-2.92157q-2.17374-.438-4.55408-.77789c-.25946.038-.52563.08209-.8045.13708a4.65338,4.65338,0,0,1-4.06561-.69207c-2.13233-.18671-4.39295-.31452-6.80219-.37531.20618.906-.73071.74164-1.34113.72553-4.37793-.1156-8.75164-.16925-13.13488-.074q-1.16547.02537-2.32093.08759c-12.56323,1.5719-20.48614,5.30139-28.752,9.197-9.23547,4.35235-18.7392,8.82519-34.70685,10.20892-.9057.14124-1.81518.27136-2.733.3761-19.64069,2.24109-38.77521.92053-56.92139-7.754-.65436-.31281-1.328-.51855-1.51776-1.34991-.33179-1.45343-.67169-2.913-1.02692-4.43244a78.00412,78.00412,0,0,0-27.96411-6.77826,299.7383,299.7383,0,0,0,295.54444,247.1543c141.47577-.04816,259.20587-97.47815,291.28753-228.12329-11.74224-1.93024-19.66131-5.65827-27.39209-9.30237A113.2795,113.2795,0,0,0,646.84675,452.6232ZM216.93623,571.919c-2.82074,2.22028-3.90528,2.03662-6.04407-.76843-.77-1.00989-1.58374-1.99084-2.43213-2.936-1.79944-2.00458-1.74823-3.53821.34-5.26191,3.49952-2.88867,7.04395-5.72284,10.55591-8.59655.51044-.41767,1.48267-.74366,1.14814-1.52979-.28565-.67132-1.24915-.592-1.947-.54706-1.58715.10242-3.17193.26233-4.75213.44648-5.27234.61444-8.39667-3.10376-6.81183-8.15241.76086-2.42389,1.57434-4.83118,2.36243-7.247-.00074-.1748.00006-.34857.00085-.5224l-.30347.22363c-4.17114,2.65839-7.71533,6.1048-11.55114,9.18482-.62055.49829-1.23731,1.00568-1.8924,1.45569a2.72573,2.72573,0,0,1-3.36578.05444,16.46026,16.46026,0,0,1-5.19666-6.69391c-.63165-1.65417.81665-2.77234,1.98346-3.71777,5.3205-4.311,10.69275-8.55823,16.00452-12.87988q6.20452-5.04822,12.29706-10.23291c1.61615-1.38068,3.02289-1.57154,4.54944.04583.76336.80872,1.64349,1.5058,2.43847,2.28632,2.45246,2.40784,2.746,5.11523,1.46839,8.283-2.13141,5.28454-4.04767,10.65582-6.16877,16.29431,5.56031-.8,10.8241-1.50256,16.06849-2.32843a10.35793,10.35793,0,0,1,10.99029,5.40613c1.02026,1.92315.3468,3.28863-1.20416,4.5393q-10.689,8.61933-21.33472,17.2923C221.73023,567.97427,219.37489,569.9993,216.93623,571.919Zm72.11889,9.16742c-2.62823,10.57587-5.1626,21.17493-7.75586,31.75946-.50781,2.07257-1.31207,4.04456-1.40747,6.24738-.09118,2.10583-1.47876,3.01013-3.61926,2.77759-3.911-.42481-6.89349-4.68421-6.69025-9.82019.51453-1.7724-.39551-2.87964-2.03723-3.86536-3.259-1.9566-6.42389-4.07495-9.57269-6.20783a2.40866,2.40866,0,0,0-3.38037.2284c-3.42371,2.913-4.65637,2.92724-8.4126.39258-.856-.57764-1.66754-1.22107-2.51758-1.808-2.61859-1.80786-2.72394-2.5813-.15167-4.59936,10.4508-8.199,20.95984-16.324,31.43011-24.49842a3.91184,3.91184,0,0,1,5.21045-.18158c2.38666,1.68122,5.24457,2.61127,7.41205,4.67566A4.63191,4.63191,0,0,1,289.05512,581.08639Zm69.34406,28.72895c-2.75873,9.72839-5.53766,19.45092-8.26831,29.18719-.53626,1.91211-.89728,3.87372-1.32978,5.81458a2.28468,2.28468,0,0,1-2.68921,2.0617c-6.48553-.48132-8.094-1.4942-9.7807-7.0473-1.81854-5.98712-3.99835-11.86469-6.04162-17.78284a23.37065,23.37065,0,0,0-1.13672-2.25226c-1.38007,5.0849-2.68274,9.53174-3.7854,14.02759-1.80652,7.3656-2.48346,7.06977-8.85968,5.2735-4.04834-1.1405-4.66589-2.20117-3.4867-6.34491,3.31141-11.63684,6.93665-23.189,9.59833-35.00256a2.5467,2.5467,0,0,1,3.026-2.2757c5.63513.30878,7.73993,1.8891,9.51648,7.23566q3.29434,9.91379,6.60419,19.82251l.517-.02533c1.43768-5.3819,2.88659-10.76087,4.30932-16.14673,1.08246-4.09778,2.22059-4.75146,6.34736-3.57513.613.17474,1.2268.34655,1.84014.52C359.116,604.53134,359.63459,605.45865,358.39918,609.81534Zm66.33374,41.3056a31.21624,31.21624,0,0,0-3.31543.3045c-3.30426.52423-5.34619-.459-6.19922-3.69092-.6695-2.53692-2.11316-2.97674-4.3595-2.85253-3.49542.19329-7.0022.30114-10.50146.25262-1.79334-.02478-2.9812.57135-3.38044,2.28009-.84252,3.60675-7.48266,6.07221-10.763,5.31494-2.13043-.49182-2.33429-2.02453-1.73687-3.91229q3.6339-11.48382,7.18567-22.99359c1.39331-4.48065,2.83593-8.94776,4.12365-13.45886.82416-2.887,2.28492-4.7215,5.527-5.02057,1.6427-.15155,3.29694-.43323,4.68848-.59784,4.03882-.02161,6.27331,2.15875,7.75213,5.32031,2.355,5.035,4.13831,10.30029,6.11536,15.48669q3.77024,9.89008,7.47845,19.80378C428.44544,650.30307,427.943,650.959,424.73292,651.12094Zm61.93072-14.93512c-7.67676,5.64844-18.118,5.75622-25.14856.29059-2.74762-2.136-4.31036-5.11835-5.58221-8.20349a69.40878,69.40878,0,0,1-3.74182-12.5398c-1.08252-5.28534.51916-9.8949,4.1311-13.84473a23.66261,23.66261,0,0,1,24.96265-6.097,14.1232,14.1232,0,0,1,6.80536,5.42371c1.07153,1.55883.6936,2.768-1.03547,3.36761-4.1314,1.43311-8.16992,2.86017-12.70208.95325a7.46405,7.46405,0,0,0-10.24408,7.86706,28.5953,28.5953,0,0,0,5.0581,13.73664c1.8299,2.552,4.45478,3.16534,8.12763,2.03613,3.05664-.93982,5.57428-3.78162,5.65838-6.4289.0409-1.28613-.60827-1.94647-1.90832-1.79455a8.82338,8.82338,0,0,0-1.34155.47052,6.40346,6.40346,0,0,1-1.84473.44171c-3.85175-.09259-2.9812-3.74066-4.19263-5.78784-.84564-1.429-.64258-3.15466,1.118-3.83814,4.35645-1.69128,8.76868-3.24963,13.20789-4.71124a2.67,2.67,0,0,1,3.32092,1.69879,33.7795,33.7795,0,0,1,3.35694,13.06592C494.73774,628.50082,491.36121,632.72952,486.66364,636.18582Zm69.22626-38.1579q-9.716,6.94986-19.48462,13.82587c-2.55218,1.8006-3.51459,1.71454-5.33545-.82575q-10.78527-15.04641-21.44122-30.18512c-1.79071-2.54339-1.472-3.71783,1.08862-5.54327q10.209-7.27743,20.41614-14.55725c2.45355-1.75043,3.87207-1.5976,5.57507.887,1.01441,1.48,2.48627,2.75916,2.5838,4.97125.10474,1.08259-.6759,1.82044-1.63635,2.49006-3.8529,2.68634-7.7102,5.36724-11.51977,8.11407-.90979.656-2.306,1.15558-2.02369,2.64941a5.73405,5.73405,0,0,0,2.79834,3.70954c.88221.55121,1.7956-.14575,2.59229-.72235,3.67541-2.65961,7.40515-5.24591,11.03442-7.96649a2.61631,2.61631,0,0,1,3.97364.31378c.2749.28857.59191.54168.8396.851,4.21167,5.259,3.48754,6.08032-.75293,8.83618-2.93287,1.90607-5.74292,4.00373-8.57776,6.05731-2.4364,1.7649-2.56977,2.71912-.84088,5.09339,1.43859,1.97558,2.45636,2.12512,4.82543.452,3.77033-2.66284,7.44916-5.45562,11.23005-8.1029,2.88971-2.02319,3.739-1.82013,5.85876,1.0108C560.64436,594.12875,560.59193,594.66452,555.8899,598.02792Zm54.19134-57.88849c-2.52319,4.95264-6.37615,8.55329-13.14465,6.19287a43.08247,43.08247,0,0,0-7.00433-1.47143,4.60675,4.60675,0,0,0-5.13135,3.59094c-.28046,1.141.60931,1.39056,1.15033,1.834,2.45709,2.014,4.9649,3.96668,7.46906,5.92273a2.94245,2.94245,0,0,1,.67877,4.40339,35.24864,35.24864,0,0,1-3.30707,4.35467c-1.7594,1.904-3.135,1.98743-5.22522.37018-4.52466-3.50055-8.97589-7.09577-13.48523-10.61627Q565.03877,549.222,557.9372,543.799c-3.63037-2.75855-3.89929-4.2699-1.09234-7.82605,3.49566-4.42865,6.93707-8.90607,10.58752-13.20484,3.03918-3.579,6.7898-6.0296,11.16846-5.85131,8.1596.22143,13.74292,5.3045,14.7619,12.90515.55707,4.15545.70129,4.23864,4.977,4.93512,3.38171.551,6.749,1.20227,10.10516,1.89416C610.814,537.13962,611.18531,537.9722,610.08124,540.13943Z"/><path class="cls-1" d="M620.51368,398.65255c-20.44885,0-30.837,4.502-41.35242,9.44184-.05877.02972-.1181.05737-.17682.08722-2.29156,1.16473-4.60614,2.228-6.93908,3.21075-9.48011,4.20923-20.47535,7.88617-39.04731,7.88617a99.68618,99.68618,0,0,1-23.72845-2.55432,6.72887,6.72887,0,0,1,.844,2.03717q4.00782,15.95288,7.797,31.96039c.87878,3.70355-1.83844,6.2522-5.5744,5.41785a12.16764,12.16764,0,0,1-1.82672-.5459c-1.85224-.73389-2.9823.02093-3.87189,1.64984-.32111.588-.64917,1.17145-.97632,1.75549,7.04968,2.2511,15.48694,3.78143,27.33679,3.78143,21.08887,0,31.37207-4.84668,42.25977-9.97753,11.10742-5.23438,22.5918-10.64747,45.25586-10.64747,4.33746,0,8.26263.19959,11.85681.55695a92.46681,92.46681,0,0,1,31.39307,8.26813c1.10974.51916,3.04547.76483,3.05047,1.93213.00055.12573-.00866.252-.01275.37805,7.28058,3.42523,14.45874,6.6546,24.96331,8.31848a299.5184,299.5184,0,0,0,6.25483-42.72559c-16.07624-1.32776-25.57868-5.80371-34.81433-10.15686C652.21485,403.54611,641.833,398.65255,620.51368,398.65255Z"/><path class="cls-1" d="M741.65211,284.95639c-12.10743-37.30194-13.65436-80.3277-36.25013-111.38007-22.82257-31.35138-63.41442-46.02673-94.77618-68.83905-31.05231-22.5957-57.42255-56.81415-94.72461-68.92157-35.98187-11.68457-77.26471.10315-117.145.10315s-81.163-11.78772-117.145-.10315c-37.30194,12.10742-63.67224,46.32587-94.72455,68.92157-31.36181,22.81232-71.95361,37.48767-94.77624,68.83905-22.59576,31.05237-24.1427,74.07813-36.25012,111.38007-11.66394,35.95105-36.0954,71.53076-36.0954,111.38006,0,39.84937,24.41083,75.38782,36.0954,111.38007,12.10748,37.31232,13.65442,80.33807,36.25012,111.38007,22.82263,31.36181,63.41449,46.02679,94.77624,68.84942,31.05231,22.59577,57.42261,56.80383,94.72455,68.92157,35.98194,11.68463,77.26477-.1134,117.145-.1134s81.163,11.798,117.15528.1134c37.29162-12.11774,63.662-46.32587,94.71429-68.92157,31.36176-22.82263,71.95361-37.48767,94.77618-68.84942,22.59577-31.05231,24.1427-74.07807,36.25013-111.38007,11.66406-35.951,36.09539-71.4895,36.09539-111.38007C777.7475,356.45627,753.31617,320.90744,741.65211,284.95639ZM399.10249,725.20266c-181.87952.0962-328.80518-146.74206-329.12958-329.121C70.6446,213.94919,216.27906,70.56717,392.5182,67.529c187.22821-3.22754,332.834,146.93811,334.99609,324.238C729.76447,576.28952,581.35535,725.10629,399.10249,725.20266Z"/></svg>
