<!--
From: https://github.com/cncf/artwork/blob/3e6dbd6b9f3fd3b03e848c10a9921ccc5b5dabf7/projects/keda/icon/white/keda-icon-white.svg
Has only been modified to set the stroke and fill colors to #8fa4b1.
-->
<svg id="Warstwa_1" data-name="Warstwa 1" xmlns="http://www.w3.org/2000/svg" viewBox="0 0 625 625"><defs><style>.cls-1,.cls-3{fill:none;stroke:#8fa4b1;}.cls-1{stroke-width:30px;}.cls-2{fill:#8fa4b1;}</style></defs><title>keda-icon-white</title><g id="Icon"><g id="k8s-icon-1"><g id="Kubernetes_Logo_Hrz_lockup_REV" data-name="Kubernetes Logo Hrz lockup REV"><path id="Shape" class="cls-1" d="M522.24,172.9c-1.86-5.44-6.28-10.35-12.36-13.63L318.77,68.71l-.11-.06c-2.07-1-5.08-1.55-9-1.55-3.56,0-5.14,0-7,.13a34.57,34.57,0,0,0-3.85.42L109.09,158.16l-.17.08A18.47,18.47,0,0,0,98.41,171L51.47,374.84a23.88,23.88,0,0,0,4.13,17.75l131.48,161a31,31,0,0,0,18.28,8.21h211.1l.82.09c5.8.64,11.32-1.88,15.16-7.06l.21-.28L564.91,392.59a27,27,0,0,0,4.65-18.18Z"/></g></g><g id="nodes"><circle id="Oval-2" class="cls-2" cx="438" cy="553" r="39"/><circle id="Oval-2-2" data-name="Oval-2" class="cls-2" cx="196" cy="553" r="39"/><circle id="Oval-2-3" data-name="Oval-2" class="cls-2" cx="307" cy="73" r="39"/><circle id="Oval-2-4" data-name="Oval-2" class="cls-2" cx="518" cy="165" r="39"/><circle id="Oval-2-5" data-name="Oval-2" class="cls-2" cx="100" cy="165" r="39"/><circle id="Oval-2-6" data-name="Oval-2" class="cls-2" cx="567" cy="384" r="39"/><circle id="Oval-2-7" data-name="Oval-2" class="cls-2" cx="59" cy="384" r="39"/></g><g id="Warstwa_1-2" data-name="Warstwa 1"><g id="Wordmark"><path id="KEDA" class="cls-2" d="M195.77,367l-23-41.09-6.93,7.06v34h-18V277.1h18v29l26.32-29h24.26L185,312.28,217.21,367Zm99.89-89.87v18h-60v-18Zm-60,52.63v-18h49.68v18Zm0,37.37v-18h59.57v18Zm78.43-90h25.43a44.2,44.2,0,0,1,31.7,13.09,42.65,42.65,0,0,1,9.63,14.38,44.46,44.46,0,0,1,0,35.05,41,41,0,0,1-9.63,14.25,45.05,45.05,0,0,1-31.7,13.23H321.48V367h-7.34Zm18,72h7.45a27,27,0,0,0,0-54.05h-7.45Zm102.61-72H440l42.49,90H462.58L436.9,312.41,409.05,367.1H388.89Z"/><polygon class="cls-3" points="446.72 363.34 451.59 354.62 432.75 354.62 438.38 315.55 438.1 315.03 408.31 368.99 408.32 368.99 407.42 370.59 426.54 370.44 421.46 408.86 421.58 409.36 444.66 367.09 444.65 367.09 444.65 367.09 446.72 363.34"/><path id="Combined-Shape" class="cls-2" d="M444.66,367.09l6.88-12.45h-18.8l5.9-40.51-29.28,53h-6.45l34-63.7,33.95,63.7Z"/></g></g></g></svg>