<?xml version="1.0" encoding="UTF-8"?>
<!--
  Derived from GitOps Promoter plain icon (primary layer, no white outline):
  https://github.com/argoproj-labs/gitops-promoter/blob/087fd273bbdad9c9669b93f520d6e4d1054d628f/docs/assets/logo/icon/primary.svg
  Licensed under Apache License 2.0.
  Single fill #8fa4b1 to match other Argo CD resource icons.
-->
<svg id="Layer_2" data-name="Layer 2" xmlns="http://www.w3.org/2000/svg" viewBox="0 0 557 556.93">
  <defs>
    <style>
      .cls-1 {
        fill: #8fa4b1;
      }
    </style>
  </defs>
  <g id="Graphics">
    <g>
      <ellipse class="cls-1" cx="131.66" cy="425.27" rx="31.79" ry="97.5" transform="translate(-262.15 217.66) rotate(-45)"/>
      <ellipse class="cls-1" cx="78.3" cy="478.69" rx="23.36" ry="71.65" transform="translate(-315.55 195.58) rotate(-45)"/>
      <ellipse class="cls-1" cx="35.47" cy="521.46" rx="15.55" ry="47.68" transform="translate(-358.33 177.81) rotate(-45)"/>
      <ellipse class="cls-1" cx="410.41" cy="146.59" rx="23.4" ry="94.92" transform="translate(16.55 333.14) rotate(-45)"/>
      <path class="cls-1" d="M142.99,424.54c-2.71,0-5.43-1.04-7.5-3.11-4.14-4.14-4.13-10.85.01-14.99l36.23-36.17c6.49,6.49,11.18,11.18,14.99,14.99l-36.24,36.18c-2.07,2.07-4.78,3.1-7.49,3.1Z"/>
      <path class="cls-1" d="M528.29,28.8h0s-.03-.03-.05-.05c-.02-.02-.03-.03-.04-.05h0c-48.94-48.78-172.32-45.51-298.42,90.14-5.89,6.34-11.91,9.55-17.92,9.56-4.51,0-8.89-.07-13.17-.14-27.96-.47-54.36-.9-85.68,20.63-15.31,10.53-26.97,21.26-36.69,33.75l-45.01,68.39c-.77,1.48-1.01,2.99-.91,4.48l.1,1.08c1.49,8.26,13.83,15.91,19,16.67l65.4,8.3c9.42,1.36,11.81,2.27,16.61,9.14,2.43,8.19,2.71,9.87,2.76,18.76-.76,16.95,14.48,36.33,24.37,47.73l21.55,21.55-8.48-8.48,7.69-7.69c.06-.06.09-.13.15-.19l100.84-100.73c4.14-4.14,10.85-4.13,14.99,0,4.14,4.14,4.13,10.85,0,14.99l-87,86.91.02.02-21.69,21.69,13.09,13.09c11.4,9.88,30.78,25.13,47.73,24.37,8.89.05,10.57.33,18.76,2.76,6.87,4.8,7.77,7.2,9.14,16.61l8.3,65.41c.76,5.17,8.4,17.51,16.67,19,0,.01,1.08.11,1.08.1,1.5.09,3-.14,4.48-.91l68.39-45.01c12.5-9.72,23.22-21.38,33.75-36.69,21.54-31.32,21.1-57.72,20.63-85.68-.07-4.28-.15-8.66-.14-13.17,0-6.01,3.22-12.04,9.56-17.92,135.65-126.1,138.91-249.48,90.13-298.42ZM379.05,177.95c-34.12-34.44-62.15-77.59-61.65-107.87C386.6,18.94,468.63,3.78,511.18,43.34c.42.39.79.8,1.19,1.2l.05.05.05.05c.4.4.81.77,1.2,1.19,39.56,42.56,24.39,124.58-26.75,193.79-30.28.5-73.43-27.53-107.87-61.65Z"/>
      <path class="cls-1" d="M382.59,69.55c-3.96,0-7.75-2.23-9.57-6.03-2.52-5.28-.28-11.61,5-14.13,30.34-14.48,63.95-19.59,94.66-14.38,5.77.98,9.66,6.45,8.68,12.22-.98,5.77-6.45,9.67-12.22,8.68-26.43-4.48-55.55,0-81.98,12.61-1.47.7-3.03,1.04-4.56,1.04Z"/>
    </g>
  </g>
</svg>
