<!--
From: https://github.com/cncf/artwork/blob/3e6dbd6b9f3fd3b03e848c10a9921ccc5b5dabf7/projects/contour/icon/white/contour-icon-white.svg
Has only been modified to set the fill color to #8fa4b1.
-->
<svg id="Layer_1" data-name="Layer 1" xmlns="http://www.w3.org/2000/svg" viewBox="0 0 360 360"><defs><style>.cls-1{fill:#8fa4b1;}</style></defs><path class="cls-1" d="M233.49354,13.60742A172.54166,172.54166,0,0,0,189.601,5.43814c-18.10959,99.876-68.01935,169.76342-111.29634,213.538A430.60388,430.60388,0,0,1,27.997,262.48437a174.15983,174.15983,0,0,0,13.98066,21.40775c27.222-17.23246,52.17582-36.80658,71.6803-55.38577C160.28936,184.08758,214.07746,113.49855,233.49354,13.60742Z"/><path class="cls-1" d="M291.88937,123.9467A372.54289,372.54289,0,0,0,315.29619,70.039,175.10772,175.10772,0,0,0,284.66577,40.3032c-23.84412,94.17987-79.44457,162.10613-127.97928,205.90359a497.63662,497.63662,0,0,1-89.62482,64.25429,174.77373,174.77373,0,0,0,14.7187,11.37237A517.17949,517.17949,0,0,0,188.27865,251.136C232.1921,213.40267,267.05212,170.60971,291.88937,123.9467Z"/><path class="cls-1" d="M277.15082,34.89881A173.24206,173.24206,0,0,0,238.8559,15.42572C219.0561,116.321,164.68042,187.64625,117.52328,232.5651a464.13827,464.13827,0,0,1-71.81777,56.06806,175.035,175.035,0,0,0,14.62435,15.72825,485.22117,485.22117,0,0,0,90.61326-64.51895C199.06542,196.41682,254.26826,128.79887,277.15082,34.89881Z"/><path class="cls-1" d="M336.13405,133.20021c2.51737-4.48613,4.89276-9.00617,7.203-13.54137A173.25517,173.25517,0,0,0,323.64154,81.2481,386.0473,386.0473,0,0,1,302.07666,129.369c-25.51378,47.93487-61.2713,91.84832-106.27711,130.52083A533.48966,533.48966,0,0,1,93.172,329.03161q7.06151,4.1016,14.52458,7.544a550.07205,550.07205,0,0,0,117.96-74.17927C272.4271,223.96358,309.5963,180.49554,336.13405,133.20021Z"/><path class="cls-1" d="M186.93788,5.34036c-2.27707-.08912-4.55541-.17391-6.85395-.17391-95.7447,0-173.63959,77.89706-173.63959,173.6396a172.53394,172.53394,0,0,0,20.28834,81.33323,427.96473,427.96473,0,0,0,49.69651-43.01792C119.36973,173.68688,168.88439,104.37529,186.93788,5.34036Z"/><path class="cls-1" d="M348.78657,140.29987c-27.42246,48.87333-65.74985,93.72453-113.9178,133.30646A571.32566,571.32566,0,0,1,126.119,343.81652a172.88007,172.88007,0,0,0,53.96489,8.62913c95.74435,0,173.6396-77.89688,173.6396-173.6396A173.37518,173.37518,0,0,0,349.191,139.542C349.05086,139.79329,348.92747,140.04875,348.78657,140.29987Z"/></svg>