<!--
From: https://github.com/cncf/artwork/blob/3e6dbd6b9f3fd3b03e848c10a9921ccc5b5dabf7/projects/kyverno/icon/white/kyverno-icon-white.svg
Has only been modified to set the fill color to #8fa4b1.
-->
<svg xmlns="http://www.w3.org/2000/svg" viewBox="0 0 500 500"><defs><style>.cls-1{fill:#8fa4b1;fill-rule:evenodd;}</style></defs><g id="Layer_1" data-name="Layer 1"><path class="cls-1" d="M85.978,159.12977,62.8,260.6758H86.6494l19.44481-85.18748c-3.67742-3.73171-7.44723-7.31243-11.34072-10.64083a10.63854,10.63854,0,0,1-2.57145-3.25561c-2.00621-.77007-4.09061-1.59534-6.204-2.46211M231.42381,67.34456,112.1119,124.80222c1.52162,2.13,2.97738,4.24159,4.34786,6.26969a10.64019,10.64019,0,0,1,3.75052,1.7744c3.83767,2.83657,7.86273,5.51845,12.00391,8.089l99.36786-47.85077c.55723-4.79743.95806-9.57158,1.12509-14.29529a10.66422,10.66422,0,0,1,.94635-4.03924C232.908,72.38443,232.15146,69.8955,231.42381,67.34456Zm161.27254,56.72785L274.88369,67.33715c-.72856,2.55341-1.48428,5.04528-2.23045,7.41284a10.67016,10.67016,0,0,1,.9465,4.03924c.16673,4.72171.56787,9.49415,1.12556,14.2902l98.02314,47.20224c4.15445-2.62574,8.1903-5.36392,12.0309-8.25678a10.68789,10.68789,0,0,1,3.7368-1.80756C389.8331,128.22825,391.23488,126.15989,392.69635,124.07241ZM443.51958,260.6758,420.01438,157.685c-2.37065,1.007-4.71138,1.95716-6.9554,2.8412a10.6927,10.6927,0,0,1-2.5423,3.27658c-3.65167,3.17757-7.19121,6.57908-10.6453,10.12063l19.802,86.75243Z"/><path class="cls-1" d="M310.80628,197.98424l2.82932,3.494c1.31341-11.17046,10.57992-21.88857,28.16752-31.49762,18.333-10.01513,35.45434-18.90162,49.41063-29.40875l1.85044,2.28243q16.36194-25.5555,25.41716-32.17314c8.11195-4.9367,15.60838-3.49975,21.43667,3.00345,5.15077,7.05348,4.99824,14.68455-1.51791,21.59368q-8.35657,7.48094-36.75573,18.1712l1.84812,2.28289c-13.17744,11.47105-25.43089,26.36813-39.04109,42.21865-13.05143,15.20616-25.46389,22.04018-36.66458,21.00423l2.83148,3.4945-11.00713,8.91256L309.8843,207.878l-7.47391-3.09521ZM175.161,222.7922l2.79832-3.517c-11.18851,1.1345-23.66-5.59048-36.846-20.68251-13.74561-15.73207-26.12754-30.52212-39.40815-41.87534l1.83008-2.30047Q75.044,143.97428,66.62113,136.56738c-6.57383-6.85144-6.79345-14.48174-1.70561-21.57949,5.77123-6.55409,13.25378-8.05643,21.41092-3.19176q9.1105,6.54145,25.69447,31.95182l1.83069-2.30032c14.04929,10.38421,31.24622,19.12264,49.66588,28.978,17.67181,9.45251,27.031,20.09165,28.44142,31.24977l2.79956-3.51918,8.461,6.73068-7.22282,2.99111-9.80909,23.68672Zm62.25216-45.00356H241.91c-7.85409-8.05057-10.35459-21.99822-6.753-41.712,3.75484-20.55125,7.62165-39.44856,8.24072-56.90815h2.94052q-9.56509-28.79985-9.01095-40.00039c1.26961-9.41025,7.10423-14.334,15.82538-14.7703,8.72255.43631,14.55748,5.36005,15.82755,14.7703q.55059,11.20047-9.01173,40.00039h2.94052c.61938,17.45959,4.48666,36.3569,8.24074,56.90815,3.6017,19.71379,1.101,33.66144-6.75289,41.712h4.49668v13.11374l-15.954-6.60715-15.52634,6.42963Z"/><polygon class="cls-1" points="252.939 193.893 278.016 204.281 303.097 214.664 313.479 239.747 322.151 260.676 276.724 260.676 274.707 255.806 270.974 246.787 261.956 243.055 252.939 239.32 243.923 243.055 234.905 246.787 231.172 255.806 229.155 260.676 183.729 260.676 192.4 239.747 202.783 214.664 227.864 204.281 252.939 193.893"/><path class="cls-1" d="M68.2137,349.624a8.91449,8.91449,0,1,1-17.829,0V286.58912a8.91593,8.91593,0,0,1,8.91487-8.9141h384.218a8.91517,8.91517,0,0,1,8.91456,8.9141V349.624a8.91433,8.91433,0,1,1-17.82866,0v-54.12H260.32175v54.12a8.91433,8.91433,0,1,1-17.82866,0v-54.12H68.2137Z"/><path class="cls-1" d="M241.91505,443.20813a1.18142,1.18142,0,0,0,.95652.48921h8.5364l8.53608-.00124a1.1742,1.1742,0,0,0,.92336-.44741l5.323-6.67131,5.322-6.67578a1.188,1.188,0,0,0,.22672-.99354l-3.7951-16.63169a1.16455,1.16455,0,0,0-.64144-.81571l-15.381-7.40682a1.17893,1.17893,0,0,0-1.02671,0l-15.381,7.40682a1.187,1.187,0,0,0-.63789.80337l-3.79,16.60146a1.18422,1.18422,0,0,0,.21808,1.03735ZM229.851,467.85723a2.68563,2.68563,0,0,0,2.174,1.10751H251.41l19.385-.00354a2.6692,2.6692,0,0,0,2.09736-1.01282l12.08719-15.15357,12.085-15.159a2.708,2.708,0,0,0,.51744-2.25806l-8.62075-37.76932a2.65084,2.65084,0,0,0-1.45654-1.85182l-34.93073-16.82278a2.67955,2.67955,0,0,0-2.32855,0l-34.9309,16.82278a2.6774,2.6774,0,0,0-1.44836,1.82375l-8.607,37.70054a2.68116,2.68116,0,0,0,.494,2.35614Z"/><path class="cls-1" d="M48.64133,443.20813a1.17824,1.17824,0,0,0,.95653.48921h8.53639l8.53608-.00124a1.17715,1.17715,0,0,0,.92337-.44741l5.32335-6.67131,5.31965-6.67578a1.18728,1.18728,0,0,0,.22841-.99354l-3.7968-16.63169a1.16679,1.16679,0,0,0-.6402-.81571l-15.38228-7.40682a1.17622,1.17622,0,0,0-1.02547,0l-15.38028,7.40682a1.18185,1.18185,0,0,0-.63835.80337l-3.78955,16.60146a1.17623,1.17623,0,0,0,.21824,1.03735Zm-12.06375,24.6491a2.685,2.685,0,0,0,2.17308,1.10751H58.13425l19.38652-.00354a2.67635,2.67635,0,0,0,2.09812-1.01282l12.08627-15.15357,12.08365-15.159a2.69274,2.69274,0,0,0,.51743-2.25806l-8.61936-37.76932a2.64767,2.64767,0,0,0-1.45592-1.85182L59.30037,378.93387a2.6829,2.6829,0,0,0-2.33008,0L22.03877,395.75665a2.686,2.686,0,0,0-1.44866,1.82375l-8.60456,37.70054a2.67125,2.67125,0,0,0,.49414,2.35614Z"/><path class="cls-1" d="M432.85945,443.20813a1.178,1.178,0,0,0,.95652.48921h8.5361l8.53622-.00124a1.17706,1.17706,0,0,0,.92321-.44741l5.32337-6.67131,5.31979-6.67578a1.18136,1.18136,0,0,0,.2281-.99354l-3.7951-16.63169a1.16472,1.16472,0,0,0-.64159-.81571l-15.381-7.40682a1.17853,1.17853,0,0,0-1.02653,0l-15.38107,7.40682a1.18977,1.18977,0,0,0-.638.80337l-3.79,16.60146a1.18425,1.18425,0,0,0,.21822,1.03735Zm-12.06422,24.6491a2.68578,2.68578,0,0,0,2.1734,1.10751h19.38344l19.38635-.00354a2.67442,2.67442,0,0,0,2.09828-1.01282l12.08642-15.15357,12.08349-15.159a2.69186,2.69186,0,0,0,.51667-2.25806l-8.61844-37.76932a2.6516,2.6516,0,0,0-1.45592-1.85182l-34.93136-16.82278a2.6829,2.6829,0,0,0-2.33008,0l-34.9309,16.82278a2.68376,2.68376,0,0,0-1.44851,1.82375l-8.60487,37.70054a2.67227,2.67227,0,0,0,.4943,2.35614Z"/></g></svg>