<!--
From: https://github.com/cncf/artwork/blob/3e6dbd6b9f3fd3b03e848c10a9921ccc5b5dabf7/projects/kubevirt/icon/white/kubevirt-icon-white.svg
Has only been modified to set the fill color to #8fa4b1.
-->
<svg xmlns="http://www.w3.org/2000/svg" role="img" viewBox="6.10 10.85 345.80 334.30"><defs><style>.cls-1{fill:#8fa4b1}</style></defs><path d="M115.09287 338.742l-1.852-.07941a14.868 14.868 0 0 0 1.852.07941z" class="cls-1"/><path d="M345.18784 212.87648L316.40244 88.7043c-.18817-.75263-.56445-1.50513-.75256-2.25769a23.64542 23.64542 0 0 0-5.07978-7.14929l-.12829.2525c-.02051-.02063-.03937-.04382-.05988-.06439a19.93834 19.93834 0 0 0-2.25769-1.88135 20.626 20.626 0 0 0-3.95092-2.634L188.27915 19.46889q-.56424-.28227-1.12878-.56446a12.17166 12.17166 0 0 0-2.44587-.75256c-.17614-.04407-.38055-.05988-.57257-.08814-.628-.0924-1.29681-.144-1.87323-.28814a22.76456 22.76456 0 0 0-3.57464-.18817 47.94466 47.94466 0 0 0-7.33747.37634 9.44163 9.44163 0 0 0-2.25759.37624L53.383 74.2176c-.27545.10328-.5376.231-.80047.35718a13.604 13.604 0 0 0-2.24543 1.37287c-.31372.23455-.616.47479-.905.71576-.114.09112-.21692.1911-.32873.28393-.04474.03711-.087.07617-.13141.11353l-.04584-.092-.01532-.031-.04309-.08642a20.05086 20.05086 0 0 0-7.14929 11.47656L13.30918 213.25288a21.45849 21.45849 0 0 0-.37622 4.8916 11.57114 11.57114 0 0 0 .18817 2.44587 26.87493 26.87493 0 0 0 4.32715 11.10022l42.96155 53.24816 10.282 12.78888 26.71586 33.11249a29.80244 29.80244 0 0 0 12.041 6.96118l.00189.00049a19.69944 19.69944 0 0 0 3.19647.75208c.7525 0 1.69318.18817 2.4458.18817h127.93496a39.614 39.614 0 0 0 4.70349-.37628 19.24937 19.24937 0 0 0 12.79346-7.52564l59.82855-73.9389 20.319-25.21063a26.421 26.421 0 0 0 3.76282-8.09l.00012-.00067a3.98126 3.98126 0 0 1 .12451-.77362c.007-.0343.01569-.06861.02161-.10291l.00006-.00024.00012-.00067c.00647-.04163.01666-.08344.02087-.12519v-.00067c.00409-.04138.02076-.08282.02076-.1242l.00012-.00068a25.54436 25.54436 0 0 0 .73712-6.97985c-.01755-.86075-.06842-1.72977-.17258-2.61539zm-87.877-28.76654l-.01447.01611a9.5482 9.5482 0 0 1-11.07013 2.03467 9.408 9.408 0 0 1-4.32721-12.60535l13.358-26.90405v-.18811a8.937 8.937 0 0 1 2.17371-2.86633 9.55005 9.55005 0 0 1 10.43164-1.27271 9.18249 9.18249 0 0 1 4.1391 12.60535l-3.85931 7.815-.0965.19544-3.56982 7.22888-5.64417 11.85278a9.87529 9.87529 0 0 1-1.52085 2.08832zm-13.15412 26.3208l-3.38647 6.585-9.78326 20.319a9.87121 9.87121 0 0 1-1.71943 2.29907c-.056.05561-.11633.10529-.17346.15937a9.61743 9.61743 0 0 1-2.66821 1.79834 9.42977 9.42977 0 0 1-12.37152-12.72309l13.358-26.90393a9.56395 9.56395 0 0 1 12.60535-4.1391 9.45293 9.45293 0 0 1 4.75073 10.94794c-.03491.12811-.0777.25525-.11817.38269a9.69652 9.69652 0 0 1-.49357 1.27471zM207.62748 282.157a9.50065 9.50065 0 0 1-10.06024 2.183c-.27576-.10309-.55024-.21625-.82172-.34656a9.408 9.408 0 0 1-4.32727-12.60534l6.773-13.54615a9.49475 9.49475 0 0 1 5.649-4.40545 9.36464 9.36464 0 0 1 11.46045 11.76806l-.007.02143c-.05548.17285-.10382.34631-.1698.51788-.18817.18811-.18817.18811-.18817.37628l-6.58484 13.73419a9.87977 9.87977 0 0 1-1.52368 2.09143c-.06674.07042-.13121.14317-.19973.21123zm2.25852-131.74329a9.21794 9.21794 0 0 1-2.60461-.94031 9.76615 9.76615 0 0 1-3.951-12.79345l16.5564-31.60749h5.83221a8.73886 8.73886 0 0 1 4.32721 1.12891 9.4256 9.4256 0 0 1 3.951 12.79346l-14.11047 26.52771a9.24039 9.24039 0 0 1-10.00074 4.89117zm77.3548-25.21033l-.94074 2.634-.18811.18817a9.4997 9.4997 0 0 1-1.19757 1.62091l-.00512.00513a9.52354 9.52354 0 0 1-5.00592 2.88922c-.07251.01617-.1449.02252-.21747.03692a9.46066 9.46066 0 0 1-11.07093-7.18622h-11.28843a9.407 9.407 0 1 1 0-18.8139h39.32123l-8.91833 17.65839zm-98.96149 39.69751a9.46795 9.46795 0 1 1 16.74439 8.84265l-14.11048 26.52765a9.3656 9.3656 0 0 1-16.98852-.714 9.95378 9.95378 0 0 1 .244-8.12848zm-86.74688 17.72626l-37.8018-77.17841h76.19665l.10163.18818 30.377 56.25378-10.34771 19.37842-.37628.18817-30.85486-57.19452h-33.677l53.05542 112.69568 7.52557-14.29865a9.48448 9.48448 0 0 1 17.44214 1.64783c.01734.0567.02918.11463.04541.17157.04822.17951.09839.35828.136.54059a9.317 9.317 0 0 1-.87915 6.48267l-13.73419 25.77508-10.48718 19.47608-.04865.09045-.18817.37628-.02661-.0542-29.06765-59.11352-10.03876-20.41541-5.88152-12.00822z" class="cls-1"/></svg>