<!--
From: https://github.com/cncf/artwork/blob/3e6dbd6b9f3fd3b03e848c10a9921ccc5b5dabf7/projects/karmada/icon/white/karmada-icon-white.svg
Only modified to set the fill color to #8fa4b1.
-->
<svg xmlns="http://www.w3.org/2000/svg" viewBox="0 0 220.61 173.65"><defs><style>.cls-1{fill:#8fa4b1;}</style></defs><title>icon-white</title><g id="Layer_2" data-name="Layer 2"><g id="Layer_1-2" data-name="Layer 1"><path class="cls-1" d="M0,119.72H29.57A91.32,91.32,0,0,0,36.64,110c.12-1.87.2-3.75.2-5.65A87.07,87.07,0,0,0,11.59,42.93a74.5,74.5,0,0,1,5.8,28.89A74.4,74.4,0,0,1,0,119.72Z"/><path class="cls-1" d="M17.2,131.29H33.48c.7-2.56,1.32-5.13,1.81-7.69H0A24.7,24.7,0,0,1,17.2,131.29Z"/><path class="cls-1" d="M29.69,142.26c1.08-2.64,2.08-5.32,2.93-8.06H19.56a24.45,24.45,0,0,1,3.69,8.06Z"/><path class="cls-1" d="M28.49,145.17H23.8a25.11,25.11,0,0,1,.22,3.15A24.77,24.77,0,0,1,23,155.46,77.67,77.67,0,0,0,28.49,145.17Z"/><path class="cls-1" d="M183.78,119.72h35.47a87.38,87.38,0,0,0-23.88-76.79,74.79,74.79,0,0,1-11.59,76.79Z"/><path class="cls-1" d="M201,131.29H217.5c.69-2.52,1.29-5.09,1.75-7.69H183.78A24.74,24.74,0,0,1,201,131.29Z"/><path class="cls-1" d="M213.64,142.26c1.11-2.63,2.14-5.31,3-8.06h-13.3a24.65,24.65,0,0,1,3.69,8.06Z"/><path class="cls-1" d="M212.4,145.17h-4.82a25.12,25.12,0,0,1,.21,3.15,24.76,24.76,0,0,1-1,7.14A85.55,85.55,0,0,0,212.4,145.17Z"/><path class="cls-1" d="M36.19,119.72H76q2.79-3.36,5.32-6.93a108,108,0,0,0,.66-12A108.89,108.89,0,0,0,50.46,24,93.16,93.16,0,0,1,57.7,60.13,92.93,92.93,0,0,1,36.19,119.72Z"/><path class="cls-1" d="M78.54,131.29c.65-2.55,1.23-5.11,1.7-7.69h-44c-.08.1-.15-.09-.22,0a30.61,30.61,0,0,1,19.36,7.69Z"/><path class="cls-1" d="M75.2,142.26c1-2.65,1.83-5.34,2.59-8.06H58.21a31.71,31.71,0,0,1,5.1,8.06Z"/><path class="cls-1" d="M70.53,153.22c1.27-2.62,2.48-5.3,3.56-8.05H64.43a30.73,30.73,0,0,1,1.49,8.05Z"/><path class="cls-1" d="M65.94,156.13a31.46,31.46,0,0,1-1.27,7.57c1.56-2.43,3-5,4.38-7.57Z"/><path class="cls-1" d="M139,119.72h38.34a76.75,76.75,0,0,0,7.11-10.1c.23-2.91.37-5.85.37-8.83A108.86,108.86,0,0,0,153.3,24,93.41,93.41,0,0,1,139,119.72Z"/><path class="cls-1" d="M181.34,131.29c.65-2.55,1.25-5.12,1.72-7.69H139c-.08.1-.15-.09-.23,0a30.64,30.64,0,0,1,19.37,7.69Z"/><path class="cls-1" d="M178,142.26c1-2.65,1.82-5.34,2.59-8.06H161.05a31.47,31.47,0,0,1,5.11,8.06Z"/><path class="cls-1" d="M173.35,153.22c1.27-2.62,2.47-5.3,3.55-8.05h-9.63a31.16,31.16,0,0,1,1.5,8.05Z"/><path class="cls-1" d="M168.78,156.13a31,31,0,0,1-1.27,7.57c1.56-2.42,3-5,4.37-7.57Z"/><path class="cls-1" d="M81.85,119.72h51.37q2.55-3.09,4.85-6.38A138.18,138.18,0,0,0,139.19,96,136.15,136.15,0,0,0,99.75,0a116.37,116.37,0,0,1,9.06,45.14A116.24,116.24,0,0,1,81.85,119.72Z"/><path class="cls-1" d="M135.36,131.29c.61-2.55,1.17-5.11,1.64-7.69H81.85c-.07.09-.14-.09-.21,0a38.25,38.25,0,0,1,21.85,7.69Z"/><path class="cls-1" d="M113.44,142.26h18.78c.87-2.66,1.68-5.34,2.39-8.06H106.93A39.26,39.26,0,0,1,113.44,142.26Z"/><path class="cls-1" d="M128.17,153.22c1.1-2.64,2.14-5.33,3.09-8.05H115.07a38.58,38.58,0,0,1,3,8.05Z"/><path class="cls-1" d="M119.1,164.19H123c1.37-2.63,2.68-5.32,3.9-8.06h-8.24a39.17,39.17,0,0,1,.53,6.36C119.16,163.06,119.12,163.62,119.1,164.19Z"/><path class="cls-1" d="M118.86,167.1a38.43,38.43,0,0,1-1.35,6.55c1.37-2.12,2.65-4.32,3.89-6.55Z"/></g></g></svg>