<!--
From: https://github.com/cncf/artwork/blob/3e6dbd6b9f3fd3b03e848c10a9921ccc5b5dabf7/archived/pravega/icon/white/pravega-icon-white.svg
Only modified to set the fill color to #8fa4b1.
-->
<svg id="Layer_1" data-name="Layer 1" xmlns="http://www.w3.org/2000/svg" viewBox="0 0 250 250"><defs><style>.cls-1{fill:#8fa4b1;}</style></defs><path class="cls-1" d="M144.07,39.56333c-3.90684,29.5806-58.60322,51.53353-66.2309,60.46363-22.88325-4.651-55.81258-11.16251-58.04511,12.46472,0,0,1.48831,1.86042,9.48809-5.023,6.32548-4.279,2.41864,4.27894,2.41864,4.27894-18.79031,3.34874-27.16219,8.37189-21.58094,15.62746,11.34863-10.6043,36.27819,2.04653,43.16176,19.72052C59.60705,95.1898,147.41888,92.02707,144.07,39.56333Z"/><path class="cls-1" d="M241.184,171.467c-28.46439,23.81335-67.34721,35.162-117.76454,20.27862a39.68309,39.68309,0,0,0,9.53783,27.72018c10.54049,12.1327,28.7828,17.58894,49.6235,8.558-10.206-.15238-18.91249-2.80414-25.92075-8.558a36.937,36.937,0,0,1-4.40407-4.27894C191.69685,224.489,220.53335,208.1173,241.184,171.467Z"/><path class="cls-1" d="M92.11046,219.46581c-8.05235-20.31211-1.11144-45.10813,27.77412-53.394,39.999-13.95315,87.43972-20.27862,90.60246-89.85836-11.34851,28.46451-58.23111,56.7428-100.09055,60.27764,62.32405-26.79009,124.09-67.53321,96.55582-132.27579,7.25557,47.6267-39.06881,69.02153-94.6954,93.393-42.41755,19.90651-55.99859,40.18513-51.16154,72.37037,3.29445,19.16,10.42988,36.25547,20.10159,49.48711,11.08258,15.162,25.4964,25.24932,41.29225,27.53419A46.284,46.284,0,0,1,92.11046,219.46581Z"/><path class="cls-1" d="M122.15481,219.46581c-10.89658-15.44918-8.5136-37.5344,15.962-53.95217-24.92966,5.20927-45.02217,27.34819-36.09218,53.39407.07721.19031.16942.36995.24958.5581,10.35052,24.28334,45.15742,31.14931,70.81847,17.488C150.14172,240.87847,131.385,232.55245,122.15481,219.46581Z"/></svg>