<?xml version="1.0" standalone="no"?>
<!DOCTYPE svg PUBLIC "-//W3C//DTD SVG 1.1//EN" "http://www.w3.org/Graphics/SVG/1.1/DTD/svg11.dtd">
<svg xmlns="http://www.w3.org/2000/svg">
<defs >
<font id="Heebo" horiz-adv-x="1072" ><font-face
    font-family="Heebo Medium"
    units-per-em="2048"
    panose-1="0 0 0 0 0 0 0 0 0 0"
    ascent="2146"
    descent="-862"
    alphabetic="0" />
<glyph unicode=" " horiz-adv-x="509" />
<glyph unicode="!" horiz-adv-x="547" d="M383 433H172L146 1456H409L383 433ZM139 119Q139 176 176 214T280 253Q346 253 383 215T421 119Q421 63 384 25T280 -14Q214 -14 177 24T139 119Z" />
<glyph unicode="&quot;" horiz-adv-x="658" d="M271 1399L236 1010H93L94 1388V1536H271V1399ZM575 1399L539 1010H397L398 1396V1536H575V1399Z" />
<glyph unicode="#" horiz-adv-x="1239" d="M512 1456H678L411 0H244L512 1456ZM900 1456H1068L800 0H632L900 1456ZM163 881V1040H1203V881H163ZM87 410V569H1128V410H87Z" />
<glyph unicode="$" horiz-adv-x="1165" d="M692 1389H535V1690H692V1389ZM672 -212H516V56H672V-212ZM816 380Q816 437 793 480T719 557T579 622Q451 668 356 724T208 865T155 1074Q155 1198 211 1288T369 1428T606 1477Q745 1477 846 1422T1003 1262T1059 1007H812Q812
1132 757 1203T604 1274Q535 1274 490 1248T424 1178T403 1075Q403 1020 425 979T499 903T644 835Q773 788 867 731T1013 591T1065 382Q1065 253 1006 163T840 26T590 -21Q501 -21 414 3T255 81T142 224T99 446H347Q347 369 368 318T424 238T503 195T590 182Q664
182 714 207T790 277T816 380Z" />
<glyph unicode="%" horiz-adv-x="1507" d="M99 1176Q99 1259 135 1327T241 1436T408 1477Q508 1477 577 1436T682 1327T718 1176V1099Q718 1018 682 950T578 841T410 800Q311 800 242 841T136 950T99 1099V1176ZM271 1099Q271 1060 286 1026T332 970T410 948Q457
948 487 969T531 1025T546 1099V1176Q546 1216 531 1251T486 1307T408 1329Q362 1329 332 1308T286 1251T271 1176V1099ZM800 357Q800 439 836 507T942 616T1109 657Q1210 657 1278 616T1383 507T1419 357V279Q1419 197 1384 129T1280 20T1111 -21Q1012 -21 943
20T837 129T800 279V357ZM971 279Q971 240 987 205T1035 149T1111 128Q1162 128 1191 149T1234 204T1248 279V357Q1248 417 1214 463T1109 509Q1040 509 1006 463T971 357V279ZM460 110L334 182L1045 1320L1171 1248L460 110Z" />
<glyph unicode="&amp;" horiz-adv-x="1316" d="M624 961Q686 1002 712 1042T739 1139Q739 1190 700 1233T589 1277Q513 1277 475 1228T436 1110Q436 1043 486 971T613 809L1300 0H1013L454 657Q344 789 275 891T206 1105Q206 1220 253 1303T387 1431T590 1476Q701
1476 782 1431T908 1312T952 1150Q952 1081 927 1025T858 921T756 830L449 608Q397 567 373 529T340 459T332 402Q332 339 359 289T439 209T567 179Q648 179 725 216T864 323T962 487T998 697H1213Q1213 536 1166 401T1009 168Q1001 162 993 152T976 135Q890 56
784 18T558 -20Q412 -20 306 33T141 178T83 392Q83 481 120 548T223 673T372 790L624 961Z" />
<glyph unicode="&apos;" horiz-adv-x="342" d="M267 1404L241 1015H79L80 1389V1536H267V1404Z" />
<glyph unicode="(" horiz-adv-x="713" d="M128 591Q128 806 175 980T297 1285T458 1503T624 1627L673 1485Q616 1442 559 1367T455 1183T379 926T350 594V572Q350 386 378 240T454 -17T559 -203T673 -325L624 -462Q545 -423 459 -337T297 -120T175 186T128 574V591Z" />
<glyph unicode=")" horiz-adv-x="719" d="M593 574Q593 364 545 191T421 -115T257 -335T89 -462L40 -325Q97 -282 154 -206T258 -19T334 239T363 572V594Q363 779 333 927T255 1185T150 1372T40 1491L89 1627Q169 1590 257 1502T421 1281T545 975T593 591V574Z" />
<glyph unicode="*" horiz-adv-x="910" d="M336 971L28 1061L82 1229L388 1110L373 1457H552L536 1104L836 1221L891 1050L577 961L781 693L635 588L453 878L273 596L127 698L336 971Z" />
<glyph unicode="+" horiz-adv-x="1136" d="M1064 576H66V802H1064V576ZM685 146H446V1206H685V146Z" />
<glyph unicode="," horiz-adv-x="461" d="M354 59Q354 -45 302 -154T165 -335L32 -259Q60 -214 83 -168T120 -69T134 49V235H354V59Z" />
<glyph unicode="-" horiz-adv-x="701" d="M613 522H80V722H613V522Z" />
<glyph unicode="." horiz-adv-x="574" d="M133 124Q133 183 171 222T277 262Q345 262 383 223T422 124Q422 67 384 28T277 -11Q210 -11 172 28T133 124Z" />
<glyph unicode="/" horiz-adv-x="799" d="M192 -125H-1L565 1456H758L192 -125Z" />
<glyph unicode="0" horiz-adv-x="1165" d="M1061 610Q1061 384 1002 246T836 44T584 -20Q441 -20 333 43T164 245T104 610V851Q104 1078 163 1215T331 1414T582 1476Q727 1476 834 1414T1001 1215T1061 851V610ZM813 888Q813 1031 787 1116T709 1238T582 1276Q509
1276 458 1239T379 1116T352 888V575Q352 432 379 345T459 219T584 179Q659 179 710 218T787 345T813 575V888Z" />
<glyph unicode="1" horiz-adv-x="1165" d="M773 0H524V1163L169 1044V1252L742 1461H773V0Z" />
<glyph unicode="2" horiz-adv-x="1165" d="M1089 0H108V171L582 686Q660 772 704 835T767 948T785 1047Q785 1148 730 1212T571 1277Q491 1277 437 1243T355 1148T328 1010H80Q80 1138 138 1244T307 1413T574 1476Q794 1476 914 1367T1034 1073Q1034 981 995 892T888
715T732 533L421 199H1089V0Z" />
<glyph unicode="3" horiz-adv-x="1165" d="M537 841Q620 841 674 869T755 947T782 1062Q782 1128 758 1176T685 1251T562 1277Q500 1277 450 1253T370 1184T340 1077H92Q92 1194 153 1284T319 1425T558 1476Q699 1476 805 1430T970 1291T1030 1063Q1030 999 1001
936T915 819T773 734T576 702H393V841H537ZM393 782H576Q704 782 794 753T942 671T1025 551T1052 408Q1052 271 987 176T811 30T558 -20Q465 -20 378 6T224 83T117 212T77 393H325Q325 331 355 283T438 207T563 179Q675 179 739 239T804 408Q804 491 772 543T679
620T537 645H393V782Z" />
<glyph unicode="4" horiz-adv-x="1165" d="M1114 325H62L54 477L679 1456H878L666 1085L311 524H1114V325ZM934 0H686V1456H934V0Z" />
<glyph unicode="5" horiz-adv-x="1165" d="M168 722L248 1456H1036V1244H454L415 897Q448 916 507 935T643 955Q781 955 879 896T1029 728T1082 466Q1082 333 1030 223T872 46T603 -20Q511 -20 428 7T278 87T171 217T125 396H368Q380 292 441 236T602 179Q680
179 732 217T809 322T834 475Q834 558 806 621T720 721T578 758Q493 758 449 734T367 673L168 722Z" />
<glyph unicode="6" horiz-adv-x="1165" d="M869 1466V1261H852Q723 1261 631 1222T479 1115T391 955T362 759V527Q362 413 394 336T482 220T605 181Q677 181 729 218T809 322T837 473Q837 554 810 620T731 727T603 767Q532 767 475 734T383 647T345 534L252 570Q260
660 293 733T382 858T509 938T668 967Q809 967 900 898T1037 718T1083 478Q1083 338 1027 226T864 47T608 -20Q491 -20 399 25T244 148T147 330T114 551V652Q114 820 156 967T285 1226T510 1402T838 1466H869Z" />
<glyph unicode="7" horiz-adv-x="1165" d="M1079 1318L500 0H239L817 1257H68V1456H1079V1318Z" />
<glyph unicode="8" horiz-adv-x="1165" d="M1063 398Q1063 262 1000 169T829 28T584 -20Q447 -20 338 28T166 169T102 398Q102 517 164 608T335 749T582 800Q720 800 829 750T1000 608T1063 398ZM815 411Q815 483 786 536T704 618T582 648Q512 648 460 619T380
536T351 411Q351 339 379 287T460 207T584 179Q655 179 707 207T787 287T815 411ZM1031 1072Q1031 963 973 878T814 745T584 696Q453 696 352 744T192 878T134 1072Q134 1202 192 1292T351 1429T583 1476Q713 1476 814 1429T973 1292T1031 1072ZM783 1063Q783 1126
759 1174T689 1249T583 1277Q521 1277 477 1251T408 1177T383 1063Q383 998 407 950T477 875T584 848Q646 848 690 874T758 949T783 1063Z" />
<glyph unicode="9" horiz-adv-x="1165" d="M323 198Q460 198 552 233T699 331T776 480T800 668V926Q800 1041 768 1119T683 1236T565 1276Q493 1276 442 1234T365 1123T338 972Q338 894 363 825T439 714T568 671Q621 671 667 692T747 749T801 828T824 920L918
887Q918 813 887 740T800 608T672 513T513 478Q373 478 280 545T139 724T92 966Q92 1107 148 1222T311 1407T566 1476Q683 1476 773 1431T924 1305T1016 1117T1048 885V797Q1048 666 1025 546T950 325T815 149T609 33T325 -9H304V198H323Z" />
<glyph unicode=":" horiz-adv-x="546" d="M383 124Q383 183 421 222T527 262Q595 262 633 223T672 124Q672 67 634 28T527 -11Q460 -11 422 28T383 124ZM128 969Q128 1028 166 1067T272 1107Q340 1107 378 1068T417 969Q417 912 379 873T272 834Q205 834 167 873T128
969Z" />
<glyph unicode=";" horiz-adv-x="495" d="M108 969Q108 1028 146 1067T252 1107Q320 1107 358 1068T397 969Q397 912 359 873T252 834Q185 834 147 873T108 969ZM372 59Q372 -45 320 -154T183 -335L50 -259Q78 -214 101 -168T138 -69T152 49V235H372V59Z" />
<glyph unicode="&lt;" horiz-adv-x="1042" d="M905 407V161L62 532V697L248 654L905 407ZM249 604L62 565V731L905 1101V856L249 604Z" />
<glyph unicode="=" horiz-adv-x="1153" d="M1012 774H143V979H1012V774ZM1012 349H143V554H1012V349Z" />
<glyph unicode="&gt;" horiz-adv-x="1064" d="M127 859V1101L991 731V565L795 614L127 859ZM796 655L991 698V533L127 162V405L796 655Z" />
<glyph unicode="?" horiz-adv-x="1000" d="M351 432Q352 525 367 589T417 706T511 815Q557 859 594 898T653 980T675 1079Q675 1171 629 1221T495 1271Q423 1271 365 1228T306 1088H58Q60 1217 118 1303T274 1432T495 1476Q697 1476 810 1375T923 1089Q923 1000
888 930T797 799T675 676Q619 626 600 567T580 432H351ZM331 122Q331 178 368 217T472 256Q538 256 575 217T613 122Q613 65 576 27T472 -11Q406 -11 369 27T331 122Z" />
<glyph unicode="@" horiz-adv-x="1835" d="M1742 523Q1738 425 1713 329T1637 153T1507 27T1316 -21Q1181 -21 1110 70T1052 314L1103 882H1283L1232 314Q1227 255 1235 218T1260 160T1300 131T1346 123Q1418 123 1469 176T1549 318T1582 519Q1594 750 1531 919T1326
1180T962 1272Q755 1272 605 1169T369 885T273 470Q264 285 302 143T420 -99T620 -248T895 -299Q984 -299 1074 -279T1226 -227L1265 -364Q1195 -409 1090 -431T891 -453Q632 -453 450 -345T177 -30T97 470Q106 675 170 848T347 1151T617 1351T966 1422Q1225 1422
1402 1311T1666 997T1742 523ZM729 425Q721 335 734 273T783 178T871 146Q903 146 940 167T1013 241T1071 384L1148 294Q1102 139 1012 60T811 -19Q713 -19 646 36T549 191T532 425Q549 599 614 725T775 920T983 990Q1096 990 1160 958T1283 882L1187 758Q1158
784 1112 808T1001 833Q926 833 870 787T778 650T729 425Z" />
<glyph unicode="A" horiz-adv-x="1363" d="M287 0H16L564 1456H736L719 1249L287 0ZM644 1249L625 1456H798L1348 0H1077L644 1249ZM1060 333H267V541H1060V333Z" />
<glyph unicode="B" horiz-adv-x="1295" d="M326 654L324 842H646Q767 842 833 895T899 1045Q899 1152 837 1200T643 1248H404V0H146V1456H643Q884 1456 1020 1361T1157 1062Q1157 972 1114 897T985 775T773 720L695 654H326ZM244 0L361 207H684Q808 207 871 268T934
426Q934 497 909 548T832 626T695 654H411L413 842H781L839 770Q960 768 1037 719T1153 593T1191 425Q1191 216 1057 108T684 0H244Z" />
<glyph unicode="C" horiz-adv-x="1338" d="M1261 476Q1249 333 1181 221T989 44T688 -20Q508 -20 376 64T172 304T100 670V785Q100 997 173 1151T380 1391T698 1476Q873 1476 993 1412T1180 1234T1261 973H1004Q989 1112 922 1189T698 1266Q585 1266 511 1211T398
1049T360 787V670Q360 522 394 415T500 249T688 190Q794 190 859 223T959 319T1003 476H1261Z" />
<glyph unicode="D" horiz-adv-x="1337" d="M260 0L262 207H570Q704 207 794 265T930 431T976 691V767Q976 922 931 1029T796 1192T579 1248H254V1456H579Q774 1456 921 1370T1152 1129T1235 765V691Q1235 481 1152 326T920 86T570 0H260ZM404 0H146V1456H404V0Z" />
<glyph unicode="E" horiz-adv-x="1157" d="M1101 0H332V207H1101V0ZM404 0H146V1456H404V0ZM1000 648H332V852H1000V648ZM1096 1248H332V1456H1096V1248Z" />
<glyph unicode="F" horiz-adv-x="1126" d="M404 0H146V1456H404V0ZM992 615H340V822H992V615ZM1076 1248H340V1456H1076V1248Z" />
<glyph unicode="G" horiz-adv-x="1395" d="M1268 187Q1236 147 1171 99T998 15T728 -20Q544 -20 404 62T184 301T105 679V777Q105 999 178 1155T385 1394T706 1476Q886 1476 1004 1416T1187 1251T1267 1008H1014Q1003 1084 969 1142T872 1235T711 1269Q596 1269
519 1212T404 1045T366 779V679Q366 521 410 412T538 245T738 187Q822 187 876 201T961 235T1010 273V555H712V749H1268V187Z" />
<glyph unicode="H" horiz-adv-x="1453" d="M1106 644H340V852H1106V644ZM404 0H146V1456H404V0ZM1305 0H1048V1456H1305V0Z" />
<glyph unicode="I" horiz-adv-x="582" d="M420 0H163V1456H420V0Z" />
<glyph unicode="J" horiz-adv-x="1138" d="M742 1456H1000V439Q1000 294 938 192T768 35T523 -20Q384 -20 277 27T108 172T46 419H304Q304 294 364 241T523 187Q588 187 637 216T714 302T742 439V1456Z" />
<glyph unicode="K" horiz-adv-x="1294" d="M404 0H146V1456H404V0ZM690 751L352 393L307 651L545 951L963 1456H1278L690 751ZM527 685L705 861L1305 0H998L527 685Z" />
<glyph unicode="L" horiz-adv-x="1107" d="M1062 0H332V207H1062V0ZM404 0H146V1456H404V0Z" />
<glyph unicode="M" horiz-adv-x="1792" d="M481 1456L895 346L1309 1456H1539L986 0H804L252 1456H481ZM365 1456L403 467V0H146V1456H365ZM1645 1456V0H1387V467L1426 1456H1645Z" />
<glyph unicode="N" horiz-adv-x="1453" d="M1305 0H1046L404 1026V0H146V1456H404L1048 428V1456H1305V0Z" />
<glyph unicode="O" horiz-adv-x="1413" d="M1312 690Q1312 469 1236 310T1025 66T707 -20Q529 -20 392 65T177 310T99 690V765Q99 986 176 1145T390 1390T705 1476Q887 1476 1023 1391T1235 1146T1312 765V690ZM1053 767Q1053 928 1012 1038T893 1205T705 1262Q597
1262 520 1206T401 1039T359 767V690Q359 529 401 418T521 250T707 193Q818 193 895 250T1013 418T1053 690V767Z" />
<glyph unicode="P" horiz-adv-x="1310" d="M326 537V745H702Q800 745 859 776T947 862T975 988Q975 1056 947 1115T860 1211T702 1248H404V0H146V1456H702Q872 1456 991 1396T1172 1231T1235 990Q1235 849 1173 748T991 592T702 537H326Z" />
<glyph unicode="Q" horiz-adv-x="1413" d="M1305 -105L1139 -255L759 49L919 200L1305 -105ZM1308 690Q1308 469 1232 310T1020 66T703 -20Q525 -20 387 65T172 310T94 690V765Q94 986 171 1145T385 1390T701 1476Q882 1476 1018 1391T1231 1146T1308 765V690ZM1048
767Q1048 928 1007 1038T889 1205T701 1262Q593 1262 515 1206T396 1039T354 767V690Q354 529 396 418T516 250T703 193Q813 193 890 250T1007 418T1048 690V767Z" />
<glyph unicode="R" horiz-adv-x="1288" d="M663 1456Q830 1456 948 1406T1128 1258T1191 1017Q1191 907 1151 824T1038 685T864 597L786 557H325L323 764H665Q754 764 813 795T902 880T932 1003Q932 1115 868 1181T663 1248H404V0H146V1456H663ZM633 653L904 654L1249
13V0H973L633 653Z" />
<glyph unicode="S" horiz-adv-x="1242" d="M909 376Q909 435 885 476T793 553T600 628Q497 659 410 699T257 791T156 913T119 1074Q119 1193 185 1283T368 1425T639 1476Q803 1476 921 1417T1102 1256T1166 1031H908Q908 1100 879 1154T789 1239T636 1270Q549
1270 491 1244T405 1174T377 1074Q377 1021 411 980T514 906T686 841Q848 794 955 731T1114 582T1167 378Q1167 255 1103 166T922 28T647 -20Q542 -20 440 8T256 94T124 239T74 444H332Q332 374 356 325T423 245T523 199T647 185Q734 185 792 209T879 277T909 376Z"
/>
<glyph unicode="T" horiz-adv-x="1249" d="M751 0H495V1456H751V0ZM1205 1248H45V1456H1205V1248Z" />
<glyph unicode="U" horiz-adv-x="1340" d="M1217 1456V486Q1217 319 1145 207T948 37T671 -20Q514 -20 391 37T197 206T126 486V1456H383V486Q383 383 418 317T518 219T671 187Q761 187 825 219T924 317T959 486V1456H1217Z" />
<glyph unicode="V" horiz-adv-x="1326" d="M1026 1456H1311L791 0H598L647 275L1026 1456ZM676 275L728 0H535L16 1456H300L676 275Z" />
<glyph unicode="W" horiz-adv-x="1802" d="M799 1456H955L941 1181L632 0H470L512 309L799 1456ZM536 316L553 0H381L46 1456H303L536 316ZM1508 1456H1765L1431 0H1258L1279 319L1508 1456ZM1301 305L1341 0H1179L875 1181L863 1456H1016L1301 305Z" />
<glyph unicode="X" horiz-adv-x="1295" d="M649 932L952 1456H1250L812 734L1260 0H960L649 534L337 0H38L487 734L48 1456H346L649 932Z" />
<glyph unicode="Y" horiz-adv-x="1252" d="M625 770L958 1456H1243L755 535V0H495V535L7 1456H293L625 770Z" />
<glyph unicode="Z" horiz-adv-x="1236" d="M1168 0H156V207H1168V0ZM253 0H79V163L975 1456H1145V1297L253 0ZM1050 1248H84V1456H1050V1248Z" />
<glyph unicode="[" horiz-adv-x="560" d="M541 1489H379V-135H541V-328H130V1682H541V1489Z" />
<glyph unicode="\" horiz-adv-x="855" d="M17 1456H264L872 -125H625L17 1456Z" />
<glyph unicode="]" horiz-adv-x="560" d="M12 1682H424V-328H12V-135H175V1489H12V1682Z" />
<glyph unicode="^" horiz-adv-x="880" d="M260 729H53L352 1456H494L450 1222L260 729ZM430 1222L385 1456H528L827 729H620L430 1222Z" />
<glyph unicode="_" horiz-adv-x="919" d="M916 -195H2V0H916V-195Z" />
<glyph unicode="`" horiz-adv-x="660" d="M529 1233H323L53 1536H332L529 1233Z" />
<glyph unicode="a" horiz-adv-x="1105" d="M730 731Q730 815 684 865T543 915Q487 915 445 896T380 843T357 768H109Q109 855 164 931T319 1055T557 1102Q679 1102 774 1061T923 937T978 729V252Q978 176 989 118T1020 17V0H766Q749 39 740 101T730 222V731ZM768
506H598Q466 506 400 458T333 326Q333 262 377 220T501 177Q574 177 628 206T714 279T746 361L825 250Q813 209 785 163T710 75T600 7T452 -20Q346 -20 263 22T133 137T85 303Q85 475 214 567T580 659H766L768 506Z" />
<glyph unicode="b" horiz-adv-x="1152" d="M371 1536V234L347 0H123V1536H371ZM1075 530Q1075 370 1028 246T887 51T654 -20Q519 -20 431 48T294 235T227 511V570Q245 727 293 846T430 1034T652 1102Q792 1102 886 1032T1027 838T1075 551V530ZM827 551Q827 646
806 725T733 851T590 899Q527 899 482 878T407 820T359 733T336 625V455Q345 380 373 318T455 220T592 183Q681 183 732 229T805 353T827 530V551Z" />
<glyph unicode="c" horiz-adv-x="1071" d="M567 179Q625 179 672 202T747 267T778 361H1012Q1009 254 949 168T790 31T569 -20Q404 -20 295 53T131 250T77 524V558Q77 708 131 831T294 1028T569 1102Q700 1102 798 1051T953 907T1012 692H778Q775 750 750 798T678
874T566 903Q470 903 418 853T345 724T325 558V524Q325 436 344 357T417 229T567 179Z" />
<glyph unicode="d" horiz-adv-x="1156" d="M780 1536H1028V0H803L780 227V1536ZM78 550Q78 714 129 838T276 1032T504 1102Q635 1102 723 1034T861 846T929 566V508Q912 354 862 235T724 48T502 -20Q371 -20 276 51T130 247T78 529V550ZM326 529Q326 433 350 355T426
230T565 183Q646 183 698 218T780 315T821 452V621Q814 681 796 732T748 820T672 878T567 899Q481 899 428 853T350 727T326 550V529Z" />
<glyph unicode="e" horiz-adv-x="1099" d="M602 -20Q441 -20 324 49T144 237T81 503V544Q81 713 145 838T320 1033T573 1102Q729 1102 832 1035T986 848T1037 571V464H200V643H792V662Q790 725 768 780T699 869T572 903Q493 903 439 859T357 734T329 544V503Q329
411 363 338T462 223T617 180Q704 180 771 214T888 312L1018 182Q967 105 865 43T602 -20Z" />
<glyph unicode="f" horiz-adv-x="725" d="M207 0V1185Q207 1365 309 1461T588 1557Q624 1557 659 1552T727 1539L721 1345Q702 1349 678 1351T628 1353Q546 1353 501 1310T455 1185V0H207ZM676 899H42V1082H676V899Z" />
<glyph unicode="g" horiz-adv-x="1162" d="M1040 1082V31Q1040 -115 977 -217T803 -373T544 -426Q482 -426 407 -409T260 -352T141 -250L257 -100Q315 -167 384 -199T531 -232Q652 -232 721 -165T791 27V836L814 1082H1040ZM80 550Q80 714 132 838T282 1032T514
1102Q620 1102 695 1064T819 954T897 784T940 566V508Q922 354 873 235T736 48T512 -20Q380 -20 283 51T133 247T80 529V550ZM328 529Q328 433 354 355T434 230T575 183Q659 183 712 218T794 315T835 452V621Q829 681 812 732T763 820T685 878T577 899Q491 899
436 853T355 727T328 550V529Z" />
<glyph unicode="h" horiz-adv-x="1139" d="M367 0H119V1536H367V0ZM244 579Q245 730 297 848T445 1034T667 1102Q774 1102 853 1062T977 932T1021 693V0H772V695Q772 771 750 816T686 880T582 899Q518 899 470 875T389 806T340 704T324 580L244 579Z" />
<glyph unicode="i" horiz-adv-x="525" d="M387 0H139V1082H387V0ZM123 1365Q123 1422 160 1459T263 1497Q329 1497 367 1460T405 1365Q405 1309 367 1272T263 1234Q197 1234 160 1271T123 1365Z" />
<glyph unicode="j" horiz-adv-x="516" d="M383 1082V-88Q383 -257 298 -347T50 -437Q18 -437 -17 -433T-83 -420L-82 -224Q-61 -228 -38 -230T7 -233Q68 -233 101 -199T135 -88V1082H383ZM114 1365Q114 1422 151 1459T254 1497Q320 1497 358 1460T396 1365Q396
1309 358 1272T254 1234Q188 1234 151 1271T114 1365Z" />
<glyph unicode="k" d="M372 0H123V1536H372V0ZM575 558L314 293L248 500L445 745L744 1082H1043L575 558ZM452 505L609 677L1084 0H796L452 505Z" />
<glyph unicode="l" horiz-adv-x="525" d="M387 0H139V1536H387V0Z" />
<glyph unicode="m" horiz-adv-x="1782" d="M371 0H122V1082H356L371 861V0ZM246 579Q246 730 294 848T439 1034T678 1102Q825 1102 920 1013T1015 721V0H767V698Q767 774 744 818T678 880T576 899Q509 899 463 875T387 806T345 704T331 580L246 579ZM883 614Q884
747 932 858T1074 1035T1306 1102Q1416 1102 1495 1062T1617 933T1660 698V0H1411V700Q1411 779 1388 822T1322 882T1221 899Q1166 899 1125 879T1056 824T1014 741T999 638L883 614Z" />
<glyph unicode="n" horiz-adv-x="1141" d="M368 0H120V1082H353L368 851V0ZM244 579Q245 736 299 853T450 1036T676 1102Q781 1102 858 1063T978 935T1021 697V0H772V699Q772 774 751 818T687 880T583 899Q521 899 474 875T393 806T342 704T324 580L244 579Z" />
<glyph unicode="o" horiz-adv-x="1163" d="M77 551Q77 709 137 833T309 1029T580 1102Q740 1102 853 1030T1025 833T1085 551V530Q1085 373 1026 249T854 52T582 -20Q423 -20 310 52T137 248T77 530V551ZM325 530Q325 434 352 355T435 227T582 179Q671 179 727
227T810 354T837 530V551Q837 646 811 726T727 854T580 903Q491 903 435 855T352 726T325 551V530Z" />
<glyph unicode="p" horiz-adv-x="1152" d="M371 -416H123V1082H352L371 874V-416ZM1073 531Q1073 373 1025 249T883 52T654 -20Q518 -20 429 46T289 230T220 497V568Q239 728 289 847T428 1034T651 1102Q788 1102 882 1033T1024 840T1073 552V531ZM825 552Q825
649 801 728T723 853T583 899Q521 899 476 879T401 821T353 734T329 623V442Q341 370 369 310T449 215T585 179Q671 179 724 227T801 355T825 531V552Z" />
<glyph unicode="q" horiz-adv-x="1161" d="M779 866L807 1082H1028V-416H779V866ZM78 551Q78 715 128 839T274 1033T506 1102Q640 1102 728 1035T867 847T934 568V509Q917 355 867 236T728 48T504 -20Q369 -20 274 52T128 248T78 530V551ZM326 530Q326 434 350
355T428 227T567 179Q651 179 704 216T786 315T826 453V622Q820 682 803 733T754 822T677 882T569 903Q483 903 429 856T351 728T326 551V530Z" />
<glyph unicode="r" horiz-adv-x="726" d="M371 0H123V1082H359L371 870V0ZM697 854Q674 858 649 860T598 862Q516 862 462 833T379 749T346 620L289 619Q289 756 325 865T433 1038T613 1102Q634 1102 660 1098T699 1089L697 854Z" />
<glyph unicode="s" horiz-adv-x="1055" d="M727 295Q727 329 710 357T642 409T495 453Q380 477 293 517T157 620T108 774Q108 862 158 936T303 1056T527 1102Q663 1102 761 1057T911 934T964 758H716Q716 822 669 870T526 919Q467 919 428 900T369 851T349 785Q349
750 368 724T435 678T569 640Q693 614 783 575T921 471T970 307Q970 212 916 138T763 22T530 -20Q381 -20 279 33T125 168T72 340H311Q315 276 347 237T429 181T533 163Q597 163 639 180T704 226T727 295Z" />
<glyph unicode="t" horiz-adv-x="683" d="M624 899H10V1082H624V899ZM432 1347V305Q432 255 446 230T486 195T546 186Q571 186 594 189T631 195V4Q601 -6 562 -13T469 -20Q386 -20 322 10T221 107T184 287V1347H432Z" />
<glyph unicode="u" horiz-adv-x="1140" d="M771 1082H1019V0H785L771 256V1082ZM888 484Q888 338 845 225T711 46T475 -20Q315 -20 216 74T117 383V1082H365V381Q365 306 388 263T451 201T537 183Q638 183 696 222T780 330T805 482L888 484Z" />
<glyph unicode="v" horiz-adv-x="1018" d="M736 1082H993L619 0H459L475 196L736 1082ZM545 193L557 0H398L21 1082H279L545 193Z" />
<glyph unicode="w" horiz-adv-x="1519" d="M665 1082H823L781 818L530 0H390L416 247L665 1082ZM470 244L483 0H326L34 1082H276L470 244ZM1239 1082H1480L1189 0H1032L1052 254L1239 1082ZM1096 256L1125 0H984L730 819L689 1082H850L1096 256Z" />
<glyph unicode="x" horiz-adv-x="1032" d="M516 731L720 1082H992L666 551L1004 0H733L517 367L303 0H29L368 551L42 1082H315L516 731Z" />
<glyph unicode="y" horiz-adv-x="1004" d="M727 1082H992L559 -164Q544 -205 520 -252T458 -341T362 -410T223 -437Q201 -437 181 -435T141 -428T104 -419V-228Q114 -229 128 -230T151 -231Q240 -231 286 -199T357 -90L436 119L727 1082ZM530 281L574 13L402 -26L11
1082H279L530 281Z" />
<glyph unicode="z" horiz-adv-x="1032" d="M962 0H156V199H962V0ZM241 0H81V160L777 1082H941V928L241 0ZM847 882H93V1082H847V882Z" />
<glyph unicode="{" horiz-adv-x="684" d="M654 1455Q552 1421 515 1333T477 1132V927Q477 827 434 745T298 615T55 566V708Q157 708 201 767T246 927V1132Q246 1237 279 1328T390 1489T605 1597L654 1455ZM605 -362Q468 -323 390 -254T279 -94T246 103V307Q246
407 202 466T55 526V669Q205 669 298 621T434 491T477 307V103Q477 -10 514 -97T654 -220L605 -362Z" />
<glyph unicode="|" horiz-adv-x="512" d="M340 -270H175V1456H340V-270Z" />
<glyph unicode="}" horiz-adv-x="684" d="M78 1597Q215 1559 293 1490T403 1329T436 1132V927Q436 827 481 768T628 708V572Q478 572 385 618T249 746T205 927V1132Q205 1245 168 1333T28 1455L78 1597ZM28 -220Q131 -185 168 -98T205 103V307Q205 409 248 489T385
616T628 663V526Q526 526 481 467T436 307V103Q436 -2 404 -93T293 -254T78 -362L28 -220Z" />
<glyph unicode="~" horiz-adv-x="1355" d="M1238 787Q1238 670 1196 580T1080 439T909 387Q825 387 761 420T622 522Q577 565 538 588T453 611Q387 611 349 560T310 423L116 424Q116 543 158 631T274 768T444 817Q528 817 595 783T733 683Q780 639 818 616T900
593Q967 593 1008 648T1049 788L1238 787Z" />
<glyph unicode="&#xa0;" horiz-adv-x="509" />
<glyph unicode="&#xa1;" horiz-adv-x="548" d="M171 658H382L408 -366H145L171 658ZM415 968Q415 912 378 873T274 834Q208 834 171 873T133 968Q133 1025 170 1063T274 1101Q341 1101 378 1063T415 968Z" />
<glyph unicode="&#xa2;" horiz-adv-x="1155" d="M687 1028H492V1318H687V1028ZM687 -245H492V44H687V-245ZM591 179Q649 179 696 202T771 267T803 361H1036Q1033 254 973 168T814 31T594 -20Q428 -20 319 53T155 250T101 524V558Q101 708 155 831T319 1028T593
1102Q724 1102 822 1051T977 907T1036 692H803Q800 750 774 798T702 874T590 903Q495 903 443 853T370 724T349 558V524Q349 436 369 357T441 229T591 179Z" />
<glyph unicode="&#xa3;" horiz-adv-x="1207" d="M99 0V207H1149L1148 0H99ZM96 595V799H823V595H96ZM525 424Q526 327 490 253T371 134L185 207Q218 216 235 249T258 328T265 413L244 1039Q244 1177 301 1274T461 1424T695 1476Q905 1476 1019 1364T1133 1070H883Q883
1143 856 1186T785 1248T688 1268Q609 1268 556 1210T502 1039L525 424Z" />
<glyph unicode="&#xa4;" horiz-adv-x="1435" d="M307 608Q307 515 339 434T428 292T560 197T721 162Q807 162 882 196T1014 292T1103 434T1135 608Q1135 701 1103 781T1014 923T882 1018T721 1052Q635 1052 560 1018T429 923T340 782T307 608ZM126 608Q126 741
172 855T300 1054T490 1186T721 1234Q844 1234 952 1187T1142 1054T1270 855T1316 608Q1316 475 1270 361T1142 162T952 28T721 -20Q598 -20 490 28T301 161T173 361T126 608ZM1155 917L1017 1059L1218 1265L1357 1123L1155 917ZM229 -26L91 115L293 320L431 180L229
-26ZM1017 179L1155 320L1357 115L1218 -27L1017 179ZM91 1123L229 1264L431 1058L293 917L91 1123Z" />
<glyph unicode="&#xa5;" horiz-adv-x="1089" d="M972 586H102V740H972V586ZM972 296H102V450H972V296ZM803 1456H1077L660 576H511L479 692L803 1456ZM617 684L579 576H430L13 1456H288L617 684ZM669 0H412V766H669V0Z" />
<glyph unicode="&#xa6;" horiz-adv-x="507" d="M136 -270V523H366V-270H136ZM366 698H136V1456H366V698Z" />
<glyph unicode="&#xa7;" horiz-adv-x="1275" d="M687 259Q798 259 859 310T921 443Q921 496 892 534T794 604T601 673Q454 714 348 765T186 895T129 1101Q129 1215 191 1299T368 1430T637 1477Q873 1477 1009 1367T1145 1048H897Q897 1111 867 1163T780 1245T637
1276Q501 1276 439 1226T377 1103Q377 1048 402 1012T496 947T691 884Q842 844 948 793T1110 663T1166 461Q1166 299 1036 213T687 126V259ZM557 740Q446 740 395 689T343 559Q343 502 368 464T462 396T658 328Q810 287 915 237T1076 107T1132 -99Q1132 -277 994
-373T627 -470Q528 -470 433 -449T260 -380T137 -249T91 -47L339 -46Q339 -112 364 -155T431 -223T524 -259T627 -270Q751 -270 817 -223T884 -101Q884 -50 856 -14T759 52T568 119Q420 158 314 209T152 340T95 541Q95 698 220 787T557 877V740Z" />
<glyph unicode="&#xa8;" horiz-adv-x="915" d="M96 1368Q96 1418 131 1452T223 1487Q281 1487 316 1453T351 1368Q351 1319 316 1285T223 1250Q166 1250 131 1284T96 1368ZM561 1367Q561 1416 595 1451T687 1486Q745 1486 780 1451T815 1367Q815 1317 780 1283T687
1249Q629 1249 595 1283T561 1367Z" />
<glyph unicode="&#xa9;" horiz-adv-x="1607" d="M1118 597Q1118 440 1029 362T784 283Q624 283 530 390T436 670V787Q436 959 530 1066T784 1174Q939 1174 1029 1096T1119 861H967Q967 958 921 1000T784 1042Q720 1042 676 1010T610 920T587 788V670Q587 557 637
487T784 416Q874 416 920 457T966 597H1118ZM208 729Q208 597 253 483T380 283T569 150T798 102Q920 102 1027 149T1215 282T1341 482T1387 729Q1387 862 1342 975T1215 1174T1027 1306T798 1353Q676 1353 569 1306T381 1174T254 976T208 729ZM88 729Q88 888 143
1024T296 1261T522 1419T798 1476Q945 1476 1073 1420T1299 1262T1452 1024T1508 729Q1508 570 1453 434T1300 196T1074 36T798 -21Q651 -21 523 36T296 195T143 434T88 729Z" />
<glyph unicode="&#xaa;" horiz-adv-x="912" d="M586 1202Q586 1265 557 1298T468 1331Q401 1331 364 1305T326 1230L157 1244Q157 1345 242 1411T467 1477Q598 1477 677 1408T757 1201V887Q757 838 763 794T783 706H610Q598 741 592 781T586 862V1202ZM629 1035H483Q394
1035 353 1002T312 923Q312 881 341 857T432 833Q473 833 516 852T587 898T616 950L633 835Q619 803 588 770T507 714T390 692Q270 692 206 753T141 919Q141 1029 225 1089T482 1150H628L629 1035Z" />
<glyph unicode="&#xab;" horiz-adv-x="998" d="M547 786L341 787V800L628 1190H797L547 786ZM797 392H628L341 781V794L547 795L797 392ZM656 530L450 531V544L737 934H906L656 530ZM906 136H737L450 525V538L656 539L906 136Z" />
<glyph unicode="&#xac;" horiz-adv-x="1132" d="M961 636H127V803H961V636ZM961 375H765V727H961V375Z" />
<glyph unicode="&#xad;" horiz-adv-x="600" d="M613 522H80V722H613V522Z" />
<glyph unicode="&#xae;" horiz-adv-x="1607" d="M608 654L606 785H796Q862 786 912 816T962 903Q962 977 923 1006T784 1035H653V316H505V1166H784Q933 1166 1021 1101T1109 906Q1109 825 1053 771T891 688Q887 688 884 682T877 675Q860 665 856 661T847 655T822
654H608ZM833 756Q989 756 1047 688T1105 515V459Q1105 422 1108 389T1122 332V316H970Q960 342 959 390T957 460V514Q957 585 924 619T812 654L833 756ZM208 729Q208 597 253 483T380 283T569 150T798 102Q920 102 1026 149T1214 282T1341 482T1387 729Q1387 862
1341 975T1214 1174T1027 1306T798 1353Q676 1353 569 1306T381 1174T254 976T208 729ZM88 729Q88 888 143 1024T296 1261T522 1419T798 1476Q945 1476 1073 1420T1300 1262T1453 1024T1508 729Q1508 570 1453 434T1300 196T1074 36T798 -21Q651 -21 523 36T296
195T143 434T88 729Z" />
<glyph unicode="&#xaf;" horiz-adv-x="991" d="M841 1294H158V1451H841V1294Z" />
<glyph unicode="&#xb0;" horiz-adv-x="783" d="M128 1207Q128 1281 164 1342T261 1440T394 1477Q465 1477 524 1440T619 1342T655 1207Q655 1134 620 1073T525 977T394 942Q322 942 262 977T165 1073T128 1207ZM267 1207Q267 1153 304 1117T394 1081Q446 1081
481 1117T516 1207Q516 1263 481 1300T394 1337Q342 1337 305 1300T267 1207Z" />
<glyph unicode="&#xb1;" horiz-adv-x="1099" d="M1009 703H93V907H1009V703ZM668 318H447V1278H668V318ZM974 1H122V202H974V1Z" />
<glyph unicode="&#xb2;" horiz-adv-x="759" d="M690 667H78V793L366 1056Q426 1110 451 1153T477 1223Q477 1266 450 1292T370 1318Q307 1318 277 1283T247 1198H60Q60 1272 96 1333T201 1430T363 1467Q505 1467 584 1403T663 1224Q663 1168 640 1122T571 1029T457
927L320 816H690V667Z" />
<glyph unicode="&#xb3;" horiz-adv-x="759" d="M357 1133Q421 1133 451 1159T482 1230Q482 1264 456 1291T366 1318Q319 1318 286 1299T253 1244H66Q66 1315 107 1365T215 1441T361 1467Q498 1467 583 1410T669 1242Q669 1184 634 1141T535 1073T388 1049H270V1133H357ZM270
1088H388Q481 1088 547 1068T648 1003T683 888Q683 777 591 717T362 656Q287 656 217 680T101 758T55 897H241Q241 860 276 833T371 806Q435 806 465 834T496 903Q496 959 459 982T357 1005H270V1088Z" />
<glyph unicode="&#xb4;" horiz-adv-x="666" d="M306 1536H585L311 1233H110L306 1536Z" />
<glyph unicode="&#xb5;" horiz-adv-x="1140" d="M118 607H329L354 -416H92L118 607ZM771 1082H1019V0H785L771 256V1082ZM888 484Q888 338 845 225T711 46T475 -20Q315 -20 216 74T117 383V1082H365V381Q365 306 388 263T451 201T537 183Q638 183 696 222T780
330T805 482L888 484Z" />
<glyph unicode="&#xb6;" horiz-adv-x="1003" d="M648 0V520H564Q405 520 296 580T129 747T72 988Q72 1122 129 1228T295 1395T564 1456H856V0H648Z" />
<glyph unicode="&#xb7;" horiz-adv-x="584" d="M143 711Q143 769 181 808T287 848Q355 848 393 809T431 711Q431 653 393 614T287 575Q220 575 182 614T143 711Z" />
<glyph unicode="&#xb8;" horiz-adv-x="532" d="M322 4L310 -52Q367 -62 414 -100T462 -225Q462 -327 378 -389T130 -451L123 -309Q161 -309 191 -300T240 -272T258 -220Q258 -175 222 -159T108 -136L139 4H322Z" />
<glyph unicode="&#xb9;" horiz-adv-x="759" d="M515 667H330V1237L131 1189V1336L497 1455H515V667Z" />
<glyph unicode="&#xba;" horiz-adv-x="935" d="M120 1122Q120 1278 213 1377T465 1477Q625 1477 717 1378T810 1122V1044Q810 889 718 790T467 691Q307 691 214 790T120 1044V1122ZM292 1044Q292 954 334 894T467 834Q554 834 596 894T639 1044V1122Q639 1211
597 1271T465 1331Q377 1331 335 1271T292 1122V1044Z" />
<glyph unicode="&#xbb;" horiz-adv-x="998" d="M342 539L547 538V525L261 136H92L342 539ZM261 934L547 544V531L342 530L92 934H261ZM718 539L923 538V525L637 136H468L718 539ZM637 934L923 544V531L718 530L468 934H637Z" />
<glyph unicode="&#xbc;" horiz-adv-x="1504" d="M517 110L391 182L1102 1320L1228 1248L517 110ZM515 546H330V1116L131 1068V1215L497 1334H515V546ZM1449 164H810L800 285L1165 789H1312L1152 534L981 316H1449V164ZM1353 0H1166V789H1353V0Z" />
<glyph unicode="&#xbd;" horiz-adv-x="1615" d="M507 110L381 182L1092 1320L1218 1248L507 110ZM515 546H330V1116L131 1068V1215L497 1334H515V546ZM1547 0H935V126L1223 389Q1283 443 1308 486T1334 556Q1334 599 1307 625T1227 651Q1164 651 1134 616T1104
531H917Q917 605 953 666T1058 763T1220 800Q1362 800 1441 736T1520 557Q1520 501 1497 455T1428 362T1314 260L1177 149H1547V0Z" />
<glyph unicode="&#xbe;" horiz-adv-x="1604" d="M357 1005Q421 1005 451 1031T482 1102Q482 1136 456 1163T366 1190Q319 1190 286 1171T253 1116H66Q66 1187 107 1237T215 1313T361 1339Q498 1339 583 1282T669 1114Q669 1056 634 1013T535 945T388 921H270V1005H357ZM270
960H388Q481 960 547 940T648 875T683 760Q683 649 591 589T362 528Q287 528 217 552T101 630T55 769H241Q241 732 276 705T371 678Q435 678 465 706T496 775Q496 831 459 854T357 877H270V960ZM616 110L490 182L1201 1320L1327 1248L616 110ZM1548 164H909L899
285L1264 789H1411L1251 534L1080 316H1548V164ZM1452 0H1265V789H1452V0Z" />
<glyph unicode="&#xbf;" horiz-adv-x="1000" d="M636 658Q635 566 620 503T572 389T479 279Q435 236 398 196T339 111T317 5Q317 -87 365 -133T499 -180Q575 -180 632 -136T691 5H939Q938 -124 880 -211T723 -342T502 -386Q297 -386 183 -286T69 1Q69 90 105 162T197
297T317 419Q354 454 373 489T399 566T407 658H636ZM659 969Q659 913 622 874T519 835Q453 835 416 874T378 969Q378 1026 415 1064T519 1102Q585 1102 622 1064T659 969Z" />
<glyph unicode="&#xc0;" horiz-adv-x="1363" d="M287 0H16L564 1456H736L719 1249L287 0ZM644 1249L625 1456H798L1348 0H1077L644 1249ZM1060 333H267V541H1060V333ZM815 1543H609L339 1846H619L815 1543Z" />
<glyph unicode="&#xc1;" horiz-adv-x="1363" d="M287 0H16L564 1456H736L719 1249L287 0ZM644 1249L625 1456H798L1348 0H1077L644 1249ZM1060 333H267V541H1060V333ZM757 1846H1036L762 1543H562L757 1846Z" />
<glyph unicode="&#xc2;" horiz-adv-x="1363" d="M287 0H16L564 1456H736L719 1249L287 0ZM644 1249L625 1456H798L1348 0H1077L644 1249ZM1060 333H267V541H1060V333ZM1037 1569V1558H838L685 1713L533 1558H337V1572L612 1846H758L1037 1569Z" />
<glyph unicode="&#xc3;" horiz-adv-x="1363" d="M287 0H16L564 1456H736L719 1249L287 0ZM644 1249L625 1456H798L1348 0H1077L644 1249ZM1060 333H267V541H1060V333ZM1053 1824Q1053 1751 1024 1693T945 1602T831 1568Q781 1568 748 1582T686 1613T629 1644T559
1658Q521 1658 495 1630T469 1556L318 1564Q318 1637 347 1695T426 1788T540 1823Q581 1823 614 1810T678 1779T741 1748T812 1734Q850 1734 876 1762T903 1836L1053 1824Z" />
<glyph unicode="&#xc4;" horiz-adv-x="1363" d="M287 0H16L564 1456H736L719 1249L287 0ZM644 1249L625 1456H798L1348 0H1077L644 1249ZM1060 333H267V541H1060V333ZM326 1678Q326 1728 361 1762T453 1797Q511 1797 546 1763T581 1678Q581 1629 546 1595T453
1560Q396 1560 361 1594T326 1678ZM791 1677Q791 1726 825 1761T917 1796Q975 1796 1010 1761T1045 1677Q1045 1627 1010 1593T917 1559Q859 1559 825 1593T791 1677Z" />
<glyph unicode="&#xc5;" horiz-adv-x="1363" d="M287 0H16L564 1456H736L719 1249L287 0ZM644 1249L625 1456H798L1348 0H1077L644 1249ZM1060 333H267V541H1060V333ZM465 1730Q465 1816 528 1876T686 1937Q780 1937 842 1877T905 1730Q905 1645 843 1587T686
1528Q591 1528 528 1586T465 1730ZM574 1730Q574 1687 605 1654T686 1620Q736 1620 766 1653T797 1730Q797 1776 767 1810T686 1844Q636 1844 605 1810T574 1730Z" />
<glyph unicode="&#xc6;" horiz-adv-x="1922" d="M290 0H-5L820 1456H977L984 1302L290 0ZM1108 342H358V559H1108V342ZM1873 0H1140V201H1873V0ZM1228 0H979L918 1456H1167L1228 0ZM1730 651H1100V852H1730V651ZM1811 1255H1079V1456H1811V1255Z" />
<glyph unicode="&#xc7;" horiz-adv-x="1338" d="M1261 476Q1249 333 1181 221T989 44T688 -20Q508 -20 376 64T172 304T100 670V785Q100 997 173 1151T380 1391T698 1476Q873 1476 993 1412T1180 1234T1261 973H1004Q989 1112 922 1189T698 1266Q585 1266 511
1211T398 1049T360 787V670Q360 522 394 415T500 249T688 190Q794 190 859 223T959 319T1003 476H1261ZM779 -2L767 -58Q824 -68 871 -106T919 -231Q919 -333 835 -395T587 -457L580 -315Q618 -315 648 -306T697 -278T715 -226Q715 -181 679 -165T565 -142L596
-2H779Z" />
<glyph unicode="&#xc8;" horiz-adv-x="1157" d="M1101 0H332V207H1101V0ZM404 0H146V1456H404V0ZM1000 648H332V852H1000V648ZM1096 1248H332V1456H1096V1248ZM759 1550H553L283 1853H563L759 1550Z" />
<glyph unicode="&#xc9;" horiz-adv-x="1157" d="M1101 0H332V207H1101V0ZM404 0H146V1456H404V0ZM1000 648H332V852H1000V648ZM1096 1248H332V1456H1096V1248ZM701 1853H980L706 1550H506L701 1853Z" />
<glyph unicode="&#xca;" horiz-adv-x="1157" d="M1101 0H332V207H1101V0ZM404 0H146V1456H404V0ZM1000 648H332V852H1000V648ZM1096 1248H332V1456H1096V1248ZM981 1576V1565H782L629 1720L477 1565H281V1579L556 1853H702L981 1576Z" />
<glyph unicode="&#xcb;" horiz-adv-x="1157" d="M1101 0H332V207H1101V0ZM404 0H146V1456H404V0ZM1000 648H332V852H1000V648ZM1096 1248H332V1456H1096V1248ZM270 1685Q270 1735 305 1769T397 1804Q455 1804 490 1770T525 1685Q525 1636 490 1602T397 1567Q340
1567 305 1601T270 1685ZM735 1684Q735 1733 769 1768T861 1803Q919 1803 954 1768T989 1684Q989 1634 954 1600T861 1566Q803 1566 769 1600T735 1684Z" />
<glyph unicode="&#xcc;" horiz-adv-x="582" d="M420 0H163V1456H420V0ZM420 1550H214L-56 1853H224L420 1550Z" />
<glyph unicode="&#xcd;" horiz-adv-x="582" d="M420 0H163V1456H420V0ZM363 1853H642L368 1550H168L363 1853Z" />
<glyph unicode="&#xce;" horiz-adv-x="582" d="M420 0H163V1456H420V0ZM643 1576V1565H444L291 1720L139 1565H-57V1579L218 1853H364L643 1576Z" />
<glyph unicode="&#xcf;" horiz-adv-x="582" d="M420 0H163V1456H420V0ZM-68 1685Q-68 1735 -33 1769T59 1804Q117 1804 152 1770T187 1685Q187 1636 152 1602T59 1567Q2 1567 -33 1601T-68 1685ZM397 1684Q397 1733 431 1768T523 1803Q581 1803 616 1768T651 1684Q651
1634 616 1600T523 1566Q465 1566 431 1600T397 1684Z" />
<glyph unicode="&#xd0;" horiz-adv-x="1337" d="M260 0L262 207H570Q704 207 794 265T930 431T976 691V767Q976 922 931 1029T796 1192T579 1248H254V1456H579Q774 1456 921 1370T1152 1129T1235 765V691Q1235 481 1152 326T920 86T570 0H260ZM404 0H146V1456H404V0ZM666
652H-9V822H666V652Z" />
<glyph unicode="&#xd1;" horiz-adv-x="1453" d="M1305 0H1046L404 1026V0H146V1456H404L1048 428V1456H1305V0ZM1094 1824Q1094 1751 1065 1693T986 1602T872 1568Q822 1568 789 1582T727 1613T670 1644T600 1658Q562 1658 536 1630T510 1556L359 1564Q359 1637
388 1695T467 1788T581 1823Q622 1823 655 1810T719 1779T782 1748T853 1734Q891 1734 917 1762T944 1836L1094 1824Z" />
<glyph unicode="&#xd2;" horiz-adv-x="1413" d="M1312 690Q1312 469 1236 310T1025 66T707 -20Q529 -20 392 65T177 310T99 690V765Q99 986 176 1145T390 1390T705 1476Q887 1476 1023 1391T1235 1146T1312 765V690ZM1053 767Q1053 928 1012 1038T893 1205T705
1262Q597 1262 520 1206T401 1039T359 767V690Q359 529 401 418T521 250T707 193Q818 193 895 250T1013 418T1053 690V767ZM837 1544H631L361 1847H641L837 1544Z" />
<glyph unicode="&#xd3;" horiz-adv-x="1413" d="M1312 690Q1312 469 1236 310T1025 66T707 -20Q529 -20 392 65T177 310T99 690V765Q99 986 176 1145T390 1390T705 1476Q887 1476 1023 1391T1235 1146T1312 765V690ZM1053 767Q1053 928 1012 1038T893 1205T705
1262Q597 1262 520 1206T401 1039T359 767V690Q359 529 401 418T521 250T707 193Q818 193 895 250T1013 418T1053 690V767ZM779 1847H1058L784 1544H584L779 1847Z" />
<glyph unicode="&#xd4;" horiz-adv-x="1413" d="M1312 690Q1312 469 1236 310T1025 66T707 -20Q529 -20 392 65T177 310T99 690V765Q99 986 176 1145T390 1390T705 1476Q887 1476 1023 1391T1235 1146T1312 765V690ZM1053 767Q1053 928 1012 1038T893 1205T705
1262Q597 1262 520 1206T401 1039T359 767V690Q359 529 401 418T521 250T707 193Q818 193 895 250T1013 418T1053 690V767ZM1059 1570V1559H860L707 1714L555 1559H359V1573L634 1847H780L1059 1570Z" />
<glyph unicode="&#xd5;" horiz-adv-x="1413" d="M1312 690Q1312 469 1236 310T1025 66T707 -20Q529 -20 392 65T177 310T99 690V765Q99 986 176 1145T390 1390T705 1476Q887 1476 1023 1391T1235 1146T1312 765V690ZM1053 767Q1053 928 1012 1038T893 1205T705
1262Q597 1262 520 1206T401 1039T359 767V690Q359 529 401 418T521 250T707 193Q818 193 895 250T1013 418T1053 690V767ZM1075 1825Q1075 1752 1046 1694T967 1603T853 1569Q803 1569 770 1583T708 1614T651 1645T581 1659Q543 1659 517 1631T491 1557L340 1565Q340
1638 369 1696T448 1789T562 1824Q603 1824 636 1811T700 1780T763 1749T834 1735Q872 1735 898 1763T925 1837L1075 1825Z" />
<glyph unicode="&#xd6;" horiz-adv-x="1413" d="M1312 690Q1312 469 1236 310T1025 66T707 -20Q529 -20 392 65T177 310T99 690V765Q99 986 176 1145T390 1390T705 1476Q887 1476 1023 1391T1235 1146T1312 765V690ZM1053 767Q1053 928 1012 1038T893 1205T705
1262Q597 1262 520 1206T401 1039T359 767V690Q359 529 401 418T521 250T707 193Q818 193 895 250T1013 418T1053 690V767ZM348 1679Q348 1729 383 1763T475 1798Q533 1798 568 1764T603 1679Q603 1630 568 1596T475 1561Q418 1561 383 1595T348 1679ZM813 1678Q813
1727 847 1762T939 1797Q997 1797 1032 1762T1067 1678Q1067 1628 1032 1594T939 1560Q881 1560 847 1594T813 1678Z" />
<glyph unicode="&#xd7;" horiz-adv-x="1091" d="M75 356L854 1150L1004 1000L225 206L75 356ZM75 1000L226 1150L1005 356L854 206L75 1000Z" />
<glyph unicode="&#xd8;" horiz-adv-x="1411" d="M325 -94H154L1129 1517H1298L325 -94ZM1316 690Q1316 469 1241 310T1029 66T712 -20Q534 -20 396 65T181 310T103 690V765Q103 986 180 1145T394 1390T710 1476Q891 1476 1027 1391T1240 1146T1316 765V690ZM1057
767Q1057 928 1016 1038T898 1205T710 1262Q602 1262 524 1206T405 1039T363 767V690Q363 529 405 418T525 250T712 193Q822 193 899 250T1017 418T1057 690V767Z" />
<glyph unicode="&#xd9;" horiz-adv-x="1340" d="M1217 1456V486Q1217 319 1145 207T948 37T671 -20Q514 -20 391 37T197 206T126 486V1456H383V486Q383 383 418 317T518 219T671 187Q761 187 825 219T924 317T959 486V1456H1217ZM799 1543H593L323 1846H603L799 1543Z" />
<glyph unicode="&#xda;" horiz-adv-x="1340" d="M1217 1456V486Q1217 319 1145 207T948 37T671 -20Q514 -20 391 37T197 206T126 486V1456H383V486Q383 383 418 317T518 219T671 187Q761 187 825 219T924 317T959 486V1456H1217ZM741 1846H1020L746 1543H546L741 1846Z" />
<glyph unicode="&#xdb;" horiz-adv-x="1340" d="M1217 1456V486Q1217 319 1145 207T948 37T671 -20Q514 -20 391 37T197 206T126 486V1456H383V486Q383 383 418 317T518 219T671 187Q761 187 825 219T924 317T959 486V1456H1217ZM1021 1569V1558H822L669 1713L517
1558H321V1572L596 1846H742L1021 1569Z" />
<glyph unicode="&#xdc;" horiz-adv-x="1340" d="M1217 1456V486Q1217 319 1145 207T948 37T671 -20Q514 -20 391 37T197 206T126 486V1456H383V486Q383 383 418 317T518 219T671 187Q761 187 825 219T924 317T959 486V1456H1217ZM310 1678Q310 1728 345 1762T437
1797Q495 1797 530 1763T565 1678Q565 1629 530 1595T437 1560Q380 1560 345 1594T310 1678ZM775 1677Q775 1726 809 1761T901 1796Q959 1796 994 1761T1029 1677Q1029 1627 994 1593T901 1559Q843 1559 809 1593T775 1677Z" />
<glyph unicode="&#xdd;" horiz-adv-x="1252" d="M625 770L958 1456H1243L755 535V0H495V535L7 1456H293L625 770ZM700 1846H979L705 1543H505L700 1846Z" />
<glyph unicode="&#xde;" horiz-adv-x="1232" d="M395 1456V0H146V1456H395ZM639 1179Q807 1179 922 1122T1096 966T1156 738Q1156 611 1097 512T922 355T639 298H354V497H639Q735 497 794 531T880 620T907 736Q907 798 880 854T794 944T639 979H394L246 1179H639Z" />
<glyph unicode="&#xdf;" horiz-adv-x="1262" d="M384 0H137V1106Q137 1330 257 1444T578 1558Q692 1558 783 1519T928 1400T982 1201Q982 1124 965 1076T925 993T885 920T867 826Q867 780 899 741T979 661T1074 576T1154 474T1187 340Q1187 223 1136 143T991 21T766
-20Q713 -20 657 -12T554 11T479 43L528 242Q561 223 622 202T754 180Q817 180 858 199T919 253T939 333Q939 385 907 425T827 503T731 584T651 684T619 820Q619 883 637 927T680 1008T722 1086T741 1186Q741 1241 719 1279T658 1337T570 1358Q483 1358 434 1299T384
1103V0Z" />
<glyph unicode="&#xe0;" horiz-adv-x="1105" d="M730 731Q730 815 684 865T543 915Q487 915 445 896T380 843T357 768H109Q109 855 164 931T319 1055T557 1102Q679 1102 774 1061T923 937T978 729V252Q978 176 989 118T1020 17V0H766Q749 39 740 101T730 222V731ZM768
506H598Q466 506 400 458T333 326Q333 262 377 220T501 177Q574 177 628 206T714 279T746 361L825 250Q813 209 785 163T710 75T600 7T452 -20Q346 -20 263 22T133 137T85 303Q85 475 214 567T580 659H766L768 506ZM694 1233H488L218 1536H498L694 1233Z" />
<glyph unicode="&#xe1;" horiz-adv-x="1105" d="M730 731Q730 815 684 865T543 915Q487 915 445 896T380 843T357 768H109Q109 855 164 931T319 1055T557 1102Q679 1102 774 1061T923 937T978 729V252Q978 176 989 118T1020 17V0H766Q749 39 740 101T730 222V731ZM768
506H598Q466 506 400 458T333 326Q333 262 377 220T501 177Q574 177 628 206T714 279T746 361L825 250Q813 209 785 163T710 75T600 7T452 -20Q346 -20 263 22T133 137T85 303Q85 475 214 567T580 659H766L768 506ZM637 1536H916L642 1233H442L637 1536Z" />
<glyph unicode="&#xe2;" horiz-adv-x="1105" d="M730 731Q730 815 684 865T543 915Q487 915 445 896T380 843T357 768H109Q109 855 164 931T319 1055T557 1102Q679 1102 774 1061T923 937T978 729V252Q978 176 989 118T1020 17V0H766Q749 39 740 101T730 222V731ZM768
506H598Q466 506 400 458T333 326Q333 262 377 220T501 177Q574 177 628 206T714 279T746 361L825 250Q813 209 785 163T710 75T600 7T452 -20Q346 -20 263 22T133 137T85 303Q85 475 214 567T580 659H766L768 506ZM916 1259V1248H717L564 1403L412 1248H216V1262L491
1536H637L916 1259Z" />
<glyph unicode="&#xe3;" horiz-adv-x="1105" d="M730 731Q730 815 684 865T543 915Q487 915 445 896T380 843T357 768H109Q109 855 164 931T319 1055T557 1102Q679 1102 774 1061T923 937T978 729V252Q978 176 989 118T1020 17V0H766Q749 39 740 101T730 222V731ZM768
506H598Q466 506 400 458T333 326Q333 262 377 220T501 177Q574 177 628 206T714 279T746 361L825 250Q813 209 785 163T710 75T600 7T452 -20Q346 -20 263 22T133 137T85 303Q85 475 214 567T580 659H766L768 506ZM931 1514Q931 1441 902 1383T823 1292T709 1258Q659
1258 626 1272T564 1303T507 1334T437 1348Q399 1348 373 1320T347 1246L196 1254Q196 1327 225 1385T304 1478T418 1513Q459 1513 492 1500T556 1469T619 1438T690 1424Q728 1424 754 1452T781 1526L931 1514Z" />
<glyph unicode="&#xe4;" horiz-adv-x="1105" d="M730 731Q730 815 684 865T543 915Q487 915 445 896T380 843T357 768H109Q109 855 164 931T319 1055T557 1102Q679 1102 774 1061T923 937T978 729V252Q978 176 989 118T1020 17V0H766Q749 39 740 101T730 222V731ZM768
506H598Q466 506 400 458T333 326Q333 262 377 220T501 177Q574 177 628 206T714 279T746 361L825 250Q813 209 785 163T710 75T600 7T452 -20Q346 -20 263 22T133 137T85 303Q85 475 214 567T580 659H766L768 506ZM205 1368Q205 1418 240 1452T332 1487Q390 1487
425 1453T460 1368Q460 1319 425 1285T332 1250Q275 1250 240 1284T205 1368ZM670 1367Q670 1416 704 1451T796 1486Q854 1486 889 1451T924 1367Q924 1317 889 1283T796 1249Q738 1249 704 1283T670 1367Z" />
<glyph unicode="&#xe5;" horiz-adv-x="1105" d="M730 731Q730 815 684 865T543 915Q487 915 445 896T380 843T357 768H109Q109 855 164 931T319 1055T557 1102Q679 1102 774 1061T923 937T978 729V252Q978 176 989 118T1020 17V0H766Q749 39 740 101T730 222V731ZM768
506H598Q466 506 400 458T333 326Q333 262 377 220T501 177Q574 177 628 206T714 279T746 361L825 250Q813 209 785 163T710 75T600 7T452 -20Q346 -20 263 22T133 137T85 303Q85 475 214 567T580 659H766L768 506ZM344 1419Q344 1505 407 1565T565 1626Q659 1626
721 1566T784 1419Q784 1334 722 1276T565 1217Q470 1217 407 1275T344 1419ZM453 1419Q453 1376 484 1343T565 1309Q615 1309 645 1342T676 1419Q676 1465 646 1499T565 1533Q515 1533 484 1499T453 1419Z" />
<glyph unicode="&#xe6;" horiz-adv-x="1730" d="M735 712Q735 800 689 851T555 903Q460 903 406 858T351 751L103 770Q103 866 159 941T318 1059T557 1102Q745 1102 860 1004T975 710V218L735 183V712ZM779 475H550Q474 475 423 452T346 391T319 309Q319 247 363
207T501 167Q548 167 597 184T688 228T755 287T780 345L900 194Q874 145 816 96T668 13T452 -21Q268 -21 170 70T71 313Q71 471 192 557T548 644H778L779 475ZM1253 -21Q1088 -21 973 46T799 233T740 505V564Q740 722 799 844T966 1034T1221 1102Q1436 1102 1553
970T1671 613V470H852V643H1425V672Q1425 737 1405 789T1339 872T1221 903Q1138 903 1084 858T1004 736T978 564V505Q978 415 1008 341T1103 223T1271 180Q1382 180 1451 209T1574 269L1646 101Q1617 78 1563 50T1430 0T1253 -21Z" />
<glyph unicode="&#xe7;" horiz-adv-x="1071" d="M567 179Q625 179 672 202T747 267T778 361H1012Q1009 254 949 168T790 31T569 -20Q404 -20 295 53T131 250T77 524V558Q77 708 131 831T294 1028T569 1102Q700 1102 798 1051T953 907T1012 692H778Q775 750 750
798T678 874T566 903Q470 903 418 853T345 724T325 558V524Q325 436 344 357T417 229T567 179ZM642 -2L630 -58Q687 -68 734 -106T782 -231Q782 -333 698 -395T450 -457L443 -315Q481 -315 511 -306T560 -278T578 -226Q578 -181 542 -165T428 -142L459 -2H642Z"
/>
<glyph unicode="&#xe8;" horiz-adv-x="1099" d="M602 -20Q441 -20 324 49T144 237T81 503V544Q81 713 145 838T320 1033T573 1102Q729 1102 832 1035T986 848T1037 571V464H200V643H792V662Q790 725 768 780T699 869T572 903Q493 903 439 859T357 734T329 544V503Q329
411 363 338T462 223T617 180Q704 180 771 214T888 312L1018 182Q967 105 865 43T602 -20ZM683 1233H477L207 1536H487L683 1233Z" />
<glyph unicode="&#xe9;" horiz-adv-x="1099" d="M602 -20Q441 -20 324 49T144 237T81 503V544Q81 713 145 838T320 1033T573 1102Q729 1102 832 1035T986 848T1037 571V464H200V643H792V662Q790 725 768 780T699 869T572 903Q493 903 439 859T357 734T329 544V503Q329
411 363 338T462 223T617 180Q704 180 771 214T888 312L1018 182Q967 105 865 43T602 -20ZM625 1536H904L630 1233H430L625 1536Z" />
<glyph unicode="&#xea;" horiz-adv-x="1099" d="M602 -20Q441 -20 324 49T144 237T81 503V544Q81 713 145 838T320 1033T573 1102Q729 1102 832 1035T986 848T1037 571V464H200V643H792V662Q790 725 768 780T699 869T572 903Q493 903 439 859T357 734T329 544V503Q329
411 363 338T462 223T617 180Q704 180 771 214T888 312L1018 182Q967 105 865 43T602 -20ZM905 1259V1248H706L553 1403L401 1248H205V1262L480 1536H626L905 1259Z" />
<glyph unicode="&#xeb;" horiz-adv-x="1099" d="M602 -20Q441 -20 324 49T144 237T81 503V544Q81 713 145 838T320 1033T573 1102Q729 1102 832 1035T986 848T1037 571V464H200V643H792V662Q790 725 768 780T699 869T572 903Q493 903 439 859T357 734T329 544V503Q329
411 363 338T462 223T617 180Q704 180 771 214T888 312L1018 182Q967 105 865 43T602 -20ZM194 1368Q194 1418 229 1452T321 1487Q379 1487 414 1453T449 1368Q449 1319 414 1285T321 1250Q264 1250 229 1284T194 1368ZM659 1367Q659 1416 693 1451T785 1486Q843
1486 878 1451T913 1367Q913 1317 878 1283T785 1249Q727 1249 693 1283T659 1367Z" />
<glyph unicode="&#xec;" horiz-adv-x="540" d="M391 0H143V1082H391V0ZM400 1223H194L-76 1526H204L400 1223Z" />
<glyph unicode="&#xed;" horiz-adv-x="540" d="M391 0H143V1082H391V0ZM342 1526H621L347 1223H147L342 1526Z" />
<glyph unicode="&#xee;" horiz-adv-x="540" d="M391 0H143V1082H391V0ZM622 1249V1238H423L270 1393L118 1238H-78V1252L197 1526H343L622 1249Z" />
<glyph unicode="&#xef;" horiz-adv-x="540" d="M391 0H143V1082H391V0ZM-90 1358Q-90 1408 -55 1442T37 1477Q95 1477 130 1443T165 1358Q165 1309 130 1275T37 1240Q-20 1240 -55 1274T-90 1358ZM375 1357Q375 1406 409 1441T501 1476Q559 1476 594 1441T629
1357Q629 1307 594 1273T501 1239Q443 1239 409 1273T375 1357Z" />
<glyph unicode="&#xf0;" horiz-adv-x="1188" d="M319 1580Q547 1532 721 1406T993 1086T1092 643V560Q1092 388 1027 257T850 53T593 -20Q447 -20 336 45T163 221T101 468Q101 620 156 733T313 908T552 971Q665 971 755 920T899 784T958 599L868 600Q868 629 853
660T805 718T723 762T608 779Q525 779 467 742T379 634T349 468Q349 394 378 328T462 221T597 180Q676 180 730 227T814 357T843 543V645Q843 810 795 934T662 1147T469 1294T241 1382L319 1580ZM434 1041L358 1149L913 1512L988 1404L434 1041Z" />
<glyph unicode="&#xf1;" horiz-adv-x="1141" d="M368 0H120V1082H353L368 851V0ZM244 579Q245 736 299 853T450 1036T676 1102Q781 1102 858 1063T978 935T1021 697V0H772V699Q772 774 751 818T687 880T583 899Q521 899 474 875T393 806T342 704T324 580L244 579ZM942
1514Q942 1441 913 1383T834 1292T720 1258Q670 1258 637 1272T575 1303T518 1334T448 1348Q410 1348 384 1320T358 1246L207 1254Q207 1327 236 1385T315 1478T429 1513Q470 1513 503 1500T567 1469T630 1438T701 1424Q739 1424 765 1452T792 1526L942 1514Z"
/>
<glyph unicode="&#xf2;" horiz-adv-x="1163" d="M77 551Q77 709 137 833T309 1029T580 1102Q740 1102 853 1030T1025 833T1085 551V530Q1085 373 1026 249T854 52T582 -20Q423 -20 310 52T137 248T77 530V551ZM325 530Q325 434 352 355T435 227T582 179Q671 179
727 227T810 354T837 530V551Q837 646 811 726T727 854T580 903Q491 903 435 855T352 726T325 551V530ZM706 1233H500L230 1536H510L706 1233Z" />
<glyph unicode="&#xf3;" horiz-adv-x="1163" d="M77 551Q77 709 137 833T309 1029T580 1102Q740 1102 853 1030T1025 833T1085 551V530Q1085 373 1026 249T854 52T582 -20Q423 -20 310 52T137 248T77 530V551ZM325 530Q325 434 352 355T435 227T582 179Q671 179
727 227T810 354T837 530V551Q837 646 811 726T727 854T580 903Q491 903 435 855T352 726T325 551V530ZM648 1536H927L653 1233H453L648 1536Z" />
<glyph unicode="&#xf4;" horiz-adv-x="1163" d="M77 551Q77 709 137 833T309 1029T580 1102Q740 1102 853 1030T1025 833T1085 551V530Q1085 373 1026 249T854 52T582 -20Q423 -20 310 52T137 248T77 530V551ZM325 530Q325 434 352 355T435 227T582 179Q671 179
727 227T810 354T837 530V551Q837 646 811 726T727 854T580 903Q491 903 435 855T352 726T325 551V530ZM928 1259V1248H729L576 1403L424 1248H228V1262L503 1536H649L928 1259Z" />
<glyph unicode="&#xf5;" horiz-adv-x="1163" d="M77 551Q77 709 137 833T309 1029T580 1102Q740 1102 853 1030T1025 833T1085 551V530Q1085 373 1026 249T854 52T582 -20Q423 -20 310 52T137 248T77 530V551ZM325 530Q325 434 352 355T435 227T582 179Q671 179
727 227T810 354T837 530V551Q837 646 811 726T727 854T580 903Q491 903 435 855T352 726T325 551V530ZM944 1514Q944 1441 915 1383T836 1292T722 1258Q672 1258 639 1272T577 1303T520 1334T450 1348Q412 1348 386 1320T360 1246L209 1254Q209 1327 238 1385T317
1478T431 1513Q472 1513 505 1500T569 1469T632 1438T703 1424Q741 1424 767 1452T794 1526L944 1514Z" />
<glyph unicode="&#xf6;" horiz-adv-x="1163" d="M77 551Q77 709 137 833T309 1029T580 1102Q740 1102 853 1030T1025 833T1085 551V530Q1085 373 1026 249T854 52T582 -20Q423 -20 310 52T137 248T77 530V551ZM325 530Q325 434 352 355T435 227T582 179Q671 179
727 227T810 354T837 530V551Q837 646 811 726T727 854T580 903Q491 903 435 855T352 726T325 551V530ZM217 1368Q217 1418 252 1452T344 1487Q402 1487 437 1453T472 1368Q472 1319 437 1285T344 1250Q287 1250 252 1284T217 1368ZM682 1367Q682 1416 716 1451T808
1486Q866 1486 901 1451T936 1367Q936 1317 901 1283T808 1249Q750 1249 716 1283T682 1367Z" />
<glyph unicode="&#xf7;" horiz-adv-x="1169" d="M1082 583H67V795H1082V583ZM434 1093Q434 1152 472 1190T577 1229Q645 1229 683 1191T722 1093Q722 1035 684 997T577 959Q510 959 472 997T434 1093ZM434 280Q434 338 472 376T577 415Q645 415 683 377T722 280Q722
222 684 184T577 146Q510 146 472 184T434 280Z" />
<glyph unicode="&#xf8;" horiz-adv-x="1159" d="M327 -139H181L844 1213H990L327 -139ZM77 551Q77 709 137 833T309 1029T580 1102Q740 1102 853 1030T1025 833T1085 551V530Q1085 373 1026 249T854 52T582 -20Q423 -20 310 52T137 248T77 530V551ZM325 530Q325
434 352 355T435 227T582 179Q671 179 727 227T810 354T837 530V551Q837 646 811 726T727 854T580 903Q491 903 435 855T352 726T325 551V530Z" />
<glyph unicode="&#xf9;" horiz-adv-x="1140" d="M771 1082H1019V0H785L771 256V1082ZM888 484Q888 338 845 225T711 46T475 -20Q315 -20 216 74T117 383V1082H365V381Q365 306 388 263T451 201T537 183Q638 183 696 222T780 330T805 482L888 484ZM701 1233H495L225
1536H505L701 1233Z" />
<glyph unicode="&#xfa;" horiz-adv-x="1140" d="M771 1082H1019V0H785L771 256V1082ZM888 484Q888 338 845 225T711 46T475 -20Q315 -20 216 74T117 383V1082H365V381Q365 306 388 263T451 201T537 183Q638 183 696 222T780 330T805 482L888 484ZM643 1536H922L648
1233H448L643 1536Z" />
<glyph unicode="&#xfb;" horiz-adv-x="1140" d="M771 1082H1019V0H785L771 256V1082ZM888 484Q888 338 845 225T711 46T475 -20Q315 -20 216 74T117 383V1082H365V381Q365 306 388 263T451 201T537 183Q638 183 696 222T780 330T805 482L888 484ZM922 1259V1248H723L570
1403L418 1248H222V1262L497 1536H643L922 1259Z" />
<glyph unicode="&#xfc;" horiz-adv-x="1140" d="M771 1082H1019V0H785L771 256V1082ZM888 484Q888 338 845 225T711 46T475 -20Q315 -20 216 74T117 383V1082H365V381Q365 306 388 263T451 201T537 183Q638 183 696 222T780 330T805 482L888 484ZM212 1368Q212
1418 247 1452T339 1487Q397 1487 432 1453T467 1368Q467 1319 432 1285T339 1250Q282 1250 247 1284T212 1368ZM677 1367Q677 1416 711 1451T803 1486Q861 1486 896 1451T931 1367Q931 1317 896 1283T803 1249Q745 1249 711 1283T677 1367Z" />
<glyph unicode="&#xfd;" horiz-adv-x="1004" d="M727 1082H992L559 -164Q544 -205 520 -252T458 -341T362 -410T223 -437Q201 -437 181 -435T141 -428T104 -419V-228Q114 -229 128 -230T151 -231Q240 -231 286 -199T357 -90L436 119L727 1082ZM530 281L574 13L402
-26L11 1082H279L530 281ZM588 1536H867L593 1233H393L588 1536Z" />
<glyph unicode="&#xfe;" horiz-adv-x="1170" d="M377 -416H128V1536H377V-416ZM1079 531Q1079 373 1031 249T888 52T659 -20Q523 -20 434 46T294 230T226 497V568Q244 728 294 847T433 1034T656 1102Q793 1102 887 1033T1030 840T1079 552V531ZM831 552Q831 649
806 728T728 853T589 899Q526 899 481 879T406 821T358 734T335 623V442Q346 370 374 310T455 215T591 179Q676 179 728 227T806 355T831 531V552Z" />
<glyph unicode="&#xff;" horiz-adv-x="1004" d="M727 1082H992L559 -164Q544 -205 520 -252T458 -341T362 -410T223 -437Q201 -437 181 -435T141 -428T104 -419V-228Q114 -229 128 -230T151 -231Q240 -231 286 -199T357 -90L436 119L727 1082ZM530 281L574 13L402
-26L11 1082H279L530 281ZM157 1368Q157 1418 192 1452T284 1487Q342 1487 377 1453T412 1368Q412 1319 377 1285T284 1250Q227 1250 192 1284T157 1368ZM622 1367Q622 1416 656 1451T748 1486Q806 1486 841 1451T876 1367Q876 1317 841 1283T748 1249Q690 1249
656 1283T622 1367Z" />
<glyph unicode="&#x2013;" horiz-adv-x="1315" d="M1433 619H412V820H1433V619Z" />
<glyph unicode="&#x2014;" horiz-adv-x="1578" d="M1741 619H380V820H1741V619Z" />
<glyph unicode="&#x2018;" horiz-adv-x="452" d="M101 1197Q101 1261 124 1329T187 1459T281 1565L405 1488Q364 1426 339 1357T313 1199V1058H101V1197Z" />
<glyph unicode="&#x2019;" horiz-adv-x="447" d="M358 1392Q358 1329 335 1261T272 1131T178 1024L54 1101Q95 1163 120 1232T146 1391V1536H358V1392Z" />
<glyph unicode="&#x201a;" horiz-adv-x="468" d="M358 71Q358 8 335 -60T272 -190T178 -296L54 -220Q95 -157 118 -88T141 70V210H358V71Z" />
<glyph unicode="&#x201c;" horiz-adv-x="790" d="M110 1197Q110 1261 133 1329T196 1459T290 1565L414 1488Q373 1426 348 1357T322 1199V1058H110V1197ZM443 1197Q443 1261 466 1329T529 1459T623 1565L747 1488Q706 1426 681 1357T655 1199V1058H443V1197Z" />
<glyph unicode="&#x201d;" horiz-adv-x="796" d="M371 1392Q371 1329 348 1261T285 1131T191 1024L67 1101Q108 1163 133 1232T159 1391V1536H371V1392ZM703 1392Q703 1329 680 1261T617 1131T523 1024L399 1101Q440 1163 465 1232T491 1391V1536H703V1392Z" />
<glyph unicode="&#x201e;" horiz-adv-x="779" d="M358 71Q358 5 336 -67T275 -204T182 -316L54 -239Q95 -173 118 -99T141 70V256H358V71ZM683 71Q683 5 660 -67T597 -204T503 -316L375 -239Q416 -173 441 -99T466 70V256H684L683 71Z" />
<glyph unicode="&#x2022;" horiz-adv-x="718" d="M137 769Q137 864 197 925T360 986Q465 986 525 925T585 769V730Q585 635 525 575T361 515Q258 515 198 575T137 730V769Z" />
<glyph unicode="&#x2039;" horiz-adv-x="629" d="M314 531L108 532V545L395 935H564L314 531ZM564 137H395L108 526V539L314 540L564 137Z" />
<glyph unicode="&#x203a;" horiz-adv-x="617" d="M334 539L539 538V525L253 136H84L334 539ZM253 934L539 544V531L334 530L84 934H253Z" />
</font>
</defs>
</svg>
