<?xml version="1.0" encoding="UTF-8"?>
<svg width="1023px" height="459px" viewBox="0 0 1023 459" version="1.1" xmlns="http://www.w3.org/2000/svg" xmlns:xlink="http://www.w3.org/1999/xlink">
    <!-- Generator: Sketch 45 (43475) - http://www.bohemiancoding.com/sketch -->
    <title>Artboard 6</title>
    <desc>Created with Sketch.</desc>
    <defs></defs>
    <g id="V3" stroke="none" stroke-width="1" fill="none" fill-rule="evenodd">
        <g id="Artboard-6">
            <g id="Page-1" transform="translate(19.000000, 39.000000)">
                <path d="M201,128 C201,86 169,50.5 127,50.5 C85,50.5 49.5,86 49.5,128 C49.5,170 85,202 127,202 C169,202 201,170 201,128 M250,128 L250,226 C250,240.5 239.5,251 225,251 C215,251 201,240.5 201,226 C179.5,244 155.5,251 127,251 C56.5,251 0.5,198.5 0.5,128 C0.5,57.5 56.5,1.5 127,1.5 C197.5,1.5 250,57.5 250,128" id="Fill-1" fill="#F37430"></path>
                <path d="M201,128 C201,86 169,50.5 127,50.5 C85,50.5 49.5,86 49.5,128 C49.5,170 85,202 127,202 C169,202 201,170 201,128 Z M250,128 L250,226 C250,240.5 239.5,251 225,251 C215,251 201,240.5 201,226 C179.5,244 155.5,251 127,251 C56.5,251 0.5,198.5 0.5,128 C0.5,57.5 56.5,1.5 127,1.5 C197.5,1.5 250,57.5 250,128 Z" id="Stroke-3" stroke="#F37430" stroke-width="7"></path>
                <path d="M430.4917,25.5 C430.4917,39 419.4917,50.5 405.4917,50.5 C363.4917,50.5 329.4917,84.5 329.4917,126.5 L329.4917,227 C329.4917,240.5 318.4917,252 304.9917,252 C290.9917,252 279.9917,240.5 279.9917,227 L279.9917,126.5 C279.9917,57 336.4917,1 405.4917,1 C419.4917,1 430.4917,12 430.4917,25.5" id="Fill-5" fill="#F37430"></path>
                <path d="M430.4917,25.5 C430.4917,39 419.4917,50.5 405.4917,50.5 C363.4917,50.5 329.4917,84.5 329.4917,126.5 L329.4917,227 C329.4917,240.5 318.4917,252 304.9917,252 C290.9917,252 279.9917,240.5 279.9917,227 L279.9917,126.5 C279.9917,57 336.4917,1 405.4917,1 C419.4917,1 430.4917,12 430.4917,25.5 Z" id="Stroke-7" stroke="#F37430" stroke-width="7"></path>
                <path d="M630.4785,126 C630.4785,84 595.9785,50 554.4785,50 C512.4785,50 478.4785,84 478.4785,126 C478.4785,167.5 512.4785,202 554.4785,202 C595.9785,202 630.4785,167.5 630.4785,126 L630.4785,126 Z M679.9785,251.5 C679.9785,320.5 623.4785,377 554.4785,377 C505.9785,377 462.9785,350 441.4785,306.5 C435.4785,294 440.4785,279.5 452.9785,273.5 C464.9785,267.5 479.9785,272.5 485.9785,284.5 C498.9785,311 524.9785,327.5 554.4785,327.5 C595.9785,327.5 629.4785,294 630.4785,253 L630.4785,225.5 C608.9785,241.5 582.9785,251.5 554.4785,251.5 C484.9785,251.5 428.9785,195 428.9785,126 C428.9785,56.5 484.9785,0.5 554.4785,0.5 C623.4785,0.5 679.9785,56.5 679.9785,126 L679.9785,251.5 Z" id="Fill-9" fill="#F37430"></path>
                <path d="M630.4785,126 C630.4785,84 595.9785,50 554.4785,50 C512.4785,50 478.4785,84 478.4785,126 C478.4785,167.5 512.4785,202 554.4785,202 C595.9785,202 630.4785,167.5 630.4785,126 Z M679.9785,251.5 C679.9785,320.5 623.4785,377 554.4785,377 C505.9785,377 462.9785,350 441.4785,306.5 C435.4785,294 440.4785,279.5 452.9785,273.5 C464.9785,267.5 479.9785,272.5 485.9785,284.5 C498.9785,311 524.9785,327.5 554.4785,327.5 C595.9785,327.5 629.4785,294 630.4785,253 L630.4785,225.5 C608.9785,241.5 582.9785,251.5 554.4785,251.5 C484.9785,251.5 428.9785,195 428.9785,126 C428.9785,56.5 484.9785,0.5 554.4785,0.5 C623.4785,0.5 679.9785,56.5 679.9785,126 L679.9785,251.5 Z" id="Stroke-11" stroke="#F37430" stroke-width="7"></path>
                <path d="M758.9653,126 C758.9653,167.5 792.9653,202 834.9653,202 C876.9653,202 910.9653,167.5 910.9653,126 C910.9653,84 876.9653,50 834.9653,50 C792.9653,50 758.9653,84 758.9653,126 M709.4653,126 C709.4653,56.5 765.9653,0.5 834.9653,0.5 C904.4653,0.5 960.4653,56.5 960.4653,126 C960.4653,195 904.4653,251.5 834.9653,251.5 C765.9653,251.5 709.4653,195 709.4653,126" id="Fill-13" fill="#F37430"></path>
                <path d="M758.9653,126 C758.9653,167.5 792.9653,202 834.9653,202 C876.9653,202 910.9653,167.5 910.9653,126 C910.9653,84 876.9653,50 834.9653,50 C792.9653,50 758.9653,84 758.9653,126 Z M709.4653,126 C709.4653,56.5 765.9653,0.5 834.9653,0.5 C904.4653,0.5 960.4653,56.5 960.4653,126 C960.4653,195 904.4653,251.5 834.9653,251.5 C765.9653,251.5 709.4653,195 709.4653,126 Z" id="Stroke-15" stroke="#F37430" stroke-width="7"></path>
            </g>
        </g>
    </g>
</svg>