<svg xmlns="http://www.w3.org/2000/svg" viewBox="0 0 512 512"><path d="M486.3 256c0-8.5-4.4-16.3-11.7-20.6L442.1 216l32.6-19.4c11.4-6.8 15.1-21.5 8.3-32.9-2-3.4-4.9-6.3-8.3-8.3L276.5 37.3c-12.6-7.5-28.3-7.5-41 0L37.4 155.4c-11.4 6.8-15.1 21.5-8.3 32.9 2 3.4 4.9 6.3 8.3 8.3L69.9 216l-32.6 19.4c-11.4 6.8-15.1 21.5-8.3 32.9 2 3.4 4.9 6.3 8.3 8.3L69.9 296l-32.6 19.4c-11.4 6.8-15.1 21.5-8.3 32.9 2 3.4 4.9 6.3 8.3 8.3l198.2 118.2c12.6 7.5 28.3 7.5 41 0l198.2-118.1c11.4-6.8 15.1-21.5 8.3-32.9-2-3.4-4.9-6.3-8.3-8.3L442.1 296l32.6-19.4c7.2-4.3 11.6-12.1 11.6-20.6zM41.7 176c0-2.8 1.5-5.4 3.9-6.9L243.7 51c7.6-4.5 17-4.5 24.6 0l198.2 118.1c3.8 2.3 5.1 7.2 2.8 11-.7 1.2-1.6 2.1-2.8 2.8l-206.3 123c-2.5 1.4-5.5 1.4-8 0l-206.5-123c-2.5-1.5-4-4.1-4-6.9zm424.7 153.1c3.8 2.3 5.1 7.2 2.8 11-.7 1.2-1.6 2.1-2.8 2.8L268.3 461c-7.6 4.5-17 4.5-24.6 0L45.6 342.9c-3.8-2.3-5.1-7.2-2.8-11 .7-1.2 1.6-2.1 2.8-2.8l40-24 149.9 89.6c12.6 7.5 28.3 7.5 41 0l150-89.4 39.9 23.8zm0-66.2L268.3 381c-7.6 4.5-17 4.5-24.6 0L45.6 262.9c-3.8-2.3-5.1-7.2-2.8-11 .7-1.2 1.6-2.1 2.8-2.8l40-24 158.1 94.5c7.6 4.5 17 4.5 24.6 0l158.2-94.3 40 24c3.8 2.3 5.1 7.2 2.8 11-.7 1.2-1.6 2.1-2.8 2.8l-.1-.2z"/></svg>