<svg xmlns="http://www.w3.org/2000/svg" width="23.489" height="28.477" viewBox="0 0 6.215 7.535"><g transform="translate(-6.903 -5.876)" pointer-events="none" fill="#8fa4b1"><ellipse ry=".502" rx=".506" cy="9.949" cx="9.928"/><path d="M10.01 5.876L6.904 7.25V9.3c0 1.902 1.325 3.679 3.108 4.11 1.78-.431 3.107-2.208 3.107-4.11V7.25zm1.646 5.518H8.364V8.631h.473v-.302c0-.65.532-1.179 1.19-1.179.656 0 1.188.528 1.188 1.18v.3h.441z"/><path d="M9.988 7.589a.712.712 0 00-.713.708v.296h1.427v-.301a.713.713 0 00-.714-.703z"/></g></svg>