<?xml version="1.0" encoding="UTF-8" standalone="no"?>
<!-- Created with Inkscape (http://www.inkscape.org/) -->

<svg
   xmlns:dc="http://purl.org/dc/elements/1.1/"
   xmlns:cc="http://creativecommons.org/ns#"
   xmlns:rdf="http://www.w3.org/1999/02/22-rdf-syntax-ns#"
   xmlns:svg="http://www.w3.org/2000/svg"
   xmlns="http://www.w3.org/2000/svg"
   xmlns:sodipodi="http://sodipodi.sourceforge.net/DTD/sodipodi-0.dtd"
   xmlns:inkscape="http://www.inkscape.org/namespaces/inkscape"
   width="9.6989269mm"
   height="9.6989279mm"
   viewBox="0 0 9.6989271 9.6989281"
   version="1.1"
   id="svg13826"
   inkscape:version="0.92.2 5c3e80d, 2017-08-06"
   sodipodi:docname="crd.svg">
  <defs
     id="defs13820" />
  <sodipodi:namedview
     id="base"
     pagecolor="#ffffff"
     bordercolor="#666666"
     borderopacity="1.0"
     inkscape:pageopacity="0.0"
     inkscape:pageshadow="2"
     inkscape:zoom="8"
     inkscape:cx="-13.914675"
     inkscape:cy="19.009343"
     inkscape:document-units="mm"
     inkscape:current-layer="layer1"
     showgrid="false"
     inkscape:window-width="480"
     inkscape:window-height="449"
     inkscape:window-x="0"
     inkscape:window-y="1"
     inkscape:window-maximized="1"
     fit-margin-top="0"
     fit-margin-left="0"
     fit-margin-right="0"
     fit-margin-bottom="0" />
  <metadata
     id="metadata13823">
    <rdf:RDF>
      <cc:Work
         rdf:about="">
        <dc:format>image/svg+xml</dc:format>
        <dc:type
           rdf:resource="http://purl.org/dc/dcmitype/StillImage" />
        <dc:title />
      </cc:Work>
    </rdf:RDF>
  </metadata>
  <g
     inkscape:label="Calque 1"
     inkscape:groupmode="layer"
     id="layer1"
     transform="translate(-5.7252738,-5.0749058)">
    <path
       style="fill:#8fa4b1;fill-opacity:1;stroke-width:0.46185368"
       inkscape:connector-curvature="0"
       d="m 14.269566,9.6934441 h -0.692781 v -1.847416 c 0,-0.5080383 -0.415668,-0.9237063 -0.923706,-0.9237063 h -1.847416 v -0.69278 c 0,-0.637359 -0.517275,-1.154636 -1.1546334,-1.154636 -0.6373578,0 -1.1546338,0.517277 -1.1546338,1.154636 v 0.69278 h -1.847416 c -0.508038,0 -0.919089,0.415668 -0.919089,0.9237063 v 1.755045 h 0.688164 c 0.688161,0 1.247005,0.5588429 1.247005,1.2470049 0,0.688162 -0.558844,1.247005 -1.247005,1.247005 h -0.692781 v 1.755045 c 0,0.508038 0.415668,0.923706 0.923706,0.923706 h 1.755045 v -0.692781 c 0,-0.688161 0.558843,-1.247005 1.2470048,-1.247005 0.6881624,0 1.2470044,0.558844 1.2470044,1.247005 v 0.692781 h 1.755045 c 0.508038,0 0.923706,-0.415668 0.923706,-0.923706 v -1.847416 h 0.692781 c 0.637358,0 1.154635,-0.517276 1.154635,-1.154634 0,-0.637358 -0.517277,-1.1546339 -1.154635,-1.1546339 z"
       id="path7415" />
  </g>
</svg>
