<svg xmlns="http://www.w3.org/2000/svg" width="39.456" height="39.228" viewBox="0 0 10.439 10.379"><path d="M6.304 0v2.143h2.203V0zm0 3.084v.546a3.461 3.461 0 012.203.198v-.744zM.02 3.117V5.26h2.203V3.117zm3.142 0V5.26h.928c.31-.52.75-.955 1.275-1.258v-.885zM0 6.234v2.143h2.203V6.234zm3.152 0v2.143h.706a3.471 3.471 0 01-.264-1.33c0-.28.037-.551.1-.813z"/><path d="M12.608 7.94a3.21 3.21 0 00-3.2 3.2c0 1.76 1.44 3.2 3.2 3.2 1.76 0 3.2-1.44 3.2-3.2 0-1.76-1.44-3.2-3.2-3.2zm1.344 4.543l-1.664-1.024V9.54h.48v1.664l1.44.864z" clip-path="url(#b)" transform="translate(-5.368 -3.96)" fill="#8fa4b1"/></svg>