<?xml version="1.0" encoding="UTF-8" standalone="no"?>
<!-- Created with Inkscape (http://www.inkscape.org/) -->

<svg
   xmlns:dc="http://purl.org/dc/elements/1.1/"
   xmlns:cc="http://creativecommons.org/ns#"
   xmlns:rdf="http://www.w3.org/1999/02/22-rdf-syntax-ns#"
   xmlns:svg="http://www.w3.org/2000/svg"
   xmlns="http://www.w3.org/2000/svg"
   xmlns:sodipodi="http://sodipodi.sourceforge.net/DTD/sodipodi-0.dtd"
   xmlns:inkscape="http://www.inkscape.org/namespaces/inkscape"
   width="18.035334mm"
   height="17.500378mm"
   viewBox="0 0 18.035334 17.500378"
   version="1.1"
   id="svg13826"
   inkscape:version="0.91 r13725"
   sodipodi:docname="cronjob.svg">
  <defs
     id="defs13820" />
  <sodipodi:namedview
     id="base"
     pagecolor="#ffffff"
     bordercolor="#666666"
     borderopacity="1.0"
     inkscape:pageopacity="0.0"
     inkscape:pageshadow="2"
     inkscape:zoom="8"
     inkscape:cx="-2.090004"
     inkscape:cy="23.752239"
     inkscape:document-units="mm"
     inkscape:current-layer="layer1"
     showgrid="false"
     inkscape:window-width="1440"
     inkscape:window-height="771"
     inkscape:window-x="106"
     inkscape:window-y="92"
     inkscape:window-maximized="0"
     fit-margin-top="0"
     fit-margin-left="0"
     fit-margin-right="0"
     fit-margin-bottom="0" />
  <metadata
     id="metadata13823">
    <rdf:RDF>
      <cc:Work
         rdf:about="">
        <dc:format>image/svg+xml</dc:format>
        <dc:type
           rdf:resource="http://purl.org/dc/dcmitype/StillImage" />
        <dc:title />
      </cc:Work>
    </rdf:RDF>
  </metadata>
  <g
     inkscape:label="Calque 1"
     inkscape:groupmode="layer"
     id="layer1"
     transform="translate(-0.99262638,-1.174181)">
    <g
       id="g70"
       transform="matrix(1.0148887,0,0,1.0148887,16.902146,-2.698726)">
      <path
         inkscape:export-ydpi="250.55"
         inkscape:export-xdpi="250.55"
         inkscape:export-filename="new.png"
         inkscape:connector-curvature="0"
         id="path3055"
         d="m -6.8492015,4.2724668 a 1.1191255,1.1099671 0 0 0 -0.4288818,0.1085303 l -5.8524037,2.7963394 a 1.1191255,1.1099671 0 0 0 -0.605524,0.7529759 l -1.443828,6.2812846 a 1.1191255,1.1099671 0 0 0 0.151943,0.851028 1.1191255,1.1099671 0 0 0 0.06362,0.08832 l 4.0508,5.036555 a 1.1191255,1.1099671 0 0 0 0.874979,0.417654 l 6.4961011,-0.0015 a 1.1191255,1.1099671 0 0 0 0.8749788,-0.416906 L 1.3818872,15.149453 A 1.1191255,1.1099671 0 0 0 1.5981986,14.210104 L 0.15212657,7.9288154 A 1.1191255,1.1099671 0 0 0 -0.45339794,7.1758396 L -6.3065496,4.3809971 A 1.1191255,1.1099671 0 0 0 -6.8492015,4.2724668 Z"
         style="fill:#326ce5;fill-opacity:1;stroke:none;stroke-width:0;stroke-miterlimit:4;stroke-dasharray:none;stroke-opacity:1" />
      <path
         id="path3054-2-9"
         d="M -6.8523435,3.8176372 A 1.1814304,1.171762 0 0 0 -7.3044284,3.932904 l -6.1787426,2.9512758 a 1.1814304,1.171762 0 0 0 -0.639206,0.794891 l -1.523915,6.6308282 a 1.1814304,1.171762 0 0 0 0.160175,0.89893 1.1814304,1.171762 0 0 0 0.06736,0.09281 l 4.276094,5.317236 a 1.1814304,1.171762 0 0 0 0.92363,0.440858 l 6.8576188,-0.0015 a 1.1814304,1.171762 0 0 0 0.9236308,-0.44011 l 4.2745966,-5.317985 a 1.1814304,1.171762 0 0 0 0.228288,-0.990993 L 0.53894439,7.6775738 A 1.1814304,1.171762 0 0 0 -0.10026101,6.8834313 L -6.2790037,3.9321555 A 1.1814304,1.171762 0 0 0 -6.8523435,3.8176372 Z m 0.00299,0.4550789 a 1.1191255,1.1099671 0 0 1 0.5426517,0.1085303 l 5.85315169,2.7948425 A 1.1191255,1.1099671 0 0 1 0.15197811,7.9290648 L 1.598051,14.21035 a 1.1191255,1.1099671 0 0 1 -0.2163123,0.939348 l -4.0493032,5.037304 a 1.1191255,1.1099671 0 0 1 -0.8749789,0.416906 l -6.4961006,0.0015 a 1.1191255,1.1099671 0 0 1 -0.874979,-0.417652 l -4.0508,-5.036554 a 1.1191255,1.1099671 0 0 1 -0.06362,-0.08832 1.1191255,1.1099671 0 0 1 -0.151942,-0.851028 l 1.443827,-6.2812853 a 1.1191255,1.1099671 0 0 1 0.605524,-0.7529758 l 5.8524036,-2.7963395 a 1.1191255,1.1099671 0 0 1 0.4288819,-0.1085303 z"
         style="color:#000000;font-style:normal;font-variant:normal;font-weight:normal;font-stretch:normal;font-size:medium;line-height:normal;font-family:Sans;-inkscape-font-specification:Sans;text-indent:0;text-align:start;text-decoration:none;text-decoration-line:none;letter-spacing:normal;word-spacing:normal;text-transform:none;writing-mode:lr-tb;direction:ltr;baseline-shift:baseline;text-anchor:start;display:inline;overflow:visible;visibility:visible;fill:#ffffff;fill-opacity:1;fill-rule:nonzero;stroke:none;stroke-width:0;stroke-miterlimit:4;stroke-dasharray:none;marker:none;enable-background:accumulate"
         inkscape:connector-curvature="0" />
    </g>
    <g
       id="g3340"
       transform="translate(-0.57788824,0.77481116)">
      <path
         sodipodi:nodetypes="cccccccsccccccccccccccccccccccscc"
         inkscape:connector-curvature="0"
         id="rect9061"
         d="m 11.672502,3.9600347 0,2.142506 2.20296,0 0,-2.142506 z m 0,3.08405 0,0.5462191 c 0.2587,-0.06122 0.52685,-0.09715 0.80357,-0.09715 0.49701,0 0.96978,0.106323 1.39939,0.2945548 l 0,-0.7436239 z m -6.2838598,0.03307 0,2.1425051 2.20297,0 0,-2.1425051 z m 3.1419301,0 0,2.1425051 0.9281098,0 C 9.7689722,8.6993308 10.208272,8.2650438 10.733542,7.9623709 l 0,-0.8852163 z m -3.1620802,3.1171223 0,2.142506 2.2029701,0 0,-2.142506 z m 3.1517501,0 0,2.142506 0.7064101,0 c -0.16935,-0.410763 -0.26458,-0.859621 -0.26458,-1.329635 0,-0.28008 0.0371,-0.551296 0.0997,-0.812871 z"
         style="opacity:1;fill:#ffffff;fill-opacity:1;fill-rule:nonzero;stroke:none;stroke-width:0.70899999;stroke-linecap:butt;stroke-linejoin:round;stroke-miterlimit:10;stroke-dasharray:1.418, 1.418;stroke-dashoffset:23.0452919;stroke-opacity:1" />
      <path
         id="path9087"
         d="m 12.608072,7.9394728 c -1.7599,0 -3.1997998,1.439912 -3.1997998,3.1998052 0,1.759893 1.4398998,3.199805 3.1997998,3.199805 1.75989,0 3.199799,-1.439912 3.199799,-3.199805 0,-1.7598932 -1.439909,-3.1998052 -3.199799,-3.1998052 z m 1.34392,4.5437232 -1.6639,-1.023938 0,-1.9198832 0.47997,0 0,1.6639002 1.43992,0.863947 z"
         clip-path="url(#b)"
         inkscape:connector-curvature="0"
         style="fill:#ffffff;fill-opacity:1;stroke-width:0.31998053" />
    </g>
  </g>
</svg>
