<svg xmlns="http://www.w3.org/2000/svg" width="40.992" height="30.592" viewBox="0 0 10.846 8.094"><g transform="translate(-4.495 -5.244)" fill="#8fa4b1"><path d="M4.495 11.296h2.908v2.042H4.495zm3.969 0h2.908v2.042H8.464zm3.968 0h2.909v2.042h-2.909zM7.614 5.244h4.608v2.041H7.614z" fill-rule="evenodd"/><g transform="rotate(45.017 -226.81 242.718)"><rect width=".652" height="2.909" x="-226.886" y="-89.589" ry="0"/><path d="M-226.553-85.826l-.515-.883-.514-.883 1.021-.004 1.022-.004-.507.887z"/></g><g transform="scale(-1 1) rotate(45.017 -236.51 219.312)"><rect ry="0" y="-89.589" x="-226.886" height="2.909" width=".652"/><path d="M-226.553-85.826l-.515-.883-.514-.883 1.021-.004 1.022-.004-.507.887z"/></g><rect transform="matrix(-.99999 -.0048 -.00804 .99997 0 0)" ry="0" y="7.883" x="-10.223" height="2.249" width=".652"/><path d="M9.802 11.032l.52-.879.52-.88-1.021-.01-1.022-.01.502.89z"/></g></svg>