<?xml version="1.0" encoding="UTF-8" standalone="no"?>
<!-- Created with Inkscape (http://www.inkscape.org/) -->

<svg
   xmlns:dc="http://purl.org/dc/elements/1.1/"
   xmlns:cc="http://creativecommons.org/ns#"
   xmlns:rdf="http://www.w3.org/1999/02/22-rdf-syntax-ns#"
   xmlns:svg="http://www.w3.org/2000/svg"
   xmlns="http://www.w3.org/2000/svg"
   xmlns:sodipodi="http://sodipodi.sourceforge.net/DTD/sodipodi-0.dtd"
   xmlns:inkscape="http://www.inkscape.org/namespaces/inkscape"
   width="9.4014111mm"
   height="9.0015297mm"
   viewBox="0 0 9.4014112 9.0015299"
   version="1.1"
   id="svg13826"
   inkscape:version="0.92.2 5c3e80d, 2017-08-06"
   sodipodi:docname="group.svg">
  <defs
     id="defs13820" />
  <sodipodi:namedview
     id="base"
     pagecolor="#ffffff"
     bordercolor="#666666"
     borderopacity="1.0"
     inkscape:pageopacity="0.0"
     inkscape:pageshadow="2"
     inkscape:zoom="8"
     inkscape:cx="-18.406078"
     inkscape:cy="17.691425"
     inkscape:document-units="mm"
     inkscape:current-layer="layer1"
     showgrid="false"
     inkscape:window-width="480"
     inkscape:window-height="449"
     inkscape:window-x="0"
     inkscape:window-y="1"
     inkscape:window-maximized="1"
     fit-margin-top="0"
     fit-margin-left="0"
     fit-margin-right="0"
     fit-margin-bottom="0" />
  <metadata
     id="metadata13823">
    <rdf:RDF>
      <cc:Work
         rdf:about="">
        <dc:format>image/svg+xml</dc:format>
        <dc:type
           rdf:resource="http://purl.org/dc/dcmitype/StillImage" />
        <dc:title />
      </cc:Work>
    </rdf:RDF>
  </metadata>
  <g
     inkscape:label="Calque 1"
     inkscape:groupmode="layer"
     id="layer1"
     transform="translate(-5.3095877,-5.4236055)">
    <path
       style="opacity:1;fill:#8fa4b1;fill-opacity:1;fill-rule:nonzero;stroke:none;stroke-width:0.20160896;stroke-linecap:butt;stroke-linejoin:round;stroke-miterlimit:10;stroke-dasharray:0.40321791, 0.20160896;stroke-dashoffset:5.01860619;stroke-opacity:1"
       d="m 6.1663577,5.4236055 c -0.47469,0 -0.85677,0.382079 -0.85677,0.856768 v 7.2877045 c 0,0.47469 0.38208,0.857057 0.85677,0.857057 h 7.6878813 c 0.474679,0 0.85676,-0.382367 0.85676,-0.857057 V 6.2803735 c 0,-0.474689 -0.382081,-0.856768 -0.85676,-0.856768 z m 2.59103,2.308032 c 0.5199394,0 0.9365204,0.419738 0.9365204,0.9396812 0,0.5199408 -0.416581,0.9396792 -0.9365204,0.9396792 -0.51994,0 -0.93968,-0.4197384 -0.93968,-0.9396792 0,-0.5199432 0.41974,-0.9396812 0.93968,-0.9396812 z m 2.5058113,0 c 0.51995,0 0.93652,0.419738 0.93652,0.9396812 0,0.5199408 -0.41657,0.9396792 -0.93652,0.9396792 -0.519941,0 -0.93968,-0.4197384 -0.93968,-0.9396792 0,-0.5199432 0.419739,-0.9396812 0.93968,-0.9396812 z M 8.7573877,10.237453 c 0.7298004,0 2.1925913,0.366497 2.1925913,1.096295 v 0.783066 H 6.5647977 v -0.783066 c 0,-0.729798 1.46279,-1.096295 2.19259,-1.096295 z m 2.5058113,0 c 0.7298,10e-7 2.19259,0.366497 2.19259,1.096295 v 0.783066 h -1.87936 v -0.783066 c 0,-0.463564 -0.25362,-0.817645 -0.616951,-1.080749 0.109621,-0.0094 0.212891,-0.01555 0.303721,-0.01555 z"
       id="rect8317"
       inkscape:connector-curvature="0" />
  </g>
</svg>
