<svg xmlns="http://www.w3.org/2000/svg" width="35.533" height="34.022" viewBox="0 0 9.401 9.002"><path d="M.857 0A.855.855 0 000 .857v7.287c0 .475.382.858.857.858h7.688a.855.855 0 00.856-.858V.857A.855.855 0 008.545 0zm2.59 2.308c.52 0 .937.42.937.94s-.416.94-.936.94a.938.938 0 110-1.88zm2.507 0c.52 0 .936.42.936.94s-.416.94-.936.94a.938.938 0 110-1.88zM3.448 4.814c.73 0 2.192.366 2.192 1.096v.783H1.255V5.91c0-.73 1.463-1.096 2.193-1.096zm2.506 0c.73 0 2.192.366 2.192 1.096v.783h-1.88V5.91c0-.463-.253-.818-.616-1.08.11-.01.213-.016.304-.016z" fill="#8fa4b1"/></svg>