<?xml version="1.0" encoding="UTF-8" standalone="no"?>
<!-- Created with Inkscape (http://www.inkscape.org/) -->

<svg
   xmlns:dc="http://purl.org/dc/elements/1.1/"
   xmlns:cc="http://creativecommons.org/ns#"
   xmlns:rdf="http://www.w3.org/1999/02/22-rdf-syntax-ns#"
   xmlns:svg="http://www.w3.org/2000/svg"
   xmlns="http://www.w3.org/2000/svg"
   xmlns:sodipodi="http://sodipodi.sourceforge.net/DTD/sodipodi-0.dtd"
   xmlns:inkscape="http://www.inkscape.org/namespaces/inkscape"
   width="9.4240112mm"
   height="9.1457119mm"
   viewBox="0 0 9.4240114 9.1457121"
   version="1.1"
   id="svg13826"
   inkscape:version="0.92.2 5c3e80d, 2017-08-06"
   sodipodi:docname="netpol.svg">
  <defs
     id="defs13820" />
  <sodipodi:namedview
     id="base"
     pagecolor="#ffffff"
     bordercolor="#666666"
     borderopacity="1.0"
     inkscape:pageopacity="0.0"
     inkscape:pageshadow="2"
     inkscape:zoom="8"
     inkscape:cx="-18.363371"
     inkscape:cy="7.9638951"
     inkscape:document-units="mm"
     inkscape:current-layer="layer1"
     showgrid="false"
     inkscape:window-width="480"
     inkscape:window-height="449"
     inkscape:window-x="0"
     inkscape:window-y="1"
     inkscape:window-maximized="1"
     fit-margin-top="0"
     fit-margin-left="0"
     fit-margin-right="0"
     fit-margin-bottom="0" />
  <metadata
     id="metadata13823">
    <rdf:RDF>
      <cc:Work
         rdf:about="">
        <dc:format>image/svg+xml</dc:format>
        <dc:type
           rdf:resource="http://purl.org/dc/dcmitype/StillImage" />
        <dc:title />
      </cc:Work>
    </rdf:RDF>
  </metadata>
  <g
     inkscape:label="Calque 1"
     inkscape:groupmode="layer"
     id="layer1"
     transform="translate(-5.2982881,-5.3515145)">
    <path
       style="fill:#8fa4b1;fill-opacity:1;stroke-width:0.4190996"
       d="m 9.489284,5.3515205 c -2.3134298,0 -4.1909959,1.877567 -4.1909959,4.1909968 0,2.3134307 1.8775661,4.1909967 4.1909959,4.1909967 0.518788,0 1.013889,-0.09837 1.472578,-0.270944 v -0.987172 c 0,-0.335904 0.274739,-0.900641 0.610641,-0.900646 v -0.915959 c 0,-0.459262 0.684616,-1.2366037 1.527425,-1.2366037 0.205882,0 0.401081,0.04145 0.580353,0.11541 -0.0027,-2.3111508 -1.879219,-4.1860848 -4.190997,-4.1860848 z m 0.8382,1.466849 1.466847,1.4668488 h -1.047748 v 1.676398 H 9.9083846 V 8.2852183 H 8.860634 Z M 8.231988,9.1234173 h 0.8382 v 1.6763997 h 1.04775 L 8.651087,12.266665 7.1842412,10.799817 H 8.23199 Z m 4.973532,1.0395637 c -0.598162,0 -1.083765,0.485603 -1.083765,1.083768 v 0.64993 c -0.238401,0 -0.433013,0.194618 -0.433013,0.433015 v 1.734515 c 0,0.238401 0.194616,0.433017 0.433013,0.433017 h 2.167531 c 0.238398,0 0.433013,-0.194616 0.433013,-0.433017 v -1.734515 c 0,-0.238397 -0.194615,-0.433015 -0.433013,-0.433015 v -0.64993 c 0,-0.598165 -0.485602,-1.083768 -1.083766,-1.083768 z m 0,0.433014 c 0.359768,0 0.649933,0.290987 0.649933,0.650754 v 0.64993 h -1.299865 v -0.64993 c 0,-0.359767 0.290167,-0.650754 0.649932,-0.650754 z"
       id="path7594"
       inkscape:connector-curvature="0"
       sodipodi:nodetypes="ssscscsscsccccccccccccccccsscsssssscssssccss" />
  </g>
</svg>
