<svg xmlns="http://www.w3.org/2000/svg" width="36.973" height="37.905" viewBox="0 0 9.782 10.029"><path d="M3.789 0L0 1.099l3.789 1.099 1.126-.327a2.863 2.863 0 011.95-.772c.182 0 .36.019.532.052l.18-.052zM0 1.52v4.03l3.154 1.747V6.06c0-.375.152-.683.385-.933l.009-2.551zm4.43.936l-.4.119.004.903c.065-.37.202-.715.396-1.022zm2.435 1.067a.439.439 0 00-.455.454v.454h.908v-.454a.438.438 0 00-.453-.454z" fill-rule="evenodd" fill="#8fa4b1"/><path d="M6.867 1.703c-1.15 0-2.082.933-2.082 2.082v1.25a.836.836 0 00-.833.833V9.2c0 .458.375.829.833.829h4.164a.832.832 0 00.833-.83v-3.33a.836.836 0 00-.833-.833v-1.25a2.083 2.083 0 00-2.082-2.082zm0 .833c.691 0 1.25.558 1.25 1.25v1.249h-2.5v-1.25c0-.69.559-1.249 1.25-1.249z" fill="#8fa4b1"/></svg>