<svg xmlns="http://www.w3.org/2000/svg" width="35.992" height="21" viewBox="0 0 9.523 5.556"><path d="M.132 1.257c0 .621 2.073 1.125 4.63 1.125 2.556 0 4.629-.504 4.629-1.125v3.042c0 .621-2.073 1.125-4.63 1.125-2.556 0-4.629-.504-4.629-1.125z" fill-rule="evenodd" fill="#8fa4b1"/><path d="M.132 1.257C.132.636 2.205.132 4.762.132c2.556 0 4.629.504 4.629 1.125S7.318 2.382 4.76 2.382c-2.556 0-4.629-.504-4.629-1.125z" fill-rule="evenodd" fill="#8fa4b1"/><path d="M9.39 1.257h0c0 .621-2.072 1.125-4.629 1.125-2.556 0-4.629-.504-4.629-1.125h0C.132.636 2.205.132 4.762.132c2.556 0 4.629.504 4.629 1.125v3.042c0 .621-2.073 1.125-4.63 1.125-2.556 0-4.629-.504-4.629-1.125V1.257" fill="none" stroke="#fff" stroke-width=".265" stroke-linejoin="round" stroke-miterlimit="10"/></svg>