<?xml version="1.0" encoding="UTF-8" standalone="no"?>
<!-- Created with Inkscape (http://www.inkscape.org/) -->

<svg
   xmlns:dc="http://purl.org/dc/elements/1.1/"
   xmlns:cc="http://creativecommons.org/ns#"
   xmlns:rdf="http://www.w3.org/1999/02/22-rdf-syntax-ns#"
   xmlns:svg="http://www.w3.org/2000/svg"
   xmlns="http://www.w3.org/2000/svg"
   xmlns:sodipodi="http://sodipodi.sourceforge.net/DTD/sodipodi-0.dtd"
   xmlns:inkscape="http://www.inkscape.org/namespaces/inkscape"
   width="9.522913mm"
   height="5.5562496mm"
   viewBox="0 0 9.5229132 5.5562497"
   version="1.1"
   id="svg13826"
   inkscape:version="0.92.2 5c3e80d, 2017-08-06"
   sodipodi:docname="pv.svg">
  <defs
     id="defs13820" />
  <sodipodi:namedview
     id="base"
     pagecolor="#ffffff"
     bordercolor="#666666"
     borderopacity="1.0"
     inkscape:pageopacity="0.0"
     inkscape:pageshadow="2"
     inkscape:zoom="8"
     inkscape:cx="-28.176469"
     inkscape:cy="6.1806588"
     inkscape:document-units="mm"
     inkscape:current-layer="layer1"
     showgrid="false"
     inkscape:window-width="1680"
     inkscape:window-height="912"
     inkscape:window-x="0"
     inkscape:window-y="1"
     inkscape:window-maximized="1"
     fit-margin-top="0"
     fit-margin-left="0"
     fit-margin-right="0"
     fit-margin-bottom="0" />
  <metadata
     id="metadata13823">
    <rdf:RDF>
      <cc:Work
         rdf:about="">
        <dc:format>image/svg+xml</dc:format>
        <dc:type
           rdf:resource="http://purl.org/dc/dcmitype/StillImage" />
        <dc:title />
      </cc:Work>
    </rdf:RDF>
  </metadata>
  <g
     inkscape:label="Calque 1"
     inkscape:groupmode="layer"
     id="layer1"
     transform="translate(-5.2488369,-7.1462453)">
    <g
       id="g3341"
       transform="translate(-0.18983289,0.49258906)">
      <path
         style="fill:#8fa4b1;fill-rule:evenodd;stroke:none;stroke-width:0.26458332;stroke-linecap:square;stroke-miterlimit:10"
         inkscape:connector-curvature="0"
         d="m 5.5709614,7.9105849 v 0 c 0,0.621121 2.0725401,1.124639 4.6291706,1.124639 2.556609,0 4.629159,-0.503518 4.629159,-1.124639 v 3.0423911 c 0,0.62112 -2.07255,1.124638 -4.629159,1.124638 -2.5566305,0 -4.6291706,-0.503518 -4.6291706,-1.124638 z"
         id="path1114" />
      <path
         style="fill:#8fa4b1;fill-opacity:1;fill-rule:evenodd;stroke:none;stroke-width:0.26458332;stroke-linecap:square;stroke-miterlimit:10"
         inkscape:connector-curvature="0"
         d="m 5.5709614,7.9105849 v 0 c 0,-0.621119 2.0725401,-1.124637 4.6291706,-1.124637 2.556609,0 4.629159,0.503518 4.629159,1.124637 v 0 c 0,0.621121 -2.07255,1.124639 -4.629159,1.124639 -2.5566305,0 -4.6291706,-0.503518 -4.6291706,-1.124639 z"
         id="path1116" />
      <path
         style="fill:none;fill-rule:evenodd;stroke:#326ce5;stroke-width:0.26458332;stroke-linecap:butt;stroke-linejoin:round;stroke-miterlimit:10;stroke-opacity:1"
         inkscape:connector-curvature="0"
         d="m 14.829291,7.9105849 v 0 c 0,0.621121 -2.07255,1.124639 -4.629159,1.124639 -2.5566205,0 -4.6291706,-0.503518 -4.6291706,-1.124639 v 0 c 0,-0.621119 2.0725501,-1.124637 4.6291706,-1.124637 2.556609,0 4.629159,0.503518 4.629159,1.124637 v 3.0423911 c 0,0.62112 -2.07255,1.124638 -4.629159,1.124638 -2.5566205,0 -4.6291706,-0.503518 -4.6291706,-1.124638 V 7.9105849"
         id="path1120" />
    </g>
  </g>
</svg>
