<svg xmlns="http://www.w3.org/2000/svg" width="38.578" height="42.433" viewBox="0 0 10.207 11.227"><path d="M2.956 0c-.009 0-.316.115-.682.255l-.697.267c-.017.006-.032.018-.032.026 0 .007.073.204.163.437.089.233.16.431.158.442-.002.012-.083.049-.248.112a1.463 1.463 0 00-.242.105c.005.017 1.66.756 1.686.753.017-.002.1-.177.395-.839.205-.46.373-.843.373-.852 0-.008-.005-.014-.01-.012-.202.081-.49.184-.5.18a4.753 4.753 0 01-.183-.44C3.03.154 2.967 0 2.956 0zm2.15 2.216A5.105 5.105 0 00.253 5.723 5.178 5.178 0 00.07 8.17a5.113 5.113 0 001.753 3.058c.003 0 .238-.232.522-.516.29-.29.521-.531.528-.55.03-.081-.037-.23-.161-.353-.128-.128-.264-.19-.35-.162-.024.007-.126.1-.28.254-.132.133-.25.242-.26.242-.023 0-.151-.156-.284-.346A4.328 4.328 0 01.881 8.34c-.042-.173-.097-.5-.089-.525.004-.01.09-.014.374-.014.4 0 .422-.003.47-.063.048-.062.074-.154.08-.289a.563.563 0 00-.062-.325c-.05-.085-.048-.084-.475-.085-.208 0-.385-.005-.395-.01-.014-.01-.014-.035.004-.192A4.39 4.39 0 011.48 4.92c.085-.128.24-.329.253-.329.007 0 .15.136.316.302l.303.302.062-.007c.176-.018.406-.228.455-.416a.264.264 0 00.008-.094c-.005-.025-.088-.116-.308-.337-.273-.274-.3-.304-.284-.322.052-.063.37-.295.578-.422.52-.315 1.222-.553 1.759-.594l.095-.007.004.447.003.446.048.045c.137.128.512.132.657.007l.045-.04.006-.448.006-.448.092.002c.113.002.386.048.594.101a4.323 4.323 0 011.644.82.47.47 0 01.11.108c0 .01-.134.152-.297.316l-.297.297v.066c.002.199.272.469.47.47h.066l.297-.296c.164-.164.303-.298.31-.298.007 0 .055.057.107.127.4.536.683 1.186.797 1.835.04.224.061.45.046.469-.011.013-.084.016-.403.016h-.39l-.034.028c-.074.062-.128.26-.112.409a.48.48 0 00.098.27l.044.048.393.004c.39.003.393.003.393.027a4.352 4.352 0 01-.761 1.994c-.135.19-.245.323-.266.323-.01 0-.126-.109-.26-.242-.272-.274-.282-.28-.387-.25-.188.055-.393.281-.41.453l-.007.062.456.464c.583.595.59.602.618.588a5.077 5.077 0 001.278-1.628 5.108 5.108 0 00.373-3.54 5.127 5.127 0 00-1.58-2.567 5.09 5.09 0 00-3.362-1.266zm-.965 2.107c-.202.001-.43.118-.496.253-.022.046-.024.059-.013.097.008.024.216.565.464 1.201l.45 1.157-.041.083a.658.658 0 00.126.773.66.66 0 00.852.08.67.67 0 00.138-.975c-.081-.1-.168-.158-.338-.227-.026-.01-.079-.14-.483-1.182a78.727 78.727 0 00-.47-1.195c-.03-.048-.082-.066-.189-.065z" fill="#8fa4b1"/><path d="M1.664 11.07c-.198-.169-.597-.637-.8-.937a5.562 5.562 0 01-.767-1.9c-.094-.475-.086-1.43.016-1.91.415-1.944 1.834-3.44 3.724-3.926a5.085 5.085 0 014.12.71c.375.25 1.02.874 1.269 1.229.965 1.377 1.218 3.041.698 4.6a4.96 4.96 0 01-1.175 1.917l-.352.366-.523-.522c-.306-.305-.523-.55-.523-.589 0-.165.278-.445.443-.445.035 0 .18.113.323.251.302.294.278.3.568-.123.373-.54.63-1.19.73-1.848l.024-.15h-.816l-.058-.111c-.067-.13-.056-.484.018-.574.038-.045.125-.056.448-.056h.401v-.137c0-.356-.203-1.082-.43-1.538-.12-.24-.48-.794-.515-.794-.013 0-.161.137-.33.304-.269.268-.316.302-.398.282-.142-.036-.368-.259-.391-.387-.019-.102.005-.138.279-.428.346-.368.35-.327-.07-.618-.53-.366-1.311-.67-1.87-.727l-.215-.022-.02.45c-.016.33-.036.466-.074.504-.079.078-.371.095-.526.03l-.131-.055v-.92h-.133c-.344.002-1.165.26-1.594.5-.268.15-.743.49-.743.533 0 .018.136.172.302.342.271.278.299.318.277.406-.032.127-.258.353-.386.385-.09.023-.127-.003-.407-.282-.178-.177-.324-.296-.347-.282-.062.039-.37.509-.494.755-.227.449-.51 1.49-.448 1.65.015.038.107.05.406.05.426 0 .473.019.516.214a.894.894 0 010 .264c-.034.229-.102.262-.538.262-.421 0-.404-.024-.31.425a4.55 4.55 0 00.895 1.866l.068.086.282-.253c.162-.147.313-.254.356-.254.096 0 .336.216.392.352.042.1.036.114-.134.309-.098.112-.334.357-.524.545l-.347.342-.165-.14z" fill="#8fa4b1"/></svg>