<svg xmlns="http://www.w3.org/2000/svg" width="39.042" height="34.232" viewBox="0 0 10.33 9.057"><g transform="translate(-4.718 -5.256)"><ellipse pointer-events="none" ry=".502" rx=".506" cy="9.949" cx="9.928" fill="#8fa4b1"/><path pointer-events="none" d="M9.99 5.876L6.88 7.25V9.3c0 1.902 1.325 3.679 3.108 4.11 1.78-.431 3.107-2.208 3.107-4.11V7.25zm1.644 5.518H8.343V8.631h.472v-.302c0-.65.532-1.179 1.19-1.179.657 0 1.189.528 1.189 1.18v.3h.44z" fill="#8fa4b1"/><path pointer-events="none" d="M9.988 7.589a.712.712 0 00-.713.708v.296h1.427v-.301a.713.713 0 00-.714-.703z" fill="#8fa4b1"/><path fill="none" stroke="#8fa4b1" stroke-width=".4" stroke-linejoin="round" stroke-miterlimit="10" stroke-dasharray=".80000001,.4" stroke-dashoffset="4" d="M4.918 5.456h9.93v8.657h-9.93z"/></g></svg>