<svg xmlns="http://www.w3.org/2000/svg" width="30.545" height="37.339" viewBox="0 0 8.082 9.879"><path pointer-events="none" d="M4.042 0L0 1.796v2.695c0 2.491 1.725 4.822 4.042 5.388 2.316-.566 4.04-2.897 4.04-5.388V1.796zm0 1.903a1.293 1.293 0 11-.001 2.589 1.293 1.293 0 010-2.59zM6.465 7.25c0 .032-.01.063-.028.09-.029.044-.058.09-.09.131a4.5 4.5 0 01-2.305 1.654 4.497 4.497 0 01-2.307-1.654c-.033-.042-.062-.087-.09-.13a.165.165 0 01-.028-.091v-.718c0-.991 1.616-1.49 2.425-1.49.808 0 2.423.499 2.423 1.49z" fill="#8fa4b1"/></svg>