<?xml version="1.0" encoding="UTF-8" standalone="no"?>
<!-- Created with Inkscape (http://www.inkscape.org/) -->

<svg
   xmlns:dc="http://purl.org/dc/elements/1.1/"
   xmlns:cc="http://creativecommons.org/ns#"
   xmlns:rdf="http://www.w3.org/1999/02/22-rdf-syntax-ns#"
   xmlns:svg="http://www.w3.org/2000/svg"
   xmlns="http://www.w3.org/2000/svg"
   xmlns:sodipodi="http://sodipodi.sourceforge.net/DTD/sodipodi-0.dtd"
   xmlns:inkscape="http://www.inkscape.org/namespaces/inkscape"
   width="8.0815849mm"
   height="9.8792915mm"
   viewBox="0 0 8.0815851 9.8792917"
   version="1.1"
   id="svg13826"
   inkscape:version="0.92.2 5c3e80d, 2017-08-06"
   sodipodi:docname="sa.svg">
  <defs
     id="defs13820" />
  <sodipodi:namedview
     id="base"
     pagecolor="#ffffff"
     bordercolor="#666666"
     borderopacity="1.0"
     inkscape:pageopacity="0.0"
     inkscape:pageshadow="2"
     inkscape:zoom="8"
     inkscape:cx="-20.900239"
     inkscape:cy="19.350188"
     inkscape:document-units="mm"
     inkscape:current-layer="layer1"
     showgrid="false"
     inkscape:window-width="480"
     inkscape:window-height="449"
     inkscape:window-x="0"
     inkscape:window-y="1"
     inkscape:window-maximized="1"
     fit-margin-top="0"
     fit-margin-left="0"
     fit-margin-right="0"
     fit-margin-bottom="0" />
  <metadata
     id="metadata13823">
    <rdf:RDF>
      <cc:Work
         rdf:about="">
        <dc:format>image/svg+xml</dc:format>
        <dc:type
           rdf:resource="http://purl.org/dc/dcmitype/StillImage" />
        <dc:title />
      </cc:Work>
    </rdf:RDF>
  </metadata>
  <g
     inkscape:label="Calque 1"
     inkscape:groupmode="layer"
     id="layer1"
     transform="translate(-5.969501,-4.984724)">
    <path
       id="path7707"
       pointer-events="none"
       d="m 10.011101,4.984724 -4.0416,1.7960879 v 2.694944 c 0,2.4912431 1.7249582,4.8224371 4.0416,5.3882601 2.316646,-0.565823 4.039985,-2.897017 4.039985,-5.3882601 v -2.694944 z m 0,1.9027893 c 0.522179,0 0.994236,0.315246 1.193084,0.7986194 0.200461,0.4833734 0.09053,1.0394998 -0.279679,1.4097132 -0.370214,0.368594 -0.9263352,0.48014 -1.4097136,0.279679 C 9.033038,9.1750579 8.7177916,8.7046135 8.7177916,8.1808221 c 0,-0.7145504 0.5787584,-1.2933088 1.2933094,-1.2933088 z m 2.423347,5.3478427 c 0,0.03232 -0.0097,0.06305 -0.0275,0.09053 -0.02908,0.04363 -0.05817,0.08892 -0.09053,0.130946 -0.570675,0.78569 -1.378991,1.366061 -2.305331,1.653824 -0.927947,-0.287763 -1.7362694,-0.868134 -2.3069438,-1.653824 -0.03232,-0.04204 -0.06143,-0.0873 -0.09053,-0.130946 -0.01778,-0.0275 -0.0275,-0.05817 -0.0275,-0.09053 v -0.717789 c 0,-0.990996 1.6166448,-1.490538 2.4249618,-1.490538 0.808323,0 2.423348,0.499542 2.423348,1.490538 z"
       inkscape:connector-curvature="0"
       style="fill:#8fa4b1;fill-opacity:1;stroke:none;stroke-width:0.16166396" />
  </g>
</svg>
