<?xml version="1.0" encoding="UTF-8" standalone="no"?>
<!-- Created with Inkscape (http://www.inkscape.org/) -->

<svg
   xmlns:dc="http://purl.org/dc/elements/1.1/"
   xmlns:cc="http://creativecommons.org/ns#"
   xmlns:rdf="http://www.w3.org/1999/02/22-rdf-syntax-ns#"
   xmlns:svg="http://www.w3.org/2000/svg"
   xmlns="http://www.w3.org/2000/svg"
   xmlns:sodipodi="http://sodipodi.sourceforge.net/DTD/sodipodi-0.dtd"
   xmlns:inkscape="http://www.inkscape.org/namespaces/inkscape"
   width="9.815587mm"
   height="9.3665543mm"
   viewBox="0 0 9.8155872 9.3665544"
   version="1.1"
   id="svg13826"
   inkscape:version="0.92.2 5c3e80d, 2017-08-06"
   sodipodi:docname="sc.svg">
  <defs
     id="defs13820" />
  <sodipodi:namedview
     id="base"
     pagecolor="#8FA4B1"
     bordercolor="#666666"
     borderopacity="1.0"
     inkscape:pageopacity="0.0"
     inkscape:pageshadow="2"
     inkscape:zoom="8.01"
     inkscape:cx="-12.532244"
     inkscape:cy="9.8664541"
     inkscape:document-units="mm"
     inkscape:current-layer="g3347"
     showgrid="false"
     inkscape:window-width="480"
     inkscape:window-height="449"
     inkscape:window-x="0"
     inkscape:window-y="1"
     inkscape:window-maximized="1"
     fit-margin-top="0"
     fit-margin-left="0"
     fit-margin-right="0"
     fit-margin-bottom="0" />
  <metadata
     id="metadata13823">
    <rdf:RDF>
      <cc:Work
         rdf:about="">
        <dc:format>image/svg+xml</dc:format>
        <dc:type
           rdf:resource="http://purl.org/dc/dcmitype/StillImage" />
        <dc:title />
      </cc:Work>
    </rdf:RDF>
  </metadata>
  <g
     inkscape:label="Calque 1"
     inkscape:groupmode="layer"
     id="layer1"
     transform="translate(-5.1044889,-4.9796278)">
    <path
       style="fill:#ffffff;fill-opacity:1;fill-rule:evenodd;stroke:none;stroke-width:0.20757428;stroke-linecap:square;stroke-miterlimit:10"
       inkscape:connector-curvature="0"
       d="m 5.4198595,10.526751 v 0 c 0,0.376676 2.10346,0.682033 4.6982195,0.682033 2.594751,0 4.69821,-0.305357 4.69821,-0.682033 v 1.845045 c 0,0.376674 -2.103459,0.68203 -4.69821,0.68203 -2.5947595,0 -4.6982195,-0.305356 -4.6982195,-0.68203 z"
       id="path6473" />
    <path
       style="fill:none;fill-opacity:1;fill-rule:evenodd;stroke:none;stroke-width:0.20757428;stroke-linecap:square;stroke-miterlimit:10"
       inkscape:connector-curvature="0"
       d="m 5.4198595,10.526751 v 0 c 0,-0.376674 2.10346,-0.6820334 4.6982195,-0.6820334 2.594751,0 4.69821,0.3053594 4.69821,0.6820334 v 0 c 0,0.376676 -2.103459,0.682033 -4.69821,0.682033 -2.5947595,0 -4.6982195,-0.305357 -4.6982195,-0.682033 z"
       id="path6475" />
    <path
       style="fill:#8fa4b1;fill-opacity:1;fill-rule:evenodd;stroke:#eeeeee;stroke-width:0.20757429;stroke-linecap:square;stroke-miterlimit:10;stroke-opacity:1"
       inkscape:connector-curvature="0"
       d="m 5.4198595,8.6089656 v 0 c 0,0.376676 2.10346,0.6820319 4.6982195,0.6820319 2.594751,0 4.69821,-0.3053559 4.69821,-0.6820319 v 1.8450454 c 0,0.376674 -2.103459,0.68203 -4.69821,0.68203 -2.5947595,0 -4.6982195,-0.305356 -4.6982195,-0.68203 z"
       id="path6479" />
    <path
       style="fill:#ffffff;fill-opacity:1;fill-rule:evenodd;stroke:none;stroke-width:0.20757428;stroke-linecap:square;stroke-miterlimit:10"
       inkscape:connector-curvature="0"
       d="m 5.4198595,8.2170433 v 0 c 0,-0.376675 2.10346,-0.6820325 4.6982195,-0.6820325 2.594751,0 4.69821,0.3053575 4.69821,0.6820325 v 0 c 0,0.376676 -2.103459,0.6820319 -4.69821,0.6820319 -2.5947595,0 -4.6982195,-0.3053559 -4.6982195,-0.6820319 z"
       id="path6481" />
    <path
       id="path6487"
       d="m 5.4199585,5.6616598 v 0 c 0,-0.376674 2.103456,-0.682032 4.6982235,-0.682032 2.594746,0 4.698212,0.305358 4.698212,0.682032 v 0 c 0,0.376676 -2.103466,0.682032 -4.698212,0.682032 -2.5947675,0 -4.6982235,-0.305356 -4.6982235,-0.682032 z"
       inkscape:connector-curvature="0"
       style="fill:none;fill-opacity:1;fill-rule:evenodd;stroke:none;stroke-width:0.20757428;stroke-linecap:square;stroke-miterlimit:10" />
    <g
       id="g3347"
       transform="translate(-0.10787059,0.73050426)">
      <path
         style="fill:none;fill-opacity:1;fill-rule:evenodd;stroke:none;stroke-width:0.20757428;stroke-linecap:square;stroke-miterlimit:10"
         inkscape:connector-curvature="0"
         d="m 5.4199585,5.6616598 v 0 c 0,0.376676 2.103456,0.682032 4.6982235,0.682032 2.594746,0 4.698212,-0.305356 4.698212,-0.682032 v 1.845045 c 0,0.3766745 -2.103466,0.6820305 -4.698212,0.6820305 -2.5947675,0 -4.6982235,-0.305356 -4.6982235,-0.6820305 z"
         id="path6485" />
      <g
         id="g3348">
        <path
           style="fill:none;fill-rule:evenodd;stroke:#8fa4b1;stroke-width:0.41499999;stroke-linecap:butt;stroke-linejoin:round;stroke-miterlimit:10;stroke-dasharray:1.66000002, 0.415;stroke-dashoffset:0;stroke-opacity:1"
           inkscape:connector-curvature="0"
           d="m 14.816289,10.881103 v 0 c 0,0.376676 -2.103459,0.682033 -4.69821,0.682033 -2.5947495,0 -4.6982195,-0.305357 -4.6982195,-0.682033 v 0 c 0,-0.376675 2.10347,-0.682031 4.6982195,-0.682031 2.594751,0 4.69821,0.305356 4.69821,0.682031 v 1.845046 c 0,0.376673 -2.103459,0.682029 -4.69821,0.682029 -2.5947495,0 -4.6982195,-0.305356 -4.6982195,-0.682029 v -1.845046"
           id="path6477" />
        <path
           style="fill:none;fill-rule:evenodd;stroke:#8fa4b1;stroke-width:0.41499999;stroke-linecap:butt;stroke-linejoin:round;stroke-miterlimit:10;stroke-dasharray:none;stroke-opacity:1"
           inkscape:connector-curvature="0"
           d="m 14.816289,7.8640013 v 0 c 0,0.376676 -2.103459,0.6820319 -4.69821,0.6820319 -2.5947495,0 -4.6982195,-0.3053559 -4.6982195,-0.6820319 v 0 c 0,-0.376675 2.10347,-0.6820325 4.6982195,-0.6820325 2.594751,0 4.69821,0.3053575 4.69821,0.6820325 V 9.709047 c 0,0.376674 -2.103459,0.68203 -4.69821,0.68203 -2.5947495,0 -4.6982195,-0.305356 -4.6982195,-0.68203 V 7.8640013"
           id="path6483" />
        <path
           id="path6489"
           d="m 14.816394,5.6616598 v 0 c 0,0.376676 -2.103466,0.682032 -4.698212,0.682032 -2.5947575,0 -4.6982235,-0.305356 -4.6982235,-0.682032 v 0 c 0,-0.376674 2.103466,-0.682032 4.6982235,-0.682032 2.594746,0 4.698212,0.305358 4.698212,0.682032 v 1.845045 c 0,0.3766745 -2.103466,0.6820305 -4.698212,0.6820305 -2.5947575,0 -4.6982235,-0.305356 -4.6982235,-0.6820305 v -1.845045"
           inkscape:connector-curvature="0"
           style="fill:none;fill-rule:evenodd;stroke:#8fa4b1;stroke-width:0.41514859;stroke-linecap:butt;stroke-linejoin:round;stroke-miterlimit:10;stroke-dasharray:1.66059433, 0.41514858;stroke-dashoffset:0;stroke-opacity:1" />
      </g>
    </g>
  </g>
</svg>
