<svg xmlns="http://www.w3.org/2000/svg" width="37.098" height="35.401" viewBox="0 0 9.816 9.367"><path d="M.315 5.547c0 .377 2.104.682 4.699.682 2.594 0 4.698-.305 4.698-.682v1.845c0 .377-2.104.682-4.698.682-2.595 0-4.699-.305-4.699-.682z" fill="#fff" fill-rule="evenodd"/><path d="M.315 5.547c0-.377 2.104-.682 4.699-.682 2.594 0 4.698.305 4.698.682 0 .377-2.104.682-4.698.682-2.595 0-4.699-.305-4.699-.682z" fill="none"/><path d="M.315 3.63h0c0 .376 2.104.681 4.699.681 2.594 0 4.698-.305 4.698-.682v1.845c0 .377-2.104.682-4.698.682-2.595 0-4.699-.305-4.699-.682z" fill-rule="evenodd" stroke="#eee" stroke-width=".208" stroke-linecap="square" stroke-miterlimit="10"/><path d="M.315 3.237c0-.376 2.104-.682 4.699-.682 2.594 0 4.698.306 4.698.682 0 .377-2.104.682-4.698.682-2.595 0-4.699-.305-4.699-.682z" fill="#fff" fill-rule="evenodd"/><path d="M.315.682C.315.305 2.42 0 5.014 0s4.698.305 4.698.682c0 .377-2.104.682-4.698.682C2.419 1.364.315 1.06.315.682z" fill="none"/><g fill="none"><path d="M.208 1.413c0 .376 2.103.682 4.698.682s4.698-.306 4.698-.682v1.845c0 .376-2.103.682-4.698.682S.208 3.634.208 3.258z"/><g stroke="#8fa4b1" stroke-width=".415" stroke-linejoin="round" stroke-miterlimit="10"><path d="M9.604 6.632h0c0 .377-2.104.682-4.698.682-2.595 0-4.698-.305-4.698-.682h0c0-.377 2.103-.682 4.698-.682 2.594 0 4.698.305 4.698.682v1.845c0 .377-2.104.682-4.698.682-2.595 0-4.698-.305-4.698-.682V6.632" stroke-dasharray="1.66000002,.415"/><path d="M9.604 3.615h0c0 .377-2.104.682-4.698.682-2.595 0-4.698-.305-4.698-.682h0c0-.377 2.103-.682 4.698-.682 2.594 0 4.698.305 4.698.682V5.46c0 .377-2.104.682-4.698.682-2.595 0-4.698-.305-4.698-.682V3.615" fill="#8fa4b1"/><path d="M9.604 1.413h0c0 .376-2.103.682-4.698.682S.208 1.789.208 1.413h0C.208 1.036 2.31.73 4.906.73s4.698.305 4.698.682v1.845c0 .376-2.103.682-4.698.682S.208 3.634.208 3.258V1.413" stroke-dasharray="1.66059433,.41514858"/></g></g></svg>