<svg xmlns="http://www.w3.org/2000/svg" width="38.293" height="29.991" viewBox="0 0 10.132 7.935"><path d="M3.342.265h6.525v4.583H3.342z" fill="none" stroke="#8fa4b1" stroke-width=".529" stroke-linecap="square" stroke-linejoin="round" stroke-miterlimit="10" stroke-dasharray="1.58743761,1.58743761" stroke-dashoffset="3.667"/><path d="M1.803 1.676h6.525v4.583H1.803z" fill="#fff" fill-rule="evenodd" stroke="#8fa4b1" stroke-width=".529" stroke-linecap="square" stroke-linejoin="round" stroke-miterlimit="10" stroke-dasharray="1.58743761,1.58743761" stroke-dashoffset="3.879"/><path d="M.265 3.087H6.79v4.584H.265z" fill-rule="evenodd" fill="#8fa4b1"/><path d="M.265 3.087H6.79v4.584H.265z" fill="none" stroke="#8fa4b1" stroke-width=".529" stroke-linejoin="round" stroke-miterlimit="10"/><path d="M.798 4.362c0-.43 1.222-.778 2.729-.778 1.507 0 2.73.348 2.73.778 0 .429-1.223.777-2.73.777s-2.73-.348-2.73-.777z" fill-rule="evenodd" fill="#8fa4b1"/><path d="M6.256 4.362c0 .429-1.222.777-2.73.777-1.506 0-2.728-.348-2.728-.777 0-.43 1.222-.778 2.729-.778 1.507 0 2.73.348 2.73.778v2.103c0 .43-1.223.777-2.73.777s-2.73-.348-2.73-.777V4.362" fill="none"/><path d="M6.256 4.362h0c0 .429-1.222.777-2.73.777-1.506 0-2.728-.348-2.728-.777h0c0-.43 1.222-.778 2.729-.778 1.507 0 2.73.348 2.73.778v2.103c0 .43-1.223.777-2.73.777s-2.73-.348-2.73-.777V4.362" fill="none" stroke="#fff" stroke-width=".529" stroke-linejoin="round" stroke-miterlimit="10"/></svg>