<svg xmlns="http://www.w3.org/2000/svg" width="34.992" height="20" viewBox="0 0 9.258 5.292"><path d="M0 1.125c0 .62 2.073 1.124 4.63 1.124 2.556 0 4.628-.503 4.628-1.124v3.042c0 .621-2.072 1.125-4.629 1.125C2.073 5.292 0 4.788 0 4.167z" fill-rule="evenodd" fill="#8fa4b1"/><path d="M0 1.125C0 .504 2.073 0 4.63 0c2.556 0 4.628.504 4.628 1.125 0 .62-2.072 1.124-4.629 1.124C2.073 2.25 0 1.746 0 1.125z" fill-rule="evenodd" fill="#8fa4b1"/><path d="M9.258 1.125c0 .62-2.072 1.124-4.629 1.124C2.073 2.25 0 1.746 0 1.125 0 .504 2.073 0 4.63 0c2.556 0 4.628.504 4.628 1.125v3.042c0 .621-2.072 1.125-4.629 1.125C2.073 5.292 0 4.788 0 4.167V1.125" fill="none" stroke="#fff" stroke-width=".265"/></svg>