<!--
From: https://github.com/cncf/artwork/blob/3e6dbd6b9f3fd3b03e848c10a9921ccc5b5dabf7/projects/crossplane/icon/white/crossplane-icon-white.svg
Only modified to set the fill color to #8fa4b1.
-->
<svg id="Layer_1" data-name="Layer 1" xmlns="http://www.w3.org/2000/svg" viewBox="0 0 900 900"><defs><style>.cls-1{fill:#8fa4b1;}</style></defs><path class="cls-1" d="M471.22288,669.71789V790.45608c0,16.82419-10.9559,30.52608-24.40691,30.52608-13.46492,0-24.40692-13.68794-24.40692-30.52608V669.71789h48.81383M493.58075,647.36H400.03724V790.45608c0,29.21583,20.93612,52.88395,46.76478,52.88395,25.84261,0,46.76477-23.66812,46.76477-52.88395V647.36Z"/><path class="cls-1" d="M588.56,154.07853a163.28343,163.28343,0,0,1,25.82871,81.41674c.11153,2.53688.18121,5.12948.18121,7.70818,0,2.53688-.06968,5.17131-.19517,7.8615l-.05572,1.10116.05572,1.10116c.04186.64119.08363,1.26844.12549,1.90961.05573.8642.12549,1.68661.12549,2.17446v87.68922L323.736,635.93012a85.29961,85.29961,0,0,1-40.19959-72.39831V459.102L588.56,154.07853m2.2999-32.04539L262.50273,450.40425V563.5458c0,43.9631,27.01347,81.91853,65.24768,98.10154L635.64534,353.75239V257.36533c0-1.78417-.18122-3.51259-.2788-5.26888.13936-2.955.223-5.91007.223-8.893q0-4.36982-.19517-8.67a185.61592,185.61592,0,0,0-44.53447-112.50037Z"/><path class="cls-1" d="M449.04619,56.66c-100.12264,0-181.83209,78.86594-186.3483,177.87349q-.18816,4.3071-.19516,8.67c0,3.192.06967,6.3561.237,9.50629-.06968,1.56115-.237,3.0805-.237,4.65557V450.32058L590.832,121.99132A186.13267,186.13267,0,0,0,449.04619,56.66Z"/><path class="cls-1" d="M368.95361,669.99664H529.1805c58.55706,0,106.46484-47.90777,106.46484-106.45088V353.04148L327.26255,661.42427A105.43227,105.43227,0,0,0,368.95361,669.99664Z"/></svg>