<!--
From: https://github.com/cncf/artwork/blob/3e6dbd6b9f3fd3b03e848c10a9921ccc5b5dabf7/projects/keycloak/icon/white/keycloak-icon-white.svg
Only modified to set the fill color to #8fa4b1.
-->
<svg xmlns="http://www.w3.org/2000/svg" width="167.117" height="150.656" viewBox="0 0 44.216 39.861"><path d="m117.344 128.588-23.017.003-5.716 9.865-5.796 10.065 5.737 9.962 5.782 9.965 23.011-.008 5.69-9.956h3.976v-.004h.02l-.007-19.93h-3.995zm-19.188 6.65h3.835l-.001.002 1.917 3.315-5.75 9.973 5.743 9.954-1.909 3.332.002.003h-3.837l-5.754-9.966-1.925-3.307 1.952-3.386zm11.499.002 3.842.003 5.754 9.962v.003l1.921 3.341-7.677 13.266h-3.83v-.001c-.706-1.036-1.914-3.33-1.914-3.33l5.753-9.958-5.754-9.973z" style="display:inline;fill:#8fa4b1;fill-opacity:1;stroke-width:.264583" transform="translate(-82.815 -128.588)"/></svg>