<?xml version="1.0" encoding="UTF-8"?>
<!--
From: https://github.com/cncf/artwork/blob/3e6dbd6b9f3fd3b03e848c10a9921ccc5b5dabf7/projects/external-secrets-operator/icon/black/eso-icon-black.svg
Has only been modified to set the outer circle color to #8fa4b1.
-->
<svg xmlns="http://www.w3.org/2000/svg" viewBox="0 0 165.47 165.47"><defs><style>.d,.e,.f{fill:#fff;}.e,.g,.h{stroke-width:4px;}.e,.g,.h,.f,.i{stroke:#fff;}.e,.g,.h,.i{stroke-linecap:round;}.g,.h,.i{fill:none;}.h,.i{stroke-linejoin:round;}.f{stroke-miterlimit:10;}.i{stroke-width:3px;}</style></defs><g id="a"/><g id="b"><g id="c"><g><circle fill="#8fa4b1" cx="82.73" cy="82.73" r="82.73"/><g><path class="g" d="M84.62,45.71c4.91,0,8.9,3.98,8.9,8.9"/><path class="h" d="M59.86,62.99c0-12.66,10.26-22.92,22.92-22.92s22.92,10.26,22.92,22.92"/><g><path class="d" d="M76.25,98.95c-.21,.29-.43,.43-.65,.43s-.44-.1-.66-.29c-.22-.19-.33-.38-.33-.56s.09-.37,.26-.56l1.61-2.26-2.15-.69c-.42-.13-.63-.35-.63-.66,0-.17,.03-.32,.09-.46,.11-.4,.35-.6,.72-.6,.08,0,.21,.02,.4,.06l2.21,.72v-2.35c0-.57,.29-.86,.86-.86s.86,.29,.86,.86v2.35l2.15-.72c.19-.04,.35-.06,.49-.06s.29,.1,.46,.29c.17,.19,.26,.44,.26,.76s-.21,.54-.63,.67l-2.18,.69,1.63,2.26c.15,.17,.23,.35,.23,.54s-.11,.38-.33,.57c-.22,.19-.43,.29-.64,.29s-.42-.14-.63-.43l-1.69-2.38-1.69,2.38Z"/><path class="d" d="M66.57,98.95c-.21,.29-.43,.43-.65,.43s-.44-.1-.66-.29c-.22-.19-.33-.38-.33-.56s.09-.37,.26-.56l1.61-2.26-2.15-.69c-.42-.13-.63-.35-.63-.66,0-.17,.03-.32,.09-.46,.11-.4,.35-.6,.72-.6,.08,0,.21,.02,.4,.06l2.21,.72v-2.35c0-.57,.29-.86,.86-.86s.86,.29,.86,.86v2.35l2.15-.72c.19-.04,.35-.06,.49-.06s.29,.1,.46,.29c.17,.19,.26,.44,.26,.76s-.21,.54-.63,.67l-2.18,.69,1.63,2.26c.15,.17,.23,.35,.23,.54s-.11,.38-.33,.57c-.22,.19-.43,.29-.64,.29s-.42-.14-.63-.43l-1.69-2.38-1.69,2.38Z"/><path class="d" d="M85.92,98.95c-.21,.29-.43,.43-.65,.43s-.44-.1-.66-.29c-.22-.19-.33-.38-.33-.56s.09-.37,.26-.56l1.61-2.26-2.15-.69c-.42-.13-.63-.35-.63-.66,0-.17,.03-.32,.09-.46,.11-.4,.35-.6,.72-.6,.08,0,.21,.02,.4,.06l2.21,.72v-2.35c0-.57,.29-.86,.86-.86s.86,.29,.86,.86v2.35l2.15-.72c.19-.04,.35-.06,.49-.06s.29,.1,.46,.29c.17,.19,.26,.44,.26,.76s-.21,.54-.63,.67l-2.18,.69,1.63,2.26c.15,.17,.23,.35,.23,.54s-.11,.38-.33,.57c-.22,.19-.43,.29-.64,.29s-.42-.14-.63-.43l-1.69-2.38-1.69,2.38Z"/><path class="d" d="M95.6,98.95c-.21,.29-.43,.43-.65,.43s-.44-.1-.66-.29c-.22-.19-.33-.38-.33-.56s.09-.37,.26-.56l1.61-2.26-2.15-.69c-.42-.13-.63-.35-.63-.66,0-.17,.03-.32,.09-.46,.11-.4,.35-.6,.72-.6,.08,0,.21,.02,.4,.06l2.21,.72v-2.35c0-.57,.29-.86,.86-.86s.86,.29,.86,.86v2.35l2.15-.72c.19-.04,.35-.06,.49-.06s.29,.1,.46,.29c.17,.19,.26,.44,.26,.76s-.21,.54-.63,.67l-2.18,.69,1.63,2.26c.15,.17,.23,.35,.23,.54s-.11,.38-.33,.57c-.22,.19-.43,.29-.64,.29s-.42-.14-.63-.43l-1.69-2.38-1.69,2.38Z"/></g><rect class="i" x="57.56" y="87.66" width="50.43" height="14.93" rx=".87" ry=".87"/><g><path class="g" d="M31.15,101.61c0-4.91,3.98-8.9,8.9-8.9"/><path class="g" d="M24.94,108.73c0-3.43,2.78-6.22,6.22-6.22s6.22,2.78,6.22,6.22"/><line class="h" x1="44.3" y1="84.1" x2="44.3" y2="102.85"/></g><g><path class="g" d="M134.31,101.61c0-4.91-3.98-8.9-8.9-8.9"/><path class="g" d="M140.53,108.73c0-3.43-2.78-6.22-6.22-6.22s-6.22,2.78-6.22,6.22"/><line class="h" x1="121.17" y1="84.1" x2="121.17" y2="102.85"/></g><g><circle class="f" cx="82.78" cy="19.49" r="4.3"/><line class="e" x1="82.78" y1="21.23" x2="82.78" y2="39.18"/></g><g><polyline class="h" points="79.23 121.53 50.29 121.83 50.29 68.42 115.18 68.42 115.18 121.83 90.87 121.58"/><polygon class="d" points="92.07 117.61 85.13 121.53 91.99 125.58 92.07 117.61"/></g></g></g></g></g></svg>