<?xml version="1.0" encoding="UTF-8"?>
<!--
This logo is copied from here: https://github.com/fluxcd/flagger/blob/27daa2ca468c42f3f373355818c146d48efc64f5/docs/logo/flagger-icon-white.svg
The logo is licensed under the Apache License 2.0: https://github.com/fluxcd/flagger/blob/27daa2ca468c42f3f373355818c146d48efc64f5/LICENSE

The SVG is unmodified aside from this comment being added and the color being changed to match the Argo CD UI's color scheme.
-->
<svg width="64px" height="64px" viewBox="0 0 64 64" version="1.1" xmlns="http://www.w3.org/2000/svg" xmlns:xlink="http://www.w3.org/1999/xlink">
    <title>flagger-icon-white</title>
    <g id="flagger-icon-white" stroke="none" stroke-width="1" fill="none" fill-rule="evenodd">
        <path d="M11.7870673,17.7791346 C10.7376442,17.0966346 10.7376442,15.5602885 11.7870673,14.8783654 L31.1659135,2.27951923 C31.4527085,2.09313128 31.7809164,2 32.109115,2 C32.1144833,2 32.1144833,30.6577081 32.1144833,30.6577081 C31.7844966,30.658555 31.4542722,30.565385 31.1659135,30.3779808 L11.7870673,17.7791346 Z" id="Fill-1" fill="#8fa4b1"></path>
        <path d="M1.78706731,24.2791346 C0.737644231,23.5966346 0.737644231,22.0602885 1.78706731,21.3783654 L21.1659135,8.77951923 C21.4527085,8.59313128 21.7809164,8.5 22.109147,8.5 C22.1144833,8.5 16.7504591,14.9302441 16.4621003,14.7428399 L1.78706731,24.2791346 Z" id="Fill-1-Copy" fill="#8fa4b1"></path>
        <path d="M32.1005414,32.7999243 C32.4314477,32.7984255 32.7627112,32.8915919 33.051875,33.0795192 L52.4312981,45.6783654 C53.4807212,46.3602885 53.4807212,47.8966346 52.4312981,48.5791346 L33.051875,61.1779808 C32.7723427,61.3596486 32.4534685,61.452763 32.1336066,61.4575 C32.1336066,61.4575 32.1005414,32.7999243 32.1005414,32.7999243 Z" id="Fill-1" fill="#8fa4b1"></path>
        <path d="M42.6594534,51.6821881 L62.4312981,39.1784411 C63.4807212,39.8603641 63.4807212,41.3967103 62.4312981,42.0792103 L43.051875,54.6780564 C42.7723427,54.8597243 42.4534685,54.9528387 42.1336066,54.9573995 C42.1336066,54.9573995 42.3702896,51.4942608 42.6594534,51.6821881 Z" id="Fill-1-Copy-2" fill="#8fa4b1"></path>
        <g id="Group" transform="translate(11.000000, 32.000000)" fill="#8fa4b1">
            <path d="M23.1648462,1.79890385 C22.7177486,1.57560653 21.9079818,0.775616463 21.12525,0.8 C20.4471662,0.8 20.1819808,1.07951923 19.08525,1.79890385 C20.6106346,2.45198077 26.2588846,4.40082692 27.8390769,4.83755769 C25.3252832,3.17403545 23.7672062,2.16115083 23.1648462,1.79890385 Z" id="Fill-5"></path>
            <path d="M17.1629423,3.04898077 L15.4269808,4.17744231 C16.9371113,5.2881491 18.4473527,6.15609036 19.9577051,6.7812661 C23.0272183,8.05182074 26.9292047,8.86995809 27.8191154,9.08936538 C32.8706538,10.3349423 37.6418077,11.5107115 41.4783462,15.3478269 C41.6733462,15.54225 41.8562308,15.7407115 42.0373846,15.93975 C42.4308462,15.1880192 42.2335385,14.1957115 41.4466154,13.6845577 L33.8560385,8.74898077 C32.0133462,8.14090385 30.1360385,7.67590385 28.2806538,7.21898077 C26.5308462,6.78744231 23.5727919,6.02059898 21.9181765,5.49156052 C20.8150996,5.13886821 19.2300215,4.32467496 17.1629423,3.04898077 Z" id="Fill-7"></path>
            <path d="M16.8750849,8.20483098 C15.6193488,7.62821266 14.2831279,6.83594208 12.8664221,5.82801923 L11.2119808,6.91782692 C12.8335577,8.16072333 14.2385577,9.07106402 15.4269808,9.648849 C17.2096154,10.5155265 24.0114808,12.3722308 24.4326346,12.4760769 C29.4841731,13.7210769 34.2553269,14.8968462 38.0924423,18.7339615 C38.0987885,18.7408846 38.1045577,18.7472308 38.1114808,18.7541538 L39.75225,17.6868462 C39.6524423,17.5824231 39.5584038,17.4751154 39.4545577,17.3718462 C35.2384038,13.1551154 29.9791731,11.8587692 24.8941731,10.6051154 C24.3137885,10.4620385 18.7586891,9.06975845 16.8750849,8.20483098 Z" id="Fill-11"></path>
            <path d="M23.1650769,16.3935 C27.1175769,17.4140769 30.8341154,18.6342692 33.9823846,21.4381154 L35.6439231,20.3581154 C32.0465509,16.9762696 28.005918,15.3433009 23.4551919,14.4789663 C19.3757148,13.7041376 16.6984434,12.7436057 13.6520967,11.5324737 C11.621199,10.7250524 9.97648083,9.72718297 8.71794231,8.53886538 L7.04717308,9.62521154 C9.06194661,11.3700006 10.8411363,12.5664934 12.3847422,13.2146899 C14.4228927,14.0705575 18.0163376,15.1301608 23.1650769,16.3935 Z" id="Fill-17"></path>
            <path d="M4.57875,11.2299231 L2.92990385,12.3018462 C2.98759615,12.3612692 3.04009615,12.423 3.09951923,12.4818462 C7.31625,16.6985769 12.5743269,17.9949231 17.6599038,19.2485769 C22.0641346,20.3337692 26.2543269,21.3687692 29.7989423,24.1581923 L31.4893269,23.0591538 C27.4958654,19.6968462 22.7385577,18.5158846 18.1214423,17.3781923 C13.1206731,16.1453077 8.39567308,14.9758846 4.57875,11.2299231" id="Fill-19"></path>
            <path d="M1.07555769,14.5060962 C0.883442308,14.3139808 0.702865385,14.1184038 0.524019231,13.9216731 C-0.227711538,14.6745577 -0.139442308,15.9726346 0.80325,16.5853269 L6.50959615,20.2955192 C9.03536538,21.3409038 11.6765192,21.9945577 14.2738269,22.6349423 C18.3284423,23.6341731 22.2019038,24.5924423 25.5578654,26.9157115 L27.2834423,25.7930192 C23.4676731,22.9245577 19.0403654,21.8255192 14.7347885,20.7639808 C9.68382692,19.5189808 4.91267308,18.3432115 1.07555769,14.5060962" id="Fill-21"></path>
            <path d="M19.6441154,28.8342692 C20.0243077,29.0188846 20.3998846,29.2133077 20.7691154,29.4221538 C21.2093077,29.5150385 21.6771923,29.4383077 22.0683462,29.1838846 L23.0260385,28.5613846 C19.9493077,26.5035 16.5287308,25.461 13.1196923,24.5927308 L19.6441154,28.8342692 Z" id="Fill-23"></path>
        </g>
        <g id="Group-Copy" transform="translate(11.000000, 1.200000)" fill="#8fa4b1">
            <path d="M23.1648462,1.79890385 C22.7177486,1.57560653 21.9079818,0.775616463 21.12525,0.8 C20.4471662,0.8 20.1819808,1.07951923 19.08525,1.79890385 C20.6106346,2.45198077 26.2588846,4.40082692 27.8390769,4.83755769 C25.3252832,3.17403545 23.7672062,2.16115083 23.1648462,1.79890385 Z" id="Fill-5"></path>
            <path d="M17.1629423,3.04898077 L15.4269808,4.17744231 C16.9371113,5.2881491 18.4473527,6.15609036 19.9577051,6.7812661 C23.0272183,8.05182074 26.9292047,8.86995809 27.8191154,9.08936538 C32.8706538,10.3349423 37.6418077,11.5107115 41.4783462,15.3478269 C41.6733462,15.54225 41.8562308,15.7407115 42.0373846,15.93975 C42.4308462,15.1880192 42.2335385,14.1957115 41.4466154,13.6845577 L33.8560385,8.74898077 C32.0133462,8.14090385 30.1360385,7.67590385 28.2806538,7.21898077 C26.5308462,6.78744231 23.5727919,6.02059898 21.9181765,5.49156052 C20.8150996,5.13886821 19.2300215,4.32467496 17.1629423,3.04898077 Z" id="Fill-7"></path>
            <path d="M16.8750849,8.20483098 C15.6193488,7.62821266 14.2831279,6.83594208 12.8664221,5.82801923 L11.2119808,6.91782692 C12.8335577,8.16072333 14.2385577,9.07106402 15.4269808,9.648849 C17.2096154,10.5155265 24.0114808,12.3722308 24.4326346,12.4760769 C29.4841731,13.7210769 34.2553269,14.8968462 38.0924423,18.7339615 C38.0987885,18.7408846 38.1045577,18.7472308 38.1114808,18.7541538 L39.75225,17.6868462 C39.6524423,17.5824231 39.5584038,17.4751154 39.4545577,17.3718462 C35.2384038,13.1551154 29.9791731,11.8587692 24.8941731,10.6051154 C24.3137885,10.4620385 18.7586891,9.06975845 16.8750849,8.20483098 Z" id="Fill-11"></path>
            <path d="M23.1650769,16.3935 C27.1175769,17.4140769 30.8341154,18.6342692 33.9823846,21.4381154 L35.6439231,20.3581154 C32.0465509,16.9762696 28.005918,15.3433009 23.4551919,14.4789663 C19.3757148,13.7041376 16.6984434,12.7436057 13.6520967,11.5324737 C11.621199,10.7250524 9.97648083,9.72718297 8.71794231,8.53886538 L7.04717308,9.62521154 C9.06194661,11.3700006 10.8411363,12.5664934 12.3847422,13.2146899 C14.4228927,14.0705575 18.0163376,15.1301608 23.1650769,16.3935 Z" id="Fill-17"></path>
            <path d="M4.57875,11.2299231 L2.92990385,12.3018462 C2.98759615,12.3612692 3.04009615,12.423 3.09951923,12.4818462 C7.31625,16.6985769 12.5743269,17.9949231 17.6599038,19.2485769 C22.0641346,20.3337692 26.2543269,21.3687692 29.7989423,24.1581923 L31.4893269,23.0591538 C27.4958654,19.6968462 22.7385577,18.5158846 18.1214423,17.3781923 C13.1206731,16.1453077 8.39567308,14.9758846 4.57875,11.2299231" id="Fill-19"></path>
            <path d="M1.07555769,14.5060962 C0.883442308,14.3139808 0.702865385,14.1184038 0.524019231,13.9216731 C-0.227711538,14.6745577 -0.139442308,15.9726346 0.80325,16.5853269 L6.50959615,20.2955192 C9.03536538,21.3409038 11.6765192,21.9945577 14.2738269,22.6349423 C18.3284423,23.6341731 22.2019038,24.5924423 25.5578654,26.9157115 L27.2834423,25.7930192 C23.4676731,22.9245577 19.0403654,21.8255192 14.7347885,20.7639808 C9.68382692,19.5189808 4.91267308,18.3432115 1.07555769,14.5060962" id="Fill-21"></path>
            <path d="M19.6441154,28.8342692 C20.0243077,29.0188846 20.3998846,29.2133077 20.7691154,29.4221538 C21.2093077,29.5150385 21.6771923,29.4383077 22.0683462,29.1838846 L23.0260385,28.5613846 C19.9493077,26.5035 16.5287308,25.461 13.1196923,24.5927308 L19.6441154,28.8342692 Z" id="Fill-23"></path>
        </g>
    </g>
</svg>
